<svg xmlns="http://www.w3.org/2000/svg" viewBox="0 0 52.219 52.878">
  <defs>
    <style>
      .cls-1 {
        fill: #3af072;
        fill-rule: evenodd;
      }
    </style>
  </defs>
  <path id="icon-plan-premiumPlus.1533065418_1_" data-name="icon-plan-premiumPlus.1533065418 (1)" class="cls-1" d="M793.111,369l-1.535.969L770.964,383.04,767,385.552v19.774l3.964,2.512,20.612,13.069,1.535.971,1.533-.971,20.611-13.069,3.965-2.512V385.552l-3.965-2.512-20.611-13.072Zm-12.824,21.5-2.739-1.74-5.051-3.2,20.614-13.072,20.608,13.072-5.051,3.2-2.739,1.74-12.818,8.127Zm14.281,10.677.076-.042,14.025-8.9,2.759-1.738,3.828-2.433,1.048-.672v6.329l-2.583,1.718-19.151,12.144Zm-22.07-5.736-2.581-1.7V387.39l1.047.672,3.829,2.433,2.756,1.738,14.027,8.9.076.042v6.407Zm22.07,15.624.076-.039,20.611-13.072,1.048-.672v6.328l-2.583,1.721-19.151,12.142Zm-22.07-5.735-2.581-1.7v-6.349l1.047.672,20.612,13.072.076.039v6.407Z" transform="translate(-767 -369)"/>
</svg>
