<svg xmlns="http://www.w3.org/2000/svg" viewBox="0 0 104.332 34">
  <defs>
    <style>
      .cls-1, .cls-2 {
        fill: #3af072;
      }

      .cls-2 {
        font-size: 20px;
        font-family: Roboto-Black, Roboto;
        font-weight: 800;
      }

      .cls-2, .cls-3 {
        letter-spacing: 0.01em;
      }

      .cls-3 {
        fill: #0c0716;
        font-size: 10px;
        font-family: Roboto-Regular, Roboto;
      }
    </style>
  </defs>
  <g id="Group_392" data-name="Group 392" transform="translate(-297 -27)">
    <g id="buffer" transform="translate(286.697 27)">
      <path id="Path_264" data-name="Path 264" class="cls-1" d="M10.672,8.624l15.349,7.388a.65.65,0,0,0,.564,0L41.934,8.624a.65.65,0,0,0,0-1.171L26.584.065a.65.65,0,0,0-.564,0L10.672,7.453A.65.65,0,0,0,10.672,8.624Z" transform="translate(-0.001)"/>
      <path id="Path_265" data-name="Path 265" class="cls-1" d="M10.672,155.654l15.349,7.388a.65.65,0,0,0,.564,0l15.349-7.388a.65.65,0,0,0,0-1.171L38.7,152.924,28.41,157.875a4.861,4.861,0,0,1-4.215,0l-10.284-4.95-3.239,1.559A.65.65,0,0,0,10.672,155.654Z" transform="translate(-0.001 -138.068)"/>
      <path id="Path_266" data-name="Path 266" class="cls-1" d="M41.933,246.741l-3.238-1.559-10.286,4.951a4.861,4.861,0,0,1-4.215,0l-10.284-4.95-3.239,1.559a.65.65,0,0,0,0,1.171L26.02,255.3a.65.65,0,0,0,.564,0l15.349-7.388A.65.65,0,0,0,41.933,246.741Z" transform="translate(0 -221.364)"/>
    </g>
    <text id="_.SYNC" data-name=".SYNC" class="cls-2" transform="translate(334 54.891)"><tspan x="0" y="0">.SYNC</tspan></text>
    <text id="CRYPTO_" class="cls-3" transform="translate(358.332 38.469)"><tspan x="0" y="0">CRYPTO_</tspan></text>
  </g>
</svg>
