<?xml version="1.0"?>
<svg xmlns="http://www.w3.org/2000/svg" height="512px" viewBox="-7 0 495 495.95084" width="512px"><path d="m168.574219 223.976562c-10.097657 0-19.097657 6.398438-22.5 16h-99c-4.398438-12.5-18.097657-19-30.597657-14.601562-12.5 4.402344-19 18.101562-14.601562 30.601562 4.402344 12.5 18.101562 19 30.601562 14.597657 6.800782-2.398438 12.199219-7.796875 14.597657-14.597657h98.902343c4.398438 12.5 18.097657 19 30.597657 14.5 12.5-4.402343 19-18.101562 14.5-30.601562-3.296875-9.5-12.398438-15.898438-22.5-15.898438zm0 0" fill="#3af072"/><path d="m168.574219 303.976562c-10.097657 0-19.097657 6.398438-22.5 16h-97.5c-2.5 0-4.898438 1.199219-6.398438 3.199219l-10.5 14c-2.300781-.800781-4.699219-1.199219-7.101562-1.199219-13.296875 0-24.097657 10.800782-24.097657 24 0 13.300782 10.800782 24.097657 24 24.097657 13.300782 0 24.097657-10.796875 24.097657-24 0-4.796875-1.398438-9.398438-4-13.398438l8-10.699219h93.5c4.402343 12.5 18.101562 19 30.601562 14.5 12.5-4.402343 19-18.101562 14.5-30.601562-3.398437-9.5-12.5-15.898438-22.601562-15.898438zm0 0" fill="#3af072"/><path d="m168.574219 383.976562c-13.296875 0-24 10.699219-24 24 0 3.597657.800781 7.097657 2.402343 10.300782l-45.699218 45.699218h-54.203125c-4.398438-12.5-18.097657-19-30.597657-14.601562-12.5 4.402344-19 18.101562-14.601562 30.601562 4.402344 12.5 18.101562 19 30.601562 14.597657 6.800782-2.398438 12.199219-7.796875 14.597657-14.597657h57.5c2.101562 0 4.203125-.800781 5.703125-2.300781l48.097656-48.101562c3.199219 1.601562 6.699219 2.402343 10.300781 2.402343 13.300781 0 24-10.699218 24-24 0-13.300781-10.800781-24-24.101562-24zm0 0" fill="#3af072"/><path d="m168.574219 143.976562c-10.097657 0-19.097657 6.398438-22.5 16h-93.5l-8-10.699218c7.300781-11 4.300781-25.902344-6.699219-33.300782-11-7.300781-25.898438-4.300781-33.300781 6.699219-7.296875 11-4.296875 25.898438 6.703125 33.300781 3.898437 2.597657 8.597656 4 13.296875 4 2.402343 0 4.800781-.402343 7.101562-1.199218l10.5 14c1.5 2 3.898438 3.199218 6.398438 3.199218h97.5c4.402343 12.5 18.101562 19 30.601562 14.5 12.5-4.402343 19-18.101562 14.5-30.601562-3.398437-9.5-12.5-15.898438-22.601562-15.898438zm0 0" fill="#3af072"/><path d="m32.476562 46.574219c6.800782-2.398438 12.199219-7.796875 14.597657-14.597657h54.203125l45.699218 45.699219c-1.601562 3.199219-2.402343 6.699219-2.402343 10.300781 0 13.300782 10.703125 24 24 24 13.300781 0 24-10.699218 24-24 0-13.300781-10.699219-24-24-24-3.597657 0-7.097657.800782-10.296875 2.398438l-48.101563-48.097656c-1.5-1.5-3.5-2.300782-5.699219-2.300782h-57.402343c-4.398438-12.5-18.097657-19-30.597657-14.601562-12.5 4.402344-19 18.101562-14.601562 30.601562 4.402344 12.5 18.101562 19 30.601562 14.597657zm0 0" fill="#3af072"/><path d="m248.574219 441.476562v-98.902343c9.601562-3.398438 16-12.398438 16-22.5.101562-13.296875-10.597657-24-23.898438-24.097657-13.300781-.101562-24 10.597657-24.101562 23.898438 0 10.199219 6.402343 19.300781 16 22.699219v98.902343c-12.5 4.398438-19 18.097657-14.597657 30.597657 4.398438 12.5 18.097657 19 30.597657 14.601562 12.5-4.398437 19-18.101562 14.601562-30.601562-2.398437-6.796875-7.800781-12.199219-14.601562-14.597657zm0 0" fill="#3af072"/><path d="m232.574219 54.476562v98.898438c-9.597657 3.402344-16 12.402344-16 22.5-.097657 13.300781 10.601562 24 23.902343 24.101562 13.300782.097657 24-10.601562 24.097657-23.902343 0-10.199219-6.398438-19.296875-16-22.699219v-98.898438c12.5-4.402343 19-18.101562 14.601562-30.601562-4.398437-12.5-18.101562-19-30.601562-14.597656-12.5 4.398437-19 18.097656-14.597657 30.597656 2.398438 6.800781 7.800782 12.199219 14.597657 14.601562zm0 0" fill="#3af072"/><path d="m320.476562 270.574219c6.800782-2.398438 12.199219-7.796875 14.597657-14.597657h98.902343c4.398438 12.5 18.097657 19 30.597657 14.5 12.5-4.402343 19-18.101562 14.5-30.601562-3.398438-9.597656-12.5-15.898438-22.597657-15.898438-10.101562 0-19.101562 6.398438-22.5 16h-98.902343c-4.398438-12.5-18.097657-19-30.597657-14.601562-12.5 4.402344-19 18.101562-14.601562 30.601562 4.402344 12.5 18.101562 19 30.601562 14.597657zm0 0" fill="#3af072"/><path d="m312.574219 111.976562c13.300781 0 24-10.699218 24-24 0-3.601562-.796875-7.101562-2.398438-10.300781l45.699219-45.699219h54.199219c4.402343 12.5 18.101562 19 30.601562 14.597657 12.5-4.398438 19-18.097657 14.601563-30.597657-4.402344-12.5-18.101563-19-30.601563-14.601562-6.800781 2.402344-12.199219 7.800781-14.601562 14.601562h-57.5c-2.097657 0-4.199219.800782-5.699219 2.300782l-48.097656 48.097656c-3.203125-1.597656-6.703125-2.398438-10.300782-2.398438-13.300781 0-24 10.699219-24 24 0 13.300782 10.800782 24 24.097657 24zm0 0" fill="#3af072"/><path d="m320.476562 190.574219c6.800782-2.398438 12.199219-7.796875 14.597657-14.597657h97.5c2.5 0 4.902343-1.199218 6.402343-3.199218l10.5-14c2.300782.796875 4.699219 1.199218 7.097657 1.199218 13.300781 0 24-10.699218 24-24 0-13.300781-10.699219-24-24-24-13.296875 0-24 10.800782-24 24 0 4.699219 1.402343 9.300782 4 13.300782l-8 10.699218h-93.5c-4.398438-12.5-18.097657-19-30.597657-14.601562-12.5 4.402344-19 18.101562-14.601562 30.601562 4.402344 12.5 18.101562 19 30.601562 14.597657zm0 0" fill="#3af072"/><path d="m456.574219 447.976562c-10.097657 0-19.097657 6.398438-22.5 16h-54.199219l-45.699219-45.699218c1.601563-3.203125 2.398438-6.703125 2.398438-10.300782 0-13.300781-10.699219-24-24-24-13.296875 0-24 10.699219-24 24 0 13.300782 10.703125 24 24 24 3.601562 0 7.101562-.800781 10.300781-2.402343l48.101562 48.101562c1.5 1.5 3.5 2.300781 5.699219 2.300781h57.5c4.398438 12.5 18.101563 19 30.601563 14.5 12.5-4.402343 19-18.101562 14.5-30.601562-3.5-9.5-12.601563-15.898438-22.703125-15.898438zm0 0" fill="#3af072"/><path d="m469.875 339.976562c-3.898438-2.601562-8.597656-4-13.300781-4-2.398438 0-4.796875.398438-7.097657 1.199219l-10.5-14c-1.5-2-3.902343-3.199219-6.402343-3.199219h-97.5c-4.398438-12.5-18.097657-19-30.597657-14.601562-12.5 4.402344-19 18.101562-14.601562 30.601562 4.402344 12.5 18.101562 19 30.601562 14.597657 6.800782-2.398438 12.199219-7.796875 14.597657-14.597657h93.5l8 10.699219c-7.296875 11-4.296875 25.898438 6.703125 33.300781 11 7.300782 25.898437 4.300782 33.296875-6.699218 7.402343-11 4.402343-25.902344-6.699219-33.300782zm0 0" fill="#3af072"/><path d="m272.574219 247.976562c0 17.671876-14.324219 32-32 32-17.671875 0-32-14.328124-32-32 0-17.675781 14.328125-32 32-32 17.675781 0 32 14.324219 32 32zm0 0" fill="#3af072"/></svg>
