<?xml version="1.0" encoding="iso-8859-1"?>
<!-- Generator: Adobe Illustrator 16.0.0, SVG Export Plug-In . SVG Version: 6.00 Build 0)  -->
<!DOCTYPE svg PUBLIC "-//W3C//DTD SVG 1.1//EN" "http://www.w3.org/Graphics/SVG/1.1/DTD/svg11.dtd">
<svg xmlns="http://www.w3.org/2000/svg" xmlns:xlink="http://www.w3.org/1999/xlink" version="1.1" id="Capa_1" x="0px" y="0px" width="512px" height="512px" viewBox="0 0 95.667 95.667" style="enable-background:new 0 0 95.667 95.667;" xml:space="preserve">
<g>
	<path d="M70.366,54.126c-0.984-4.153-4.955-7.763-10.895-9.9L63.5,14.844h1.864c1.104,0,2-0.896,2-2V2c0-1.104-0.896-2-2-2H30.3   c-1.104,0-2,0.896-2,2v10.844c0,1.104,0.896,2,2,2h1.845l3.838,29.457v0.001c-5.814,2.146-9.707,5.726-10.682,9.822   c-0.142,0.597-0.003,1.224,0.376,1.703c0.379,0.479,0.958,0.76,1.569,0.76h16.073l1.976,37.187   c0.056,1.062,0.934,1.894,1.997,1.894h1.078c1.062,0,1.94-0.832,1.997-1.894l1.975-37.187h16.075c0.61,0,1.188-0.278,1.568-0.76   C70.368,55.348,70.506,54.721,70.366,54.126z" fill="#3af072"/>
</g>
<g>
</g>
<g>
</g>
<g>
</g>
<g>
</g>
<g>
</g>
<g>
</g>
<g>
</g>
<g>
</g>
<g>
</g>
<g>
</g>
<g>
</g>
<g>
</g>
<g>
</g>
<g>
</g>
<g>
</g>
</svg>
