<svg xmlns="http://www.w3.org/2000/svg" viewBox="0 0 52.684 62.211">
  <defs>
    <style>
      .cls-1 {
        fill: #e83814;
        fill-rule: evenodd;
      }
    </style>
  </defs>
  <path id="icon-plan-max.1533065418" class="cls-1" d="M1136.342,5873l-1.551.963L1114,5886.909l-4,2.5v29.4l4,2.483,20.787,12.96,1.551.963,1.551-.963,20.787-12.96,4-2.483v-29.4l-4-2.5-20.787-12.945Zm-12.93,21.3-2.77-1.716-5.1-3.176,20.8-12.96,20.788,12.96-5.088,3.176-2.77,1.716-12.93,8.054Zm14.405,10.582.075-.029,14.149-8.822,2.785-1.731,3.853-2.408,1.069-.663v6.277l-2.619,1.7-5.088,3.176-2.77,1.716-11.455,7.134Zm-14.405-.782-2.77-1.716-5.1-3.176-2.6-1.686v-6.292l1.069.663,3.853,2.408,2.785,1.731,14.149,8.822.075.029v6.352Zm14.405,10.6.075-.045,14.149-8.821,2.785-1.731,3.853-2.409,1.069-.662v6.277l-2.619,1.7-19.312,12.027Zm-22.278-5.69-2.6-1.686v-6.292l1.069.662,3.853,2.409,2.785,1.731,14.149,8.821.075.045v6.337Zm22.278,15.475.075-.03,20.787-12.961,1.069-.663v6.277l-2.619,1.7-19.312,12.027Zm-22.278-5.675-2.6-1.686v-6.293l1.069.663,20.787,12.961.075.03v6.352Z" transform="translate(-1110 -5873)"/>
</svg>
