<?xml version="1.0"?>
<svg xmlns="http://www.w3.org/2000/svg" height="512px" viewBox="0 0 512 512" width="512px"><path d="m285.046875 244.441406 22.414063-22.410156-74.78125-49.847656c-2.710938-1.804688-4.65625-4.367188-5.726563-7.222656l-22.414063 22.410156 74.78125 49.851562c2.710938 1.800782 4.660157 4.363282 5.726563 7.21875zm0 0" fill="#3af072"/><path d="m91.007812 189.703125c.011719 53.527344 25.476563 103.480469 70.230469 134.894531 12.378907 8.6875 19.761719 24.097656 19.761719 41.222656v8.882813c0 24.8125 20.1875 45 45 45h60c24.8125 0 45-20.1875 45-45v-9.703125c0-16.230469 8.628906-31.992188 23.671875-43.226562 42.15625-31.480469 66.328125-79.613282 66.328125-132.070313 0-90.53125-73.003906-164.804687-165-164.949219-94.207031-.148437-165.003906 75.78125-164.992188 164.949219zm79.386719-10.605469 90-90c5.1875-5.214844 13.402344-5.859375 19.378907-1.566406 5.964843 4.304688 7.925781 12.304688 4.644531 18.882812l-24.082031 48.148438 78.984374 52.660156c3.734376 2.488282 6.167969 6.53125 6.605469 11 .441407 4.46875-1.140625 8.90625-4.320312 12.085938l-90 90c-5.214844 5.214844-13.402344 5.851562-19.378907 1.566406-5.960937-4.308594-7.925781-12.304688-4.644531-18.882812l24.082031-48.148438-78.984374-52.660156c-3.734376-2.492188-6.167969-6.535156-6.605469-11-.4375-4.46875 1.140625-8.910156 4.320312-12.085938zm0 0" fill="#3af072"/><path d="m497 174.703125h-31c-8.289062 0-15 6.707031-15 15 0 8.289063 6.710938 15 15 15h31c8.289062 0 15-6.710937 15-15 0-8.292969-6.710938-15-15-15zm0 0" fill="#3af072"/><path d="m15 204.703125h31c8.289062 0 15-6.710937 15-15 0-8.292969-6.710938-15-15-15h-31c-8.289062 0-15 6.707031-15 15 0 8.289063 6.710938 15 15 15zm0 0" fill="#3af072"/><path d="m436.308594 4.394531c-5.859375-5.859375-15.351563-5.859375-21.210938 0l-21.210937 21.210938c-5.859375 5.859375-5.859375 15.351562 0 21.210937s15.351562 5.859375 21.210937 0l21.210938-21.210937c5.859375-5.859375 5.859375-15.351563 0-21.210938zm0 0" fill="#3af072"/><path d="m75.691406 370.011719c5.859375 5.859375 15.351563 5.859375 21.210938 0l21.210937-21.210938c5.859375-5.859375 5.859375-15.355469 0-21.210937-5.859375-5.859375-15.351562-5.859375-21.210937 0l-21.210938 21.210937c-5.859375 5.859375-5.859375 15.347657 0 21.210938zm0 0" fill="#3af072"/><path d="m96.902344 4.394531c-5.859375-5.859375-15.351563-5.859375-21.210938 0s-5.859375 15.351563 0 21.210938l21.210938 21.210937c5.859375 5.859375 15.351562 5.859375 21.210937 0s5.859375-15.351562 0-21.210937zm0 0" fill="#3af072"/><path d="m415.097656 327.589844c-5.859375-5.859375-15.351562-5.859375-21.210937 0-5.859375 5.855468-5.859375 15.351562 0 21.210937l21.210937 21.210938c5.859375 5.859375 15.351563 5.859375 21.210938 0s5.859375-15.351563 0-21.210938zm0 0" fill="#3af072"/><path d="m211 465.703125c0 24.8125 20.1875 46 45 46s45-21.1875 45-46v-16h-90zm0 0" fill="#3af072"/></svg>
