<svg xmlns="http://www.w3.org/2000/svg" viewBox="0 0 51.965 42.782">
  <defs>
    <style>
      .cls-1 {
        fill: #0c0716;
        fill-rule: evenodd;
      }
    </style>
  </defs>
  <path id="icon-plan-premium.1533065418" class="cls-1" d="M575.981,412l-1.525.966-20.511,13-3.945,2.5v9.839l2.9,1.832,1.044.667,20.511,13.008.076.042,1.449.924,1.452-.924.076-.042,20.511-13.008,1.044-.667,2.9-1.832v-9.839l-3.945-2.5-20.511-13Zm-12.758,21.39-2.726-1.73-5.024-3.189,20.508-13.008,20.511,13.008-5.026,3.189-2.724,1.73-12.761,8.089Zm14.21,10.628.076-.04,13.958-8.855,2.745-1.733,3.808-2.419,1.044-.668v6.3l-2.572,1.712-19.059,12.083Zm-21.96-5.707L552.9,436.62V430.3l1.044.668,3.807,2.419,2.745,1.733,13.959,8.855.076.04v6.375Z" transform="translate(-550 -412)"/>
</svg>
