<?xml version="1.0" encoding="iso-8859-1"?>
<!-- Generator: Adobe Illustrator 19.0.0, SVG Export Plug-In . SVG Version: 6.00 Build 0)  -->
<svg xmlns="http://www.w3.org/2000/svg" xmlns:xlink="http://www.w3.org/1999/xlink" version="1.1" id="Capa_1" x="0px" y="0px" viewBox="0 0 512 512" style="enable-background:new 0 0 512 512;" xml:space="preserve" width="512px" height="512px">
<g>
	<g>
		<g>
			<path d="M365.714,201.143V18.286C365.685,8.199,357.515,0.029,347.429,0H18.286C8.199,0.029,0.029,8.199,0,18.286v182.857     c0.03,10.087,8.199,18.256,18.286,18.286h18.286c5.043,0.015,9.128,4.1,9.143,9.143v63.909l56.96-69.669     c0.091-0.183,0.183-0.183,0.274-0.274c0.452-0.501,0.976-0.933,1.554-1.28c0.457-0.274,0.823-0.64,1.28-0.914     c0.549-0.183,1.097-0.274,1.646-0.457c0.589-0.209,1.205-0.332,1.829-0.366c0.183,0,0.274-0.091,0.457-0.091h237.714     C357.515,219.399,365.685,211.229,365.714,201.143z M182.674,193.829c-0.099,0.573-0.284,1.128-0.549,1.646     c-0.2,0.583-0.477,1.136-0.823,1.646l-1.097,1.371c-0.889,0.807-1.909,1.456-3.017,1.92c-1.085,0.512-2.275,0.763-3.474,0.731     c-2.42-0.035-4.739-0.982-6.491-2.651l-1.097-1.371c-0.346-0.509-0.623-1.063-0.823-1.646c-0.264-0.518-0.449-1.073-0.549-1.646     c-0.106-0.604-0.167-1.215-0.183-1.829c0.013-1.195,0.262-2.375,0.731-3.474c0.464-1.108,1.113-2.128,1.92-3.017     c0.874-0.826,1.898-1.478,3.017-1.92c2.214-0.975,4.735-0.975,6.949,0c2.296,0.833,4.104,2.641,4.937,4.937     c0.469,1.099,0.718,2.279,0.731,3.474C182.842,192.613,182.78,193.224,182.674,193.829z M237.599,84.602     c-1.122,30.893-24.153,56.576-54.742,61.044v9.783c0,5.049-4.093,9.143-9.143,9.143s-9.143-4.093-9.143-9.143v-9.874     c0.079-9.062,6.757-16.711,15.726-18.011c19.146-2.73,34.508-17.205,38.369-36.155c3.862-18.951-4.611-38.282-21.163-48.286     c-16.552-10.004-37.606-8.519-52.589,3.71C134.179,55.452,127.956,68.505,128,82.286c0,5.049-4.093,9.143-9.143,9.143     c-5.049,0-9.143-4.093-9.143-9.143c0.007-16.979,6.767-33.259,18.79-45.247c12.023-11.989,28.322-18.703,45.301-18.661     c4.575,0.008,9.138,0.467,13.623,1.371C217.613,26.424,238.721,53.708,237.599,84.602z" fill="#3af072"/>
			<path d="M334.72,329.509c-1.878-0.258-3.773-0.38-5.669-0.366c-19.384,0.041-36.636,12.301-43.049,30.594     c-6.413,18.293-0.593,38.642,14.523,50.777c6.536,5.135,10.346,12.991,10.331,21.303v7.04h36.571v-7.04     c0.077-8.362,3.903-16.249,10.423-21.486c12.84-10.263,19.134-26.662,16.457-42.88     C370.893,347.474,354.824,332.074,334.72,329.509z M347.611,384c-2.427,0.008-4.758-0.952-6.474-2.669     c-1.716-1.716-2.677-4.047-2.669-6.474c-0.047-5.03-4.113-9.096-9.143-9.143h-0.091c-5.049,0-9.143-4.093-9.143-9.143     c0-5.049,4.093-9.143,9.143-9.143h0.091c15.117,0.077,27.352,12.312,27.429,27.429C356.739,379.9,352.655,383.985,347.611,384z" fill="#3af072"/>
			<path d="M493.714,292.571h-18.286c-5.043-0.015-9.128-4.1-9.143-9.143V219.52l-56.96,69.669l-0.274,0.274     c-0.657,0.706-1.43,1.293-2.286,1.737c-0.274,0.183-0.457,0.457-0.731,0.549c-1.172,0.552-2.453,0.833-3.749,0.823H164.571     c-10.087,0.029-18.256,8.199-18.286,18.286v182.857c0.03,10.087,8.199,18.256,18.286,18.286h329.143     c10.087-0.03,18.256-8.199,18.286-18.286V310.857C511.971,300.771,503.801,292.601,493.714,292.571z M210.286,374.857     c0.015-5.043,4.1-9.128,9.143-9.143h18.286c5.049,0,9.143,4.093,9.143,9.143c0,5.049-4.093,9.143-9.143,9.143h-18.286     C214.385,383.985,210.301,379.9,210.286,374.857z M246.491,414.811l-17.189,6.309c-0.995,0.366-2.048,0.552-3.109,0.549     c-3.84-0.033-7.26-2.434-8.594-6.034c-0.829-2.279-0.717-4.795,0.312-6.991c1.029-2.196,2.891-3.892,5.173-4.712l17.189-6.309     c4.746-1.714,9.983,0.742,11.699,5.487C253.69,407.855,251.236,413.093,246.491,414.811z M252.384,345.259     c-0.766,4.372-4.562,7.562-9.001,7.564c-1.09-0.004-2.171-0.189-3.2-0.549l-17.189-6.217c-4.706-1.758-7.114-6.982-5.394-11.703     c0.813-2.288,2.507-4.156,4.706-5.187c2.199-1.031,4.718-1.138,6.997-0.299l17.189,6.217     C250.665,336.597,253.15,340.887,252.384,345.259z M369.371,424.594c-2.25,1.729-3.595,4.385-3.657,7.223v7.04     c-0.001,6.504-3.491,12.507-9.143,15.726v10.789c0.299,12.01-7.151,22.852-18.469,26.88c-2.885,0.982-5.913,1.476-8.96,1.463     c-5.752,0.013-11.358-1.813-16-5.211c-7.153-5.144-11.403-13.407-11.429-22.217v-11.703c-5.651-3.219-9.142-9.222-9.143-15.726     v-7.04c-0.015-2.756-1.296-5.352-3.474-7.04c-21.191-17.013-29.329-45.552-20.298-71.182     c9.03-25.631,33.261-42.765,60.436-42.738c2.536,0.018,5.069,0.171,7.589,0.457c28.216,3.612,50.75,25.255,55.497,53.303     C396.106,387.291,387.325,410.238,369.371,424.594z M412.069,334.903l17.097-6.217c3.07-1.127,6.509-0.53,9.02,1.565     c2.511,2.096,3.714,5.372,3.154,8.594c-0.559,3.223-2.795,5.902-5.866,7.029l-17.189,6.217c-0.997,0.359-2.049,0.544-3.109,0.549     c-4.45,0.017-8.265-3.175-9.033-7.558C405.376,340.699,407.878,336.4,412.069,334.903z M440.96,415.451     c-1.313,3.617-4.746,6.028-8.594,6.034c-1.059-0.012-2.109-0.197-3.109-0.549l-17.189-6.309     c-2.279-0.821-4.134-2.522-5.148-4.722s-1.103-4.715-0.246-6.981c1.726-4.738,6.957-7.189,11.703-5.486l17.189,6.309     c2.279,0.821,4.134,2.522,5.148,4.722C441.728,410.67,441.817,413.185,440.96,415.451z M438.857,384h-18.286     c-5.049,0-9.143-4.093-9.143-9.143c0-5.049,4.093-9.143,9.143-9.143h18.286c5.049,0,9.143,4.093,9.143,9.143     C448,379.907,443.907,384,438.857,384z" fill="#3af072"/>
			<path d="M338.286,457.143H320v9.143c0.027,2.988,1.5,5.778,3.952,7.485s5.58,2.121,8.391,1.109     c3.763-1.628,6.128-5.413,5.943-9.509V457.143z" fill="#3af072"/>
		</g>
	</g>
</g>
<g>
</g>
<g>
</g>
<g>
</g>
<g>
</g>
<g>
</g>
<g>
</g>
<g>
</g>
<g>
</g>
<g>
</g>
<g>
</g>
<g>
</g>
<g>
</g>
<g>
</g>
<g>
</g>
<g>
</g>
</svg>
