<?xml version="1.0" encoding="iso-8859-1"?>
<!-- Generator: Adobe Illustrator 19.0.0, SVG Export Plug-In . SVG Version: 6.00 Build 0)  -->
<svg version="1.1" id="Capa_1" xmlns="http://www.w3.org/2000/svg" xmlns:xlink="http://www.w3.org/1999/xlink" x="0px" y="0px"
	 viewBox="0 0 512 512" style="enable-background:new 0 0 512 512;" xml:space="preserve">
<g>
	<path style="fill:#FF8031;" d="M477.24,223.376c-4.268,0-7.727-3.459-7.727-7.727V112.532c0-38.619-31.419-70.038-70.039-70.038
		H112.541c-38.62,0-70.039,31.419-70.039,70.038v91.284c0,4.268-3.46,7.727-7.727,7.727s-7.727-3.459-7.727-7.727v-91.284
		c0-47.141,38.352-85.492,85.493-85.492h286.934c47.141,0,85.493,38.352,85.493,85.492v103.118
		C484.967,219.918,481.508,223.376,477.24,223.376z"/>
	<path style="fill:#FF8031;" d="M399.473,484.96H112.54c-47.141,0-85.493-38.353-85.493-85.493V296.739
		c0-4.268,3.46-7.727,7.727-7.727s7.727,3.459,7.727,7.727v102.728c0,38.62,31.419,70.039,70.039,70.039h286.934
		c38.62,0,70.039-31.419,70.039-70.039v-91.284c0-4.268,3.459-7.727,7.727-7.727s7.727,3.459,7.727,7.727v91.284
		C484.967,446.607,446.614,484.96,399.473,484.96z"/>
</g>
<path style="fill:#FF9052;" d="M255.345,92.891c-38.326,0-69.394,31.068-69.394,69.394v27.461
	c4.638-4.299,11.236-6.636,17.677-5.776v-3.458c0-2.749,2.347-4.92,5.069-4.714c26.83,1.928,54.134-6.598,74.779-20.085
	c1.928-1.26,4.479-0.946,6.045,0.737c17.65,18.972,17.544,18.238,17.544,20.715v6.79c7.06-1.058,13.322,1.124,17.673,5.169v-26.84
	C324.738,123.959,293.671,92.891,255.345,92.891z"/>
<path style="fill:#FF8031;" d="M204.577,162.285c0-35.165,26.162-64.202,60.081-68.754c-3.048-0.409-6.153-0.64-9.312-0.64
	c-38.326,0-69.393,31.068-69.393,69.394v27.461c4.637-4.299,11.236-6.636,17.676-5.776v-3.458c0-1.067,0.357-2.045,0.949-2.833
	V162.285z"/>
<path style="fill:#E4EAF8;" d="M306.146,181.198v38.014c0,0.412-0.022,0.819-0.031,1.229c13.452,2.037,23.988-7.683,23.988-19.62
	C330.103,188.86,319.558,179.188,306.146,181.198z"/>
<path style="fill:#FFBEAB;" d="M204.547,219.212v-38c-11.712-1.564-23.957,7.424-23.957,19.609c0,11.922,10.513,21.659,23.987,19.62
	C204.567,220.031,204.547,219.622,204.547,219.212z"/>
<g>
	<path style="fill:#C2C7D0;" d="M322.975,185.627c-4.299-3.567-10.214-5.42-16.829-4.429v38.014c0,0.412-0.022,0.819-0.031,1.229
		c6.636,1.005,12.559-0.855,16.861-4.427v-30.387H322.975z"/>
	<path style="fill:#C2C7D0;" d="M204.547,216.017c-4.422-3.671-7.127-9.151-7.127-15.196c0-5.882,2.858-11.014,7.127-14.579v-5.03
		c-11.711-1.564-23.957,7.424-23.957,19.609c0,11.922,10.512,21.659,23.987,19.62c-0.01-0.41-0.03-0.819-0.03-1.229V216.017z"/>
</g>
<path style="fill:#E4EAF8;" d="M256.085,269.273c-11.211,0-21.063-3.078-29.122-8.227v27.235l28.997,35.792l28.996-35.792v-28.002
	C276.742,265.944,266.796,269.273,256.085,269.273z"/>
<path style="fill:#C2C7D0;" d="M245.533,268.314c-6.913-1.283-13.149-3.804-18.57-7.267v27.235l18.57,22.922V268.314z"/>
<path style="fill:#FFFFFF;" d="M361.665,316.15l-76.709-29.707l-28.996,35.792l-28.997-35.793l-76.629,29.707
	c0,0-28.372,11.664-28.372,44.007v52.848c0,3.645,2.955,6.6,6.6,6.6h254.932c3.613,0,6.543-2.929,6.543-6.543v-52.906
	C390.037,327.813,361.665,316.15,361.665,316.15z"/>
<path style="fill:#ABFFDB;" d="M140.532,413.006v-61.206c0-22.19,13.354-34.645,21.738-40.278l-11.936,4.628
	c0,0-28.372,11.663-28.372,44.007v52.848c0,3.645,2.955,6.6,6.6,6.6h18.57C143.487,419.606,140.532,416.65,140.532,413.006z"/>
<path style="fill:#FFFFFF;" d="M289.521,154.613c-1.567-1.683-4.119-1.997-6.045-0.737c-20.645,13.487-47.95,22.012-74.779,20.085
	c-2.721-0.206-5.069,1.965-5.069,4.714v41.457c0,26.644,20.877,50.981,52.457,50.981c28.111,0,50.981-22.87,50.981-50.981v-44.803
	C307.065,172.851,307.172,173.585,289.521,154.613z"/>
<path style="fill:#E4EAF8;" d="M222.198,220.131v-46.063c-4.492,0.239-9.003,0.215-13.501-0.107
	c-2.721-0.206-5.069,1.965-5.069,4.714v41.457c0,26.644,20.877,50.98,52.457,50.98c2.914,0,5.766-0.259,8.547-0.73
	C240.578,266.302,222.198,245.328,222.198,220.131z"/>
<g>
	<path style="fill:#ABFFDB;" d="M290.971,340.625l21.684-43.456l-27.698-10.727l-28.996,35.792l28.271,20.077
		C286.518,343.938,289.717,343.137,290.971,340.625z"/>
	<path style="fill:#ABFFDB;" d="M220.988,340.625l-21.684-43.456l27.698-10.727l28.996,35.792l-28.271,20.077
		C225.441,343.938,222.242,343.137,220.988,340.625z"/>
</g>
<polygon style="fill:#6DC296;" points="255.997,322.258 255.997,322.234 255.98,322.246 255.962,322.234 255.962,322.258 
	235.401,336.862 245.12,351.49 255.962,351.49 255.997,351.49 266.84,351.49 276.559,336.862 "/>
<path style="fill:#5FA77E;" d="M266.269,329.554l-10.273-7.295v-0.025l-0.018,0.012l-0.018-0.012v0.025L235.4,336.863l9.719,14.628
	h10.842h0.035h9.702l-7.98-12.011c-0.969-1.459-0.605-3.422,0.823-4.437L266.269,329.554z"/>
<polygon style="fill:#ABFFDB;" points="235.893,419.606 276.066,419.606 266.84,351.49 255.997,351.49 255.962,351.49 
	245.12,351.49 "/>
<polygon style="fill:#92E0C0;" points="255.997,351.49 255.962,351.49 245.12,351.49 235.893,419.606 256.473,419.606 
	265.699,351.49 "/>
<g>
	<path style="fill:#FEA82F;" d="M37.607,268.231c-1.569-1.569-4.113-1.569-5.682,0l-30.74,30.74c-2.53,2.53-0.739,6.857,2.84,6.857
		h61.482c3.579,0,5.372-4.327,2.84-6.857L37.607,268.231z"/>
	<path style="fill:#FEA82F;" d="M507.975,204.835h-61.482c-3.579,0-5.372,4.327-2.84,6.857l30.741,30.741
		c1.569,1.569,4.113,1.569,5.682,0l30.741-30.741C513.345,209.162,511.554,204.835,507.975,204.835z"/>
</g>
<g>
	<path style="fill:#FF9052;" d="M21.789,298.972l23.279-23.279l-7.462-7.462c-1.569-1.569-4.113-1.569-5.681,0L1.185,298.972
		c-2.53,2.53-0.739,6.857,2.84,6.857H24.63C21.051,305.83,19.259,301.503,21.789,298.972z"/>
	<path style="fill:#FF9052;" d="M464.256,211.693c-2.53-2.53-0.739-6.857,2.84-6.857h-20.605c-3.579,0-5.372,4.327-2.84,6.857
		l30.741,30.741c1.569,1.569,4.113,1.569,5.681,0l7.462-7.462L464.256,211.693z"/>
</g>
<path style="fill:#474D54;" d="M390.044,381.577c-4.268,0-7.727,3.459-7.727,7.727v22.078h-32.833v-40.107
	c0-4.268-3.459-7.727-7.727-7.727s-7.727,3.459-7.727,7.727v40.107h-52.087l-7.082-57.993l3.727-5.611l1.172,0.832
	c2.103,1.494,4.592,2.274,7.118,2.274c0.998,0,2.001-0.122,2.989-0.368c3.49-0.874,6.414-3.221,8.02-6.44
	c0.001,0,0.001-0.001,0.001-0.001l18.541-37.16l42.327,16.392c1.492,0.65,20.237,9.229,23.156,30.966
	c0.569,4.23,4.46,7.194,8.687,6.631c4.229-0.569,7.197-4.457,6.631-8.687c-4.185-31.16-31.458-42.734-32.617-43.211
	c-0.05-0.022-0.102-0.041-0.151-0.062l-71.773-27.796v-15.146c11.236-8.983,19.113-22,21.415-36.836
	c5.605-0.65,10.797-2.892,15.1-6.593c6.069-5.219,9.55-12.813,9.55-20.834c0-6.449-2.249-12.62-6.283-17.503v-21.952
	c0-35.871-24.352-66.717-59.219-75.011c-4.153-0.985-8.317,1.578-9.305,5.73c-0.987,4.151,1.577,8.317,5.73,9.305
	c27.874,6.631,47.341,31.293,47.341,59.976v12.523c-0.736-0.163-1.48-0.297-2.233-0.402c-0.02-0.561-0.062-1.077-0.142-1.57
	c0-0.002-0.001-0.003-0.001-0.005c-0.004-0.025-0.008-0.049-0.012-0.074c-0.001-0.008-0.003-0.015-0.004-0.024
	c-0.004-0.023-0.008-0.044-0.012-0.067c-0.001-0.006-0.002-0.012-0.003-0.019c-0.004-0.021-0.007-0.041-0.011-0.062
	c-0.002-0.013-0.005-0.027-0.007-0.039c-0.003-0.016-0.007-0.034-0.01-0.05l-0.006-0.032c-0.004-0.02-0.008-0.04-0.012-0.06
	c-0.002-0.01-0.004-0.02-0.006-0.029c-0.004-0.019-0.008-0.037-0.012-0.056c-0.003-0.012-0.006-0.026-0.009-0.038
	c-0.004-0.018-0.008-0.034-0.012-0.052c-0.003-0.014-0.007-0.028-0.01-0.042c-0.003-0.014-0.007-0.028-0.01-0.042
	c-0.005-0.022-0.011-0.044-0.016-0.066c-0.002-0.007-0.004-0.014-0.006-0.023c-0.007-0.027-0.014-0.053-0.022-0.079
	c-0.001-0.003-0.002-0.006-0.003-0.01c-0.025-0.09-0.051-0.179-0.079-0.269c-0.001-0.004-0.002-0.008-0.003-0.011
	c-0.046-0.148-0.098-0.296-0.155-0.444c0-0.001,0-0.001-0.001-0.002c-0.011-0.03-0.023-0.06-0.035-0.09l0,0
	c-0.011-0.03-0.024-0.06-0.036-0.09c0-0.001-0.001-0.002-0.001-0.003c-0.634-1.553-1.853-3.203-4.157-5.8
	c-0.001-0.002-0.003-0.003-0.004-0.005c-0.359-0.404-0.743-0.83-1.156-1.284c-0.01-0.011-0.021-0.023-0.031-0.033
	c-0.042-0.046-0.085-0.092-0.127-0.139c-0.012-0.013-0.025-0.027-0.037-0.04c-0.033-0.036-0.067-0.073-0.1-0.109
	c-0.021-0.022-0.04-0.044-0.061-0.066c-0.042-0.046-0.084-0.092-0.127-0.138c-0.005-0.006-0.011-0.012-0.016-0.019
	c-0.053-0.058-0.105-0.114-0.159-0.173l0,0c-0.045-0.049-0.092-0.1-0.138-0.15c-0.014-0.015-0.028-0.03-0.042-0.045
	c-0.087-0.094-0.175-0.19-0.264-0.285c-0.086-0.093-0.173-0.186-0.261-0.282c-0.021-0.023-0.042-0.045-0.064-0.068
	c-0.062-0.067-0.124-0.134-0.186-0.201c-0.093-0.1-0.186-0.2-0.281-0.302c-0.096-0.103-0.193-0.207-0.291-0.312
	c-0.083-0.089-0.167-0.178-0.251-0.269c-0.025-0.027-0.05-0.055-0.076-0.081c-0.047-0.05-0.095-0.102-0.143-0.154
	c-0.082-0.088-0.165-0.176-0.248-0.266c-0.125-0.133-0.25-0.268-0.378-0.404c-0.005-0.005-0.009-0.01-0.014-0.015
	c-0.03-0.032-0.06-0.064-0.091-0.097c-0.13-0.139-0.262-0.279-0.396-0.422c-0.001-0.001-0.003-0.003-0.004-0.004
	c-0.059-0.063-0.117-0.126-0.177-0.189c-0.35-0.374-0.713-0.759-1.088-1.159c-0.491-0.524-1.011-1.078-1.559-1.663
	c-0.273-0.291-0.552-0.589-0.84-0.896c-0.086-0.091-0.171-0.182-0.258-0.275c-0.118-0.127-0.238-0.254-0.36-0.384
	c-0.102-0.109-0.204-0.218-0.308-0.329c-0.151-0.162-0.304-0.326-0.46-0.491c-1.435-1.534-3.032-3.244-4.81-5.155
	c-4.143-4.453-10.841-5.271-15.931-1.945c-20.925,13.671-46.442,20.542-69.97,18.849c-3.44-0.258-6.857,0.936-9.39,3.284
	c-0.015,0.014-0.03,0.029-0.045,0.043c-0.048,0.045-0.097,0.092-0.145,0.138c-0.024,0.023-0.047,0.045-0.071,0.069
	c-0.058,0.057-0.114,0.113-0.171,0.171c-0.024,0.024-0.046,0.047-0.069,0.071c-0.053,0.055-0.105,0.109-0.157,0.165
	c-0.022,0.024-0.043,0.047-0.065,0.071c-0.046,0.05-0.092,0.102-0.137,0.152c-0.021,0.023-0.04,0.045-0.061,0.069
	c-0.054,0.061-0.105,0.123-0.158,0.184c-0.021,0.025-0.042,0.05-0.063,0.075c-0.053,0.064-0.104,0.128-0.156,0.192
	c-0.016,0.022-0.033,0.043-0.049,0.064c-0.041,0.054-0.082,0.107-0.124,0.161c-0.018,0.023-0.035,0.045-0.052,0.068
	c-0.048,0.065-0.097,0.131-0.143,0.198c-0.02,0.027-0.039,0.055-0.058,0.081c-0.046,0.066-0.092,0.132-0.136,0.198
	c-0.018,0.026-0.034,0.05-0.05,0.076c-0.036,0.054-0.071,0.108-0.106,0.163c-0.018,0.028-0.036,0.056-0.054,0.083
	c-0.04,0.064-0.08,0.129-0.12,0.194c-0.018,0.029-0.035,0.058-0.052,0.087c-0.04,0.068-0.079,0.136-0.118,0.204
	c-0.016,0.03-0.033,0.059-0.049,0.089c-0.031,0.056-0.061,0.111-0.091,0.167c-0.02,0.037-0.04,0.075-0.06,0.112
	c-0.03,0.057-0.059,0.113-0.088,0.171c-0.016,0.033-0.034,0.066-0.05,0.1c-0.034,0.068-0.067,0.137-0.099,0.206
	c-0.015,0.033-0.031,0.065-0.045,0.098c-0.026,0.055-0.05,0.11-0.075,0.166c-0.021,0.045-0.04,0.092-0.06,0.138
	c-0.022,0.05-0.043,0.102-0.065,0.154c-0.014,0.036-0.03,0.072-0.044,0.107c-0.028,0.068-0.055,0.137-0.08,0.206
	c-0.014,0.038-0.029,0.076-0.043,0.114c-0.02,0.054-0.039,0.108-0.059,0.162c-0.006,0.019-0.013,0.037-0.02,0.055
	c-0.983,0.15-1.958,0.351-2.925,0.6v-12.879c0-27.026,18.068-51.318,43.94-59.069c4.088-1.225,6.408-5.531,5.184-9.619
	c-1.225-4.088-5.533-6.408-9.619-5.184c-15.562,4.663-29.554,14.402-39.396,27.419c-10.181,13.466-15.562,29.53-15.562,46.454v22.53
	c-4.077,4.824-6.28,10.701-6.28,16.925c0,8.021,3.48,15.616,9.55,20.837c4.312,3.708,9.515,5.95,15.135,6.594
	c2.328,14.475,10.178,28.384,22.607,37.782v14.198l-71.695,27.795c-0.048,0.02-0.097,0.038-0.145,0.059
	c-1.354,0.556-33.162,14.059-33.162,51.153v52.351c0,7.9,6.427,14.327,14.327,14.327H383.5c7.869,0,14.27-6.401,14.27-14.27v-23.262
	C397.771,385.035,394.312,381.577,390.044,381.577z M262.703,343.764h-13.434l-3.28-4.937l9.999-7.1l9.997,7.099L262.703,343.764z
	 M226.264,333.879l-16.25-32.569l14.506-5.617l20.274,25.026L226.264,333.879c-0.011,0.008,0,0-0.011,0.008L226.264,333.879z
	 M285.708,333.879L285.708,333.879l-18.556-13.179l20.27-25.02l14.536,5.629L285.708,333.879z M319.13,210.857
	c-1.269,1.093-2.733,1.901-4.33,2.41v-23.049c0.796,0.253,1.561,0.582,2.283,0.982c0.006,0.003,0.012,0.006,0.019,0.01
	c0.068,0.038,0.135,0.076,0.202,0.115c0.779,0.454,1.509,0.995,2.182,1.621c0.04,0.038,0.081,0.075,0.123,0.111
	c2.356,2.254,3.694,5.384,3.694,8.684C323.302,205.254,321.78,208.577,319.13,210.857z M187.404,201.74
	c0-3.817,2.1-6.536,3.633-8.011c0.059-0.05,0.116-0.103,0.173-0.156c1.364-1.263,2.978-2.251,4.697-2.915v22.608
	c-1.597-0.508-3.062-1.316-4.33-2.408C188.925,208.579,187.404,205.255,187.404,201.74z M211.388,221.594
	c0.004-0.137,0.005-0.275,0.002-0.413l-0.014-0.491c-0.005-0.186-0.013-0.372-0.013-0.558v-38.28
	c0.062,0.003,0.124,0.005,0.184,0.007c16.412,0.686,33.493-2.182,49.584-8.15c8.316-3.085,16.366-6.996,23.922-11.675
	c0.175-0.108,0.35-0.217,0.524-0.327c2.764,2.964,5.045,5.397,6.933,7.407c3.173,3.382,5.653,6.028,6.837,7.404v43.612
	c0,0.171-0.007,0.341-0.013,0.511l-0.016,0.549c-0.003,0.145-0.002,0.29,0.003,0.434c-0.478,14.015-7.657,26.36-18.426,33.924
	c-0.107,0.066-0.213,0.135-0.317,0.207c-5.313,3.665-11.29,6.061-17.57,7.075l0,0c-0.377,0.061-0.755,0.116-1.134,0.167
	c-0.037,0.005-0.074,0.01-0.111,0.015c-0.107,0.014-0.213,0.028-0.32,0.041c-0.047,0.006-0.095,0.011-0.142,0.017
	c-0.205,0.025-0.41,0.048-0.616,0.07c-0.033,0.003-0.066,0.007-0.099,0.01c-0.087,0.009-0.172,0.018-0.259,0.026
	c-0.078,0.007-0.157,0.015-0.235,0.023c-0.078,0.007-0.157,0.014-0.236,0.022c-0.094,0.008-0.189,0.015-0.282,0.024
	c-0.066,0.005-0.133,0.011-0.199,0.015c-0.148,0.011-0.297,0.022-0.445,0.031c-0.065,0.004-0.13,0.008-0.195,0.012
	c-0.105,0.006-0.211,0.012-0.317,0.019c-0.06,0.003-0.121,0.006-0.18,0.009c-0.124,0.006-0.246,0.011-0.37,0.016
	c-0.042,0.002-0.085,0.004-0.128,0.005c-0.16,0.006-0.319,0.01-0.479,0.015c-0.05,0.001-0.102,0.002-0.152,0.003
	c-0.12,0.003-0.239,0.005-0.359,0.007c-0.054,0.001-0.108,0.002-0.162,0.002c-0.165,0.002-0.33,0.003-0.495,0.003
	C228.734,263.384,212.134,242.388,211.388,221.594z M256.73,278.834c0.023,0,0.045,0,0.069,0c0.202-0.002,0.404-0.006,0.606-0.01
	c0.033-0.001,0.066-0.001,0.099-0.002c0.199-0.005,0.398-0.01,0.597-0.018c0.03-0.001,0.061-0.002,0.091-0.003
	c0.203-0.007,0.405-0.015,0.607-0.025c0.024-0.001,0.046-0.002,0.07-0.003c0.437-0.021,0.872-0.045,1.305-0.075
	c0.004,0,0.008-0.001,0.012-0.001c0.215-0.014,0.431-0.031,0.645-0.048c0.016-0.001,0.032-0.002,0.048-0.004
	c0.212-0.018,0.424-0.036,0.636-0.056c0.013-0.001,0.028-0.003,0.041-0.004c0.215-0.02,0.431-0.041,0.646-0.064
	c0.007-0.001,0.014-0.001,0.022-0.002c1.123-0.117,2.236-0.266,3.339-0.445h0.001c4.044-0.658,7.949-1.732,11.674-3.174v8.804
	l-21.25,26.23l-21.29-26.28v-7.18c7.205,1.997,14.634,2.362,21.395,2.362C256.304,278.838,256.517,278.837,256.73,278.834z
	 M129.695,360.157c0-26.25,22.122-36.231,23.541-36.843l42.303-16.4l18.541,37.161v0.001c1.607,3.22,4.531,5.566,8.023,6.44
	c0.988,0.246,1.991,0.368,2.989,0.368c2.527,0,5.015-0.78,7.118-2.273l1.172-0.832l3.726,5.609l-7.081,57.994h-52.045v-40.107
	c0-4.268-3.46-7.727-7.727-7.727c-4.267,0-7.727,3.459-7.727,7.727v40.107h-32.835v-51.224H129.695z M245.598,411.382l6.369-52.164
	h8.04l6.37,52.164H245.598z"/>
<g>
</g>
<g>
</g>
<g>
</g>
<g>
</g>
<g>
</g>
<g>
</g>
<g>
</g>
<g>
</g>
<g>
</g>
<g>
</g>
<g>
</g>
<g>
</g>
<g>
</g>
<g>
</g>
<g>
</g>
</svg>
