<svg height="512pt" viewBox="-26 0 512 512.003" width="512pt" xmlns="http://www.w3.org/2000/svg"><path d="m329.023438 407.082031c-6.59375-23.527343-17.265626-50.300781-31.34375-73.1875-2.21875-3.609375.378906-8.242187 4.613281-8.242187h20.105469c3.96875 0 6.59375-4.113282 4.914062-7.707032-7.0625-15.113281-23.765625-49.511718-41.523438-76.464843-2.378906-3.609375.195313-8.40625 4.515626-8.40625h17.65625c4.121093 0 6.742187-4.410157 4.757812-8.023438-9.902344-18.019531-36.535156-63.464843-74.902344-105.90625-2.085937-2.308593-5.070312-3.609375-8.179687-3.609375-3.132813 0-6.136719 1.308594-8.234375 3.632813-38.359375 42.433593-64.984375 87.867187-74.882813 105.886719-1.984375 3.609374.636719 8.019531 4.757813 8.019531h17.652344c4.324218 0 6.898437 4.796875 4.519531 8.40625-17.757813 26.957031-34.464844 61.355469-41.527344 76.464843-1.675781 3.59375.949219 7.707032 4.914063 7.707032h20.109374c4.234376 0 6.832032 4.636718 4.613282 8.242187-14.078125 22.886719-24.75 49.664063-31.34375 73.1875-.964844 3.445313 1.648437 6.851563 5.226562 6.851563h188.351563c3.582031 0 6.199219-3.410156 5.230469-6.851563zm0 0" fill="#92e0c0"/><path d="m150.21875 407.082031c6.59375-23.527343 17.265625-50.300781 31.34375-73.1875 2.21875-3.609375-.378906-8.242187-4.613281-8.242187h-20c4.234375 0 6.832031 4.632812 4.613281 8.242187-14.078125 22.886719-24.75 49.660157-31.347656 73.1875-.964844 3.445313 1.652344 6.851563 5.230468 6.851563h20c-3.578124 0-6.191406-3.410156-5.226562-6.851563zm0 0" fill="#6dc296"/><path d="m136.839844 325.652344h20c-3.964844 0-6.59375-4.113282-4.914063-7.707032 7.0625-15.113281 23.765625-49.511718 41.523438-76.464843 2.378906-3.609375-.191407-8.410157-4.515625-8.410157h-17.65625c-4.117188 0-6.738282-4.410156-4.753906-8.019531 9.742187-17.734375 35.699218-62.03125 73.097656-103.890625-.601563-.671875-1.199219-1.347656-1.804688-2.019531-2.085937-2.308594-5.070312-3.605469-8.179687-3.605469-3.132813 0-6.136719 1.308594-8.234375 3.632813-38.359375 42.433593-64.984375 87.867187-74.882813 105.882812-1.984375 3.609375.636719 8.019531 4.757813 8.019531h17.652344c4.324218 0 6.898437 4.800782 4.519531 8.410157-17.757813 26.953125-34.460938 61.351562-41.523438 76.464843-1.679687 3.59375.949219 7.707032 4.914063 7.707032zm0 0" fill="#6dc296"/><path d="m128.265625 87.269531c0 22.640625-18.351563 40.992188-40.992187 40.992188-22.636719 0-40.988282-18.351563-40.988282-40.992188 0-22.636719 18.351563-40.988281 40.988282-40.988281 22.640624 0 40.992187 18.351562 40.992187 40.988281zm0 0" fill="#f1c850"/><path d="m66.285156 87.269531c0-19.1875 13.1875-35.289062 30.988282-39.753906-3.199219-.804687-6.546876-1.234375-10-1.234375-22.636719 0-40.988282 18.351562-40.988282 40.988281 0 22.640625 18.351563 40.992188 40.988282 40.992188 3.453124 0 6.800781-.433594 10-1.234375-17.800782-4.464844-30.988282-20.570313-30.988282-39.757813zm0 0" fill="#eaa82f"/><path d="m383.441406 408.8125c-4.929687-17.582031-12.90625-37.589844-23.425781-54.695312-1.65625-2.695313.285156-6.160157 3.449219-6.160157h15.027344c2.964843 0 4.925781-3.074219 3.671874-5.757812-5.277343-11.292969-17.761718-37-31.03125-57.144531-1.777343-2.699219.144532-6.285157 3.375-6.285157h13.195313c3.078125 0 5.035156-3.292969 3.550781-5.992187-7.398437-13.46875-27.300781-47.433594-55.976562-79.152344-1.558594-1.722656-3.785156-2.695312-6.109375-2.695312-2.34375 0-4.585938.980468-6.15625 2.714843-1.78125 1.972657-3.527344 3.949219-5.242188 5.933594 6.660157 10.714844 11.707031 19.570313 14.949219 25.472656 1.984375 3.613281-.636719 8.023438-4.753906 8.023438h-17.65625c-4.324219 0-6.894532 4.796875-4.519532 8.40625 17.761719 26.953125 34.464844 61.351562 41.527344 76.464843 1.679688 3.59375-.949218 7.707032-4.914062 7.707032h-20.109375c-4.234375 0-6.832031 4.632812-4.613281 8.242187 14.078124 22.886719 24.753906 49.660157 31.347656 73.1875.964844 3.441407-1.652344 6.851563-5.230469 6.851563h55.738281c2.671875 0 4.628906-2.546875 3.90625-5.121094zm0 0" fill="#92e0c0"/><path d="m323.796875 413.933594h24.859375c.871094-3.984375.773438-8.167969-.371094-12.25-5.46875-19.503906-12.890625-38.875-21.535156-56.398438 16.285156-2.792968 25.863281-20.453125 18.6875-35.808594-6.226562-13.316406-17.125-35.699218-29.792969-57.601562 5.875-1.875 10.992188-5.855469 14.203125-11.28125 4.550782-7.695312 4.703125-17.339844.402344-25.171875-1.921875-3.492187-4.488281-8.050781-7.652344-13.433594-2.371094-2.792969-4.808594-5.585937-7.320312-8.363281-1.558594-1.722656-3.789063-2.695312-6.109375-2.695312-2.34375 0-4.585938.980468-6.15625 2.714843-1.78125 1.96875-3.527344 3.949219-5.242188 5.933594 6.660157 10.714844 11.707031 19.574219 14.949219 25.472656 1.984375 3.613281-.636719 8.023438-4.753906 8.023438h-17.65625c-4.324219 0-6.898438 4.796875-4.519532 8.40625 17.757813 26.953125 34.464844 61.351562 41.527344 76.464843 1.679688 3.59375-.949218 7.707032-4.914062 7.707032h-20.109375c-4.234375 0-6.832031 4.632812-4.613281 8.242187 14.078124 22.886719 24.75 49.660157 31.34375 73.1875.96875 3.441407-1.648438 6.851563-5.226563 6.851563zm0 0" fill="#6dc296"/><path d="m130.214844 407.082031c6.597656-23.527343 17.269531-50.300781 31.347656-73.1875 2.21875-3.609375-.378906-8.242187-4.613281-8.242187h-20.109375c-3.964844 0-6.59375-4.113282-4.914063-7.707032 7.0625-15.113281 23.765625-49.511718 41.527344-76.464843 2.375-3.609375-.195313-8.40625-4.519531-8.40625h-17.65625c-4.117188 0-6.738282-4.410157-4.753906-8.023438 3.242187-5.902343 8.289062-14.757812 14.949218-25.472656-1.71875-1.988281-3.472656-3.976563-5.257812-5.953125-1.558594-1.722656-3.789063-2.695312-6.113282-2.695312-2.339843 0-4.585937.980468-6.152343 2.714843-28.667969 31.714844-48.5625 65.667969-55.960938 79.132813-1.484375 2.699218.476563 5.992187 3.554688 5.992187h13.195312c3.230469 0 5.152344 3.585938 3.375 6.285157-13.273437 20.144531-25.757812 45.851562-31.035156 57.144531-1.253906 2.683593.707031 5.757812 3.671875 5.757812h15.027344c3.164062 0 5.105468 3.464844 3.449218 6.160157-10.519531 17.105468-18.5 37.113281-23.425781 54.695312-.722656 2.574219 1.234375 5.121094 3.90625 5.121094h55.738281c-3.578124 0-6.195312-3.410156-5.230468-6.851563zm0 0" fill="#92e0c0"/><path d="m95.925781 408.8125c4.925781-17.582031 12.902344-37.589844 23.425781-54.695312 1.65625-2.695313-.285156-6.160157-3.449218-6.160157h-15.027344c-2.964844 0-4.925781-3.074219-3.671875-5.757812 5.277344-11.292969 17.761719-37 31.03125-57.144531 1.777344-2.699219-.144531-6.285157-3.375-6.285157h-13.195313c-3.078124 0-5.035156-3.292969-3.554687-5.992187 7.054687-12.839844 25.480469-44.308594 52.03125-74.703125-1.296875-1.484375-2.59375-2.96875-3.929687-4.449219-1.558594-1.722656-3.785157-2.695312-6.113282-2.695312-2.339844 0-4.582031.980468-6.152344 2.714843-28.664062 31.714844-48.5625 65.667969-55.960937 79.132813-1.480469 2.699218.476563 5.992187 3.554687 5.992187h13.195313c3.230469 0 5.152344 3.585938 3.375 6.285157-13.273437 20.144531-25.757813 45.851562-31.035156 57.144531-1.253907 2.683593.710937 5.757812 3.675781 5.757812h15.027344c3.164062 0 5.105468 3.464844 3.445312 6.160157-10.519531 17.105468-18.496094 37.113281-23.421875 54.695312-.722656 2.574219 1.230469 5.121094 3.90625 5.121094h20.125c-2.671875 0-4.628906-2.546875-3.90625-5.121094zm0 0" fill="#6dc296"/><path d="m451.609375 409.597656c-4.175781-14.894531-10.933594-31.839844-19.84375-46.328125-1.402344-2.285156.242187-5.21875 2.921875-5.21875h12.726562c2.511719 0 4.175782-2.601562 3.113282-4.878906-4.472656-9.5625-15.042969-31.339844-26.285156-48.402344-1.503907-2.28125.121093-5.320312 2.859374-5.320312h11.175782c2.605468 0 4.265625-2.792969 3.007812-5.074219-6.265625-11.40625-23.125-40.175781-47.410156-67.039062-1.320312-1.460938-3.207031-2.285157-5.175781-2.285157-1.984375 0-3.882813.828125-5.214844 2.300781-8.433594 9.328126-15.96875 18.886719-22.480469 27.871094 4.523438 7.34375 7.980469 13.417969 10.25 17.550782 1.484375 2.699218-.472656 5.996093-3.550781 5.996093h-13.195313c-3.230468 0-5.152343 3.585938-3.375 6.28125 13.269532 20.144531 25.753907 45.851563 31.03125 57.144531 1.253907 2.6875-.707031 5.761719-3.671874 5.761719h-15.027344c-3.164063 0-5.105469 3.464844-3.449219 6.160157 10.519531 17.101562 18.496094 37.113281 23.425781 54.695312.722656 2.570312-1.234375 5.117188-3.90625 5.117188h68.761719c2.265625.003906 3.921875-2.152344 3.3125-4.332032zm0 0" fill="#92e0c0"/><path d="m379.535156 413.933594h23.691406c.59375-3.472656.441407-7.070313-.527343-10.519532-3.625-12.941406-8.386719-25.8125-13.910157-37.75 11.675782-5.515624 17.226563-19.664062 11.496094-31.933593-4.242187-9.070313-11.359375-23.726563-19.757812-38.679688 3.1875-2.007812 5.914062-4.761719 7.878906-8.085937 4.308594-7.28125 4.449219-16.410156.378906-23.816406-2.964844-5.402344-7.976562-14.15625-14.765625-24.800782-4.699219 5.71875-9.050781 11.40625-13.015625 16.875 4.523438 7.34375 7.980469 13.417969 10.25 17.554688 1.484375 2.699218-.472656 5.996094-3.550781 5.996094h-13.195313c-3.230468 0-5.15625 3.582031-3.375 6.28125 13.269532 20.144531 25.753907 45.851562 31.03125 57.144531 1.253907 2.6875-.707031 5.761719-3.671874 5.761719h-15.027344c-3.164063 0-5.105469 3.460937-3.449219 6.15625 10.523437 17.105468 18.5 37.117187 23.425781 54.695312.722656 2.574219-1.234375 5.117188-3.90625 5.121094zm0 0" fill="#6dc296"/><path d="m75.800781 408.8125c4.925781-17.582031 12.902344-37.589844 23.421875-54.695312 1.660156-2.695313-.28125-6.160157-3.445312-6.160157h-15.027344c-2.964844 0-4.929688-3.074219-3.671875-5.757812 5.277344-11.292969 17.761719-37 31.03125-57.144531 1.777344-2.699219-.144531-6.285157-3.375-6.285157h-13.195313c-3.078124 0-5.035156-3.292969-3.554687-5.992187 2.273437-4.136719 5.730469-10.210938 10.25-17.554688-6.511719-8.988281-14.050781-18.550781-22.492187-27.886718-1.320313-1.460938-3.207032-2.285157-5.175782-2.285157-1.984375 0-3.882812.828125-5.214844 2.300781-24.277343 26.859376-41.132812 55.617188-47.398437 67.023438-1.253906 2.285156.402344 5.074219 3.011719 5.074219h11.175781c2.734375 0 4.363281 3.039062 2.859375 5.324219-11.242188 17.0625-21.816406 38.835937-26.285156 48.402343-1.0625 2.273438.601562 4.875 3.109375 4.875h12.730469c2.679687 0 4.324218 2.9375 2.921874 5.21875-8.914062 14.488281-15.667968 31.433594-19.84375 46.328125-.609374 2.179688 1.046876 4.335938 3.308594 4.335938h68.765625c-2.675781-.003906-4.628906-2.546875-3.90625-5.121094zm0 0" fill="#92e0c0"/><path d="m28.132812 409.597656c4.175782-14.894531 10.933594-31.839844 19.84375-46.328125 1.402344-2.28125-.242187-5.21875-2.921874-5.21875h-12.726563c-2.511719 0-4.175781-2.601562-3.113281-4.875 4.472656-9.566406 15.042968-31.339843 26.285156-48.402343 1.503906-2.285157-.121094-5.324219-2.859375-5.324219h-11.175781c-2.605469 0-4.265625-2.789063-3.007813-5.074219 5.820313-10.597656 20.78125-36.167969 42.34375-61.285156-1.648437-1.921875-3.332031-3.84375-5.058593-5.757813-1.320313-1.460937-3.207032-2.28125-5.175782-2.28125-1.984375 0-3.882812.828125-5.214844 2.296875-24.277343 26.863282-41.132812 55.621094-47.398437 67.023438-1.253906 2.285156.402344 5.078125 3.011719 5.078125h11.175781c2.734375 0 4.363281 3.039062 2.859375 5.320312-11.242188 17.0625-21.816406 38.839844-26.285156 48.402344-1.0625 2.277344.601562 4.878906 3.109375 4.878906h12.730469c2.679687 0 4.324218 2.933594 2.921874 5.21875-8.914062 14.488281-15.667968 31.433594-19.84375 46.324219-.609374 2.179688 1.046876 4.335938 3.308594 4.335938h20.503906c-2.265624.003906-3.921874-2.152344-3.3125-4.332032zm0 0" fill="#6dc296"/><path d="m214.054688 413.933594h32.175781v90.566406h-32.175781zm0 0" fill="#eaa82f"/><path d="m214.054688 413.933594h20.003906v90.566406h-20.003906zm0 0" fill="#e69052"/><path d="m53.898438 413.933594h32.171874v90.566406h-32.171874zm0 0" fill="#eaa82f"/><path d="m53.898438 413.933594h20v90.566406h-20zm0 0" fill="#e69052"/><path d="m133.976562 413.933594h32.175782v90.566406h-32.175782zm0 0" fill="#eaa82f"/><path d="m133.976562 413.933594h20.003907v90.566406h-20.003907zm0 0" fill="#e69052"/><path d="m384.421875 465.808594c.914063 1.621094 2.792969 2.4375 4.566406 1.867187 2.089844-.671875 4.339844-.988281 6.679688-.875 4.023437.195313 7.730469 1.691407 10.722656 4.066407v-56.933594h-32.175781v42.300781c4.304687 2.074219 7.875 5.425781 10.207031 9.574219zm0 0" fill="#eaa82f"/><path d="m394.21875 413.933594h-20.003906v42.300781c4.304687 2.074219 7.875 5.425781 10.207031 9.574219.914063 1.621094 2.792969 2.4375 4.566406 1.867187 1.652344-.53125 3.410157-.832031 5.230469-.878906zm0 0" fill="#e69052"/><path d="m299.332031 468.90625c6.101563 0 11.410157 3.339844 14.226563 8.289062.664062 1.164063 2.035156 1.769532 3.3125 1.363282 2.515625-.792969 5.328125-.847656 8.039062.027344.460938.148437.9375.175781 1.398438.097656v-64.75h-32.171875v55.832031c1.632812-.546875 3.378906-.859375 5.195312-.859375zm0 0" fill="#eaa82f"/><path d="m313.558594 477.195312c.21875.386719.523437.703126.871094.949219v-64.210937h-20.292969v55.832031c1.632812-.546875 3.375-.855469 5.195312-.855469 6.101563-.003906 11.410157 3.335938 14.226563 8.285156zm0 0" fill="#e69052"/><path d="m431.292969 113.800781c-.671875-9.9375-8.730469-17.984375-18.664063-18.652343-1.738281-.117188-3.429687-.007813-5.054687.292968l.003906-.003906s-2.203125.371094-2.351563-1.519531c-1.449218-16.523438-13.957031-25.84375-27.003906-25.84375-12.164062 0-22.445312 8.039062-25.835937 19.097656-.316407 1.035156-1.347657 1.660156-2.410157 1.445313-5.84375-1.195313-11.941406.898437-15.808593 5.636718-.496094.605469-1.273438.890625-2.042969.742188-4.113281-.789063-8.109375-.277344-11.628906 1.199218 3.992187 3.914063 7.027344 8.808594 8.707031 14.292969.398437 1.300781 1.695313 2.089844 3.03125 1.816407 7.351563-1.503907 15.023437 1.132812 19.894531 7.09375.621094.761718 1.601563 1.121093 2.566406.9375 12.285157-2.355469 23.722657 4.46875 28.304688 14.957031h28.246094c11.5625 0 20.84375-9.761719 20.046875-21.492188zm0 0" fill="#fff"/><path d="m387.390625 109.414062c-7.785156-6.027343-17.242187-9.320312-26.925781-9.523437-5.199219-3.886719-11.230469-6.4375-17.585938-7.480469-.625-1.035156-1.285156-2.046875-1.976562-3.035156-2.566406.988281-4.902344 2.632812-6.738282 4.878906-.492187.605469-1.269531.890625-2.039062.742188-4.113281-.789063-8.109375-.277344-11.628906 1.199218 3.988281 3.914063 7.023437 8.808594 8.707031 14.292969.398437 1.300781 1.695313 2.089844 3.03125 1.816407 7.351563-1.503907 15.023437 1.132812 19.890625 7.09375.625.761718 1.601562 1.121093 2.570312.9375 12.285157-2.355469 23.71875 4.46875 28.300782 14.957031h20.976562c-2.335937-10.175781-8.15625-19.355469-16.582031-25.878907zm0 0" fill="#e4eaf8"/><path d="m278.9375 171.039062h80.597656c14.6875 0 26.480469-12.375 25.527344-27.265624-.957031-14.980469-15.003906-26.382813-30.367188-23.4375-.964843.183593-1.945312-.175782-2.566406-.9375-4.871094-5.960938-12.542968-8.597657-19.894531-7.09375-1.335937.273437-2.632813-.515626-3.03125-1.816407-4.265625-13.910156-17.203125-24.027343-32.511719-24.027343-16.414062 0-32.152344 11.726562-33.976562 32.519531-.1875 2.375-2.957032 1.910156-2.957032 1.910156l.003907.007813c-2.046875-.378907-4.175781-.515626-6.359375-.371094-4.066406.273437-7.875 1.542968-11.203125 3.542968 14 15.929688 26.332031 32.113282 36.738281 46.96875zm0 0" fill="#fff"/><path d="m262.714844 118.976562c-.1875 2.378907-2.960938 1.914063-2.960938 1.914063l.003906.007813c-2.042968-.378907-4.171874-.515626-6.355468-.371094-4.066406.273437-7.875 1.542968-11.203125 3.542968 14 15.929688 26.332031 32.113282 36.738281 46.96875h24.21875c-10.933594-16.359374-24.488281-35.015624-40.269531-53.617187-.066407.515625-.128907 1.03125-.171875 1.554687zm0 0" fill="#e4eaf8"/><path d="m419.523438 479.765625c-1.261719-.011719-2.476563.164063-3.621094.5-1.507813.445313-3.136719-.324219-3.734375-1.773437-2.726563-6.578126-9.089844-11.332032-16.5-11.691407-2.339844-.113281-4.589844.203125-6.683594.875-1.769531.570313-3.648437-.246093-4.5625-1.867187-3.988281-7.082032-11.558594-11.871094-20.265625-11.871094-11.796875 0-21.523438 8.78125-23.046875 20.164062-.164063 1.238282-1.371094 2.023438-2.597656 1.777344-3.722657-.738281-7.714844.019532-11.015625 2.328125-.757813.53125-1.707032.664063-2.589844.378907-2.695312-.871094-5.511719-.824219-8.035156-.023438-1.28125.402344-2.652344-.203125-3.3125-1.367188-2.820313-4.945312-8.125-8.285156-14.226563-8.285156-7.988281 0-14.628906 5.71875-16.074219 13.285156-.25 1.3125-1.449218 2.1875-2.777343 2.03125-6.015625-.695312-11.230469 4.128907-11.3125 9.957032-.082031 5.683594 4.5 10.316406 10.167969 10.316406h140.035156c7 0 12.640625-5.8125 12.355468-12.875-.257812-6.492188-5.707031-11.777344-12.203124-11.859375zm0 0" fill="#6dc296"/><path d="m289.167969 494.183594c.082031-5.828125 5.300781-10.652344 11.316406-9.957032 1.328125.15625 2.523437-.71875 2.777344-2.03125.761719-3.996093 2.984375-7.464843 6.078125-9.863281-2.765625-2.144531-6.234375-3.425781-10.007813-3.425781-7.988281 0-14.625 5.722656-16.074219 13.289062-.25 1.3125-1.449218 2.183594-2.777343 2.03125-6.015625-.695312-11.230469 4.128907-11.3125 9.957032-.082031 5.683594 4.503906 10.316406 10.167969 10.316406h20c-5.664063 0-10.246094-4.632812-10.167969-10.316406zm0 0" fill="#5fa77e"/><g fill="#e69052"><path d="m87.277344 30.648438c-4.140625 0-7.5-3.359376-7.5-7.5v-15.648438c0-4.140625 3.359375-7.5 7.5-7.5s7.5 3.359375 7.5 7.5v15.648438c0 4.140624-3.355469 7.5-7.5 7.5zm0 0"/><path d="m87.277344 174.539062c-4.140625 0-7.5-3.359374-7.5-7.5v-15.648437c0-4.140625 3.359375-7.5 7.5-7.5s7.5 3.359375 7.5 7.5v15.648437c0 4.140626-3.355469 7.5-7.5 7.5zm0 0"/><path d="m41.9375 49.429688c-1.917969 0-3.839844-.734376-5.304688-2.199219l-11.0625-11.0625c-2.929687-2.929688-2.929687-7.679688 0-10.605469 2.925782-2.929688 7.675782-2.929688 10.605469 0l11.0625 11.0625c2.929688 2.929688 2.929688 7.679688 0 10.609375-1.460937 1.460937-3.382812 2.195313-5.300781 2.195313zm0 0"/><path d="m143.683594 151.175781c-1.917969 0-3.839844-.730469-5.304688-2.195312l-11.0625-11.066407c-2.929687-2.929687-2.929687-7.679687 0-10.605468 2.929688-2.929688 7.679688-2.929688 10.605469 0l11.066406 11.0625c2.929688 2.929687 2.929688 7.679687 0 10.609375-1.464843 1.464843-3.386719 2.195312-5.304687 2.195312zm0 0"/><path d="m23.15625 94.769531h-15.648438c-4.140624 0-7.4999995-3.355469-7.4999995-7.5 0-4.140625 3.3593755-7.5 7.4999995-7.5h15.648438c4.140625 0 7.5 3.359375 7.5 7.5 0 4.144531-3.359375 7.5-7.5 7.5zm0 0"/><path d="m167.046875 94.769531h-15.648437c-4.140626 0-7.5-3.355469-7.5-7.5 0-4.140625 3.359374-7.5 7.5-7.5h15.648437c4.144531 0 7.5 3.359375 7.5 7.5 0 4.144531-3.355469 7.5-7.5 7.5zm0 0"/><path d="m30.871094 151.175781c-1.917969 0-3.839844-.730469-5.300782-2.195312-2.929687-2.929688-2.929687-7.679688 0-10.609375l11.0625-11.0625c2.929688-2.929688 7.679688-2.929688 10.605469 0 2.929688 2.929687 2.929688 7.675781 0 10.605468l-11.0625 11.066407c-1.464843 1.464843-3.382812 2.195312-5.304687 2.195312zm0 0"/><path d="m132.621094 49.429688c-1.921875 0-3.839844-.734376-5.304688-2.199219-2.929687-2.929688-2.929687-7.675781 0-10.605469l11.0625-11.0625c2.929688-2.929688 7.679688-2.929688 10.609375 0 2.929688 2.925781 2.929688 7.675781 0 10.605469l-11.066406 11.0625c-1.464844 1.464843-3.382813 2.199219-5.300781 2.199219zm0 0"/></g><path d="m458.832031 407.570312c-4.148437-14.800781-10.113281-29.464843-17.054687-42.015624h5.640625c3.757812 0 7.207031-1.894532 9.226562-5.066407 2.015625-3.164062 2.269531-7.085937.679688-10.488281-3.699219-7.917969-12.71875-26.601562-22.8125-43.046875h3.765625c3.90625 0 7.425781-2.007813 9.414062-5.367187 1.984375-3.359376 2.050782-7.40625.171875-10.824219-6.269531-11.414063-23.542969-40.9375-48.421875-68.457031-2.730468-3.019532-6.644531-4.75-10.742187-4.75-4.109375 0-8.035157 1.734374-10.777344 4.765624-5.53125 6.117188-11.019531 12.722657-16.398437 19.695313-10.140626-15.632813-23.945313-34.910156-40.679688-53.421875-2.964844-3.28125-7.222656-5.164062-11.675781-5.164062-3.8125 0-7.46875 1.386718-10.3125 3.832031-1.8125-2.816407-3.722657-5.730469-5.714844-8.722657h66.398437c9.105469 0 17.898438-3.808593 24.128907-10.453124 6.320312-6.734376 9.476562-15.539063 8.882812-24.792969-.011719-.167969-.03125-.332031-.046875-.5h18.746094c7.613281 0 14.964844-3.191407 20.164062-8.753907 5.273438-5.644531 7.890626-13.011718 7.367188-20.746093-.925781-13.691407-11.953125-24.710938-25.652344-25.628907-.4375-.027343-.875-.046874-1.3125-.054687-4.089844-17.777344-19.328125-27.035156-33.589844-27.035156-13.757812 0-25.890624 7.957031-31.429687 20.207031-.03125 0-.0625 0-.09375 0-6.007813 0-11.800781 2.285156-16.210937 6.4375-2.734376-.21875-5.476563-.03125-8.140626.554688-7.113281-5.585938-16.054687-8.816407-25.660156-8.816407-17.519531 0-36.261718 11.640625-40.6875 34.023438-1.035156-.027344-2.070312-.003907-3.101562.0625-2.992188.203125-5.960938.84375-8.804688 1.871093-.242187-.265624-.476562-.53125-.714844-.800781-3.492187-3.863281-8.503906-6.078125-13.746093-6.078125-5.261719 0-10.292969 2.226563-13.796875 6.105469-22.992188 25.433594-41.835938 51.960937-55.449219 73.121094-2.835937-2.445313-6.488281-3.828125-10.292969-3.828125-4.46875 0-8.738281 1.890625-11.714844 5.183594-16.726562 18.503906-30.523437 37.773437-40.664062 53.402343-5.378906-6.980469-10.875-13.589843-16.410156-19.710937-2.730469-3.023438-6.648438-4.753906-10.746094-4.753906-4.105469 0-8.035156 1.738281-10.773438 4.769531-24.867187 27.511719-42.136718 57.027343-48.40625 68.441406-1.878906 3.417969-1.8125 7.464844.171876 10.820313 1.988281 3.359374 5.507812 5.367187 9.410156 5.367187h3.769531c-10.09375 16.445313-19.113281 35.132813-22.8125 43.046875-1.589844 3.402344-1.335937 7.324219.679687 10.492188 2.019532 3.167968 5.464844 5.0625 9.226563 5.0625h5.636719c-6.9375 12.554687-12.902344 27.21875-17.050782 42.019531-.929687 3.3125-.269531 6.785156 1.8125 9.53125 2.085938 2.75 5.261719 4.328125 8.714844 4.328125h35.457032v75.570312h-4.464844c-4.140625 0-7.5 3.355469-7.5 7.5 0 4.140625 3.359375 7.5 7.5 7.5h291.019531c4.140625 0 7.5-3.359375 7.5-7.5 0-4.144531-3.359375-7.5-7.5-7.5h-53.617187c-.972657 0-1.605469-.5-1.898438-.796875s-.785156-.941406-.769531-1.914062c.011719-.722657.355469-1.4375.949219-1.957031.40625-.359376 1.085937-.761719 2.003906-.65625 5.195312.59375 10.027344-2.949219 11.003906-8.074219.609375-3.1875 2.898438-5.703125 5.835938-6.710938.019531-.003906.039062-.007812.058593-.015625 1.519531-.507812 3.085938-.574218 4.558594-.273437.011719.003906.019531.003906.03125.007812.722656.148438 1.429687.390625 2.089844.714844.019531.007813.039062.015625.054687.027344.398438.195312.777344.421875 1.144532.675781.042968.03125.089843.058594.132812.089844.152344.109375.300781.230468.445312.347656.136719.113281.269532.230469.398438.351562.113281.105469.226562.207032.332031.320313.207031.210937.398438.433594.582031.664063.0625.078124.121094.15625.183594.238281.203125.277343.398438.5625.570313.863281 1.960937 3.441406 5.683593 5.421875 9.472656 5.265625.875-.035156 1.753906-.1875 2.613281-.457031.910156-.289063 1.53125-.328125 2.183594-.246094.289062.046875.597656.121094.976562.214844.832032.203125 2.078126.507812 3.550782.523437.050781 0 .09375.007813.140625.007813.054687 0 .117187-.007813.175781-.007813.109375 0 .21875-.007812.332031-.011719.113281-.007812.222657-.011718.335938-.019531 1.53125-.128906 3.238281-.609375 4.96875-1.820312 1.53125-1.070313 3.445312-1.476563 5.257812-1.117188 2.632813.523438 5.394531-.066406 7.570313-1.625 2.144531-1.535156 3.574218-3.910156 3.921875-6.519531 1.042969-7.785156 7.75-13.65625 15.613281-13.65625 2.425781 0 4.777344.570312 6.890625 1.605469.289063.140625.570313.292969.847656.449219.054688.027343.105469.054687.160157.085937.324218.1875.644531.390625.953124.601563.105469.070312.207032.148437.308594.222656.199219.140625.390625.28125.582032.429687.140624.109375.273437.226563.410156.34375.144531.121094.289062.246094.429687.375.144531.128907.28125.257813.417969.394531.128906.125.257812.257813.386719.390626.128906.136718.257812.273437.382812.417968.128907.144532.253907.292969.378907.441406.113281.136719.222656.273438.332031.414063.140625.179687.269531.367187.402343.554687.085938.117188.171876.234376.253907.355469.207031.316407.40625.636719.59375.96875 2.546875 4.53125 7.828125 6.765625 12.75 5.503907.214843-.054688.429687-.109376.640625-.175782h.007812c.402344-.128906.8125-.230468 1.222656-.308594.128907-.027343.261719-.046874.394532-.066406.277344-.046875.554687-.078125.828125-.105468.167969-.011719.335937-.027344.503906-.03125.230469-.011719.460937-.007813.691406-.003907.828125.023438 1.648438.128907 2.445313.324219.085937.023438.171875.042969.257812.066406.285156.078125.566406.164063.839844.261719.070312.027344.140625.054687.207031.078125.792969.300781 1.546875.691406 2.257813 1.160156.199218.128906.398437.265625.589844.410156 1.59375 1.195313 2.90625 2.8125 3.714843 4.765626 2.078125 5.011718 7.574219 7.632812 12.789063 6.09375 1.917968-.566407 3.40625.207031 4.121094.722656 1.265624.90625 2.027343 2.269531 2.085937 3.742187.054687 1.34375-.425781 2.613281-1.351563 3.578125-.925781.964844-2.171874 1.496094-3.511718 1.496094h-51.414063c-4.140625 0-7.5 3.359375-7.5 7.5 0 4.144531 3.359375 7.503906 7.5 7.503906h51.417969c5.460938 0 10.546875-2.167968 14.328125-6.105468s5.742187-9.113282 5.523437-14.574219c-.246093-6.125-3.28125-11.714844-8.335937-15.335938-3.964844-2.839843-8.703125-4.101562-13.417969-3.632812-1.019531-1.730469-2.226562-3.308594-3.578125-4.730469v-46.191406h34.40625c3.453125 0 6.632813-1.578125 8.71875-4.328125 2.082031-2.746094 2.742188-6.222657 1.8125-9.535157zm-151.769531-207.207031c.507812-.570312 1.011719-1.132812 1.515625-1.6875.183594-.199219.421875-.242187.589844-.242187.230469 0 .417969.074218.550781.222656 20.304688 22.460938 36.15625 46.128906 46.109375 62.46875.105469.175781.210937.347656.316406.523438.242188.398437.480469.796874.71875 1.1875.15625.261718.3125.519531.464844.777343.175781.289063.347656.582031.519531.867188.183594.300781.363282.605469.539063.902343.128906.214844.253906.429688.378906.644532.203125.335937.402344.675781.59375 1.003906.089844.152344.175781.304688.265625.453125.214844.363281.425781.726563.628906 1.078125.054688.089844.105469.179688.160156.269531.492188.847657.960938 1.664063 1.402344 2.4375h-7.304687c-.53125 0-1.058594.035157-1.578125.105469-3.625.496094-6.828125 2.6875-8.589844 5.960938-2.019531 3.75-1.816406 8.285156.527344 11.839843 11.398437 17.300781 22.335937 39.097657 28.171875 51.28125h-9.578125c-4.179688 0-8.039063 2.265625-10.082032 5.910157-2.035156 3.644531-1.941406 8.121093.246094 11.675781.539063.878906 1.074219 1.765625 1.605469 2.667969.191406.324218.378906.660156.570313.988281.335937.582031.675781 1.160156 1.007812 1.75.21875.394531.4375.792969.65625 1.191406.300781.539063.597656 1.070313.890625 1.617187.234375.425782.457031.863282.6875 1.292969.277344.523438.558594 1.046875.835937 1.578125.226563.445313.453126.894532.679688 1.339844.269531.53125.542969 1.058594.808594 1.59375.226562.460938.449218.925781.675781 1.386719.257813.53125.519531 1.0625.777344 1.597656.226562.476563.445312.957031.671875 1.4375.25.535156.5 1.066406.746094 1.605469.222656.484375.441406.976562.660156 1.46875.242187.539062.484375 1.074218.722656 1.617187.21875.496094.429688 1 .648438 1.503907.230468.539062.464843 1.078124.691406 1.625.214844.507812.421875 1.019531.632812 1.53125.222656.542968.449219 1.089843.671875 1.636718.207031.515625.410157 1.035156.613281 1.558594.214844.546875.433594 1.09375.644532 1.640625.203125.527344.398437 1.058594.597656 1.585937.207031.550782.414062 1.097657.617188 1.648438.195312.535156.386718 1.070312.578124 1.605469.199219.550781.394532 1.101562.589844 1.65625.1875.539062.371094 1.078125.558594 1.617187.1875.554688.378906 1.109375.5625 1.667969.183594.542969.359375 1.085937.535156 1.628906.179688.554688.359375 1.109375.535156 1.667969.175782.550781.347657 1.101562.515626 1.65625.105468.34375.210937.683594.3125 1.023438h-38.371094c-.078125-.457032-.179688-.917969-.308594-1.375-1.347656-4.808594-2.820312-9.613282-4.402344-14.375-6.859375-20.644532-15.800781-40.574219-25.851562-57.527344h16.410156c4.441406 0 8.519531-2.238282 10.902344-5.984375 2.382812-3.742188 2.683594-8.378907.804687-12.398438-1.773437-3.800781-4.332031-9.179687-7.476562-15.558593-.699219-1.414063-1.425781-2.882813-2.183594-4.390626-.375-.753906-.761719-1.519531-1.152344-2.296874-7.816406-15.5-18.230469-34.957032-29.148437-51.949219h13.816406c4.613281 0 8.773438-2.375 11.125-6.347657 2.347656-3.964843 2.421875-8.746093.203125-12.785156-.28125-.511718-.582031-1.058594-.898437-1.625-.035157-.066406-.070313-.128906-.109376-.195312-.292968-.527344-.597656-1.078125-.917968-1.648438-.070313-.121094-.136719-.242187-.203125-.363281-.308594-.550781-.632813-1.121094-.96875-1.710937-.082031-.148438-.167969-.296876-.25-.445313-.34375-.601563-.695313-1.21875-1.0625-1.859375-.070313-.125-.144531-.25-.214844-.375-.394531-.6875-.800781-1.386719-1.21875-2.113281-.007813-.011719-.015625-.023438-.023437-.035157-.453126-.78125-.921876-1.585937-1.40625-2.410156-.023438-.039062-.042969-.074218-.066407-.113281-1.488281-2.535156-3.121093-5.269531-4.894531-8.183594zm9.984375 268.941407c-.199219-.222657-.398437-.441407-.605469-.65625-.113281-.117188-.234375-.230469-.347656-.34375-.191406-.1875-.382812-.371094-.578125-.550782-.128906-.121094-.257813-.234375-.390625-.351562-.191406-.167969-.382812-.335938-.578125-.496094-.136719-.113281-.277344-.226562-.417969-.339844-.195312-.152344-.394531-.304687-.597656-.453125-.144531-.109375-.289062-.214843-.4375-.320312-.203125-.144531-.414062-.285157-.625-.421875-.148438-.097656-.292969-.195313-.441406-.289063-.222656-.144531-.449219-.277343-.679688-.410156-.140625-.082031-.28125-.164063-.421875-.246094-.269531-.148437-.542969-.289062-.816406-.429687-.105469-.054688-.207031-.109375-.316406-.164063-.378907-.183593-.765625-.359375-1.15625-.527343-.105469-.042969-.210938-.082032-.320313-.125-.289062-.121094-.578125-.234376-.871094-.34375-.152343-.054688-.308593-.101563-.460937-.15625-.25-.085938-.503906-.167969-.757813-.246094-.171874-.050782-.339843-.097656-.511718-.144532-.242188-.070312-.488282-.136718-.734375-.195312-.175781-.042969-.355469-.082031-.535157-.121094-.242187-.054687-.488281-.105468-.734374-.152344-.179688-.035156-.363282-.066406-.546876-.097656-.246093-.039062-.496093-.074218-.746093-.109375-.179688-.023437-.363281-.046875-.542969-.066406-.082031-.007813-.160156-.019531-.238281-.027344v-40.089843h17.175781v49.089843c-.222656.023438-.441406.042969-.671875.074219-.265625-.339844-.542969-.671875-.828125-1-.082031-.097656-.175781-.191406-.265625-.289062zm22.929687-370.308594c2.0625-2.519532 5.316407-3.6875 8.496094-3.035156 4.867188.996093 9.628906-1.839844 11.085938-6.59375 2.53125-8.25 10.03125-13.792969 18.667968-13.792969 8.605469 0 18.386719 5.945312 19.527344 18.925781.203125 2.613281 1.417969 4.914062 3.421875 6.480469 2.539063 1.988281 5.425781 2.074219 6.917969 1.945312.28125-.019531.566406-.054687.847656-.109375 1.050782-.191406 2.125-.253906 3.1875-.183594 6.238282.417969 11.261719 5.4375 11.683594 11.671876.242188 3.542968-.953125 6.914062-3.359375 9.488281-2.40625 2.578125-5.675781 4-9.203125 4h-23.753906c-.125-.195313-.261719-.378907-.386719-.570313-.117187-.175781-.234375-.347656-.355469-.523437-6.175781-9.003907-16.316406-14.339844-27.21875-14.316407-.164062 0-.328125 0-.496094.003907-.378906.003906-.757812.015625-1.140624.035156-.492188.023437-.988282.058594-1.484376.105469-.125.011718-.246093.015625-.371093.027344-1.746094-1.746094-3.691407-3.234376-5.78125-4.441407-4.539063-2.621093-9.753907-3.921875-15.0625-3.699219-.074219.003907-.144531 0-.21875.003907-.28125-.679688-.589844-1.347657-.90625-2.007813 2.28125-.371094 4.390625-1.5625 5.902343-3.414062zm-84.542968 28.976562c.992187.019532 1.984375.117188 2.964844.300782.265624.046874.527343.082031.792968.101562 1.550782.144531 4.695313.105469 7.433594-2.035156 2.085938-1.632813 3.355469-4.039063 3.5625-6.707032 1.546875-17.640624 14.824219-25.675781 26.503906-25.675781 7.039063 0 13.507813 2.726563 18.308594 7.316407.082031.089843.15625.1875.246094.273437 1.960937 1.929687 3.613281 4.148437 4.886718 6.554687.011719.019532.019532.035157.03125.054688.195313.375.375.753906.554688 1.136719.121094.261719.238281.527343.351562.792969.117188.269531.230469.535156.335938.808593.226562.589844.441406 1.183594.628906 1.792969 1.539063 5.019531 6.570313 8.019531 11.707032 6.964844.585937-.117188 1.179687-.195313 1.765624-.234375.296876-.019531.589844-.027344.882813-.027344.324219.003906.648437.019531.96875.042969 3.453125.277344 6.695313 1.9375 8.964844 4.710937 2.25 2.757813 5.757812 4.105469 9.25 3.625.179687-.027343.359375-.03125.535156-.066406.585937-.113281 1.171875-.1875 1.757813-.246094.214843-.019531.425781-.023437.640624-.039062.363282-.019531.726563-.035157 1.089844-.035157.257813.003907.511719.007813.769532.019532.324218.015625.648437.042968.96875.074218.253906.023438.511718.046876.761718.082032.421875.0625.835938.140625 1.246094.230468.136719.027344.277344.046876.410156.078126.570313.140624 1.132813.308593 1.6875.5.082032.03125.160156.066406.242188.09375.527344.195312 1.050781.40625 1.5625.652343.015625.007813.035156.015625.050781.027344 1.140625.550781 2.234375 1.222656 3.265625 2.023437 1.03125.800782 1.96875 1.699219 2.792969 2.675782h.003906c.394531.46875.761719.960937 1.109375 1.460937.019531.03125.039062.054688.058594.082031.335937.496094.644531 1.007813.929687 1.535157.09375.175781.175781.363281.265625.542969 1.054688 2.109374 1.707032 4.410156 1.859375 6.792968.324219 5.070313-1.398437 9.890625-4.851562 13.574219-3.457031 3.683594-8.140625 5.710937-13.1875 5.710937h-76.710938c-2.914062-4.097656-5.859375-8.128906-8.828125-12.09375-.265625-.355468-.527344-.707031-.792968-1.0625-.621094-.828124-1.246094-1.644531-1.867188-2.464843-.488281-.640625-.972656-1.277344-1.46875-1.921875-.523438-.683594-1.050781-1.367188-1.578125-2.046875-.605469-.78125-1.214844-1.5625-1.828125-2.347657-.449219-.570312-.898438-1.144531-1.347656-1.714843-.703125-.890625-1.414063-1.785157-2.128906-2.679688-.378907-.472656-.757813-.945312-1.140626-1.417969-.789062-.976562-1.582031-1.957031-2.382812-2.9375-.320312-.390624-.636719-.777343-.953125-1.164062-.859375-1.046875-1.726563-2.089844-2.601563-3.136719-.164062-.191406-.320312-.386719-.480468-.578125zm-28.460938-3.777344c.664063-.734374 1.636719-1.160156 2.667969-1.160156 1.007813 0 1.960937.414063 2.613281 1.136719 1.472656 1.628906 2.921875 3.265625 4.359375 4.902344 4.59375 5.230469 9.164063 10.667969 13.6875 16.289062.046875.054688.09375.117188.140625.171875 1.488282 1.851563 2.972656 3.722656 4.453125 5.613282.050781.066406.101563.132812.152344.199218 1.421875 1.816406 2.839844 3.652344 4.25 5.503906.082031.109376.164063.21875.246094.324219 1.363281 1.792969 2.71875 3.605469 4.070312 5.429688.242188.324219.484375.652343.722657.976562 1.300781 1.765625 2.597656 3.539063 3.886718 5.328125.195313.269532.386719.539063.582032.808594 1.207031 1.679688 2.40625 3.375 3.605468 5.078125 7.441406 10.601563 13.902344 20.527344 19.261719 29.175781.464844.746094.914063 1.480469 1.359375 2.203125.164062.261719.328125.53125.488281.789063 1.265625 2.070312 2.464844 4.058594 3.589844 5.945312.078125.132813.152344.257813.230469.390625.480468.804688.949218 1.597657 1.402344 2.371094.101562.171875.203124.339844.300781.511719.425781.71875.835937 1.425781 1.234375 2.109375.097656.171875.199218.34375.296875.511719.402343.691406.789062 1.367187 1.164062 2.019531.078125.132812.15625.265625.226563.394531.414062.722656.8125 1.417969 1.191406 2.089844.027344.046875.058594.097656.085938.148437.414062.734375.8125 1.441407 1.191406 2.117188h-14.125c-4.757813 0-9.117188 2.597656-11.371094 6.785156-2.257812 4.191406-2.03125 9.269531.589844 13.246094 16.550781 25.121093 32.355468 57.226562 39.597656 72.546875h-16.832031c-.289063 0-.582031.007812-.871094.027344-4.335937.292968-8.265625 2.761718-10.402344 6.585937-2.277343 4.074219-2.171875 9.078125.273438 13.058594.753906 1.226562 1.503906 2.472656 2.246093 3.738281.265626.445312.519532.90625.78125 1.359375.480469.824219.957032 1.644531 1.429688 2.480469.300781.535156.597656 1.089844.894531 1.628906.425781.769531.851563 1.53125 1.269531 2.3125.304688.566406.605469 1.148438.910157 1.722656.402343.769532.8125 1.53125 1.214843 2.308594.304688.59375.605469 1.203125.910157 1.800781.386719.773438.78125 1.539063 1.164062 2.320313.304688.617187.601563 1.242187.90625 1.867187.375.777344.753907 1.546875 1.121094 2.328125.296875.628906.585937 1.265625.878906 1.898438.367188.792968.738281 1.578125 1.097657 2.375.289062.632812.566406 1.277344.851562 1.917968.355469.804688.71875 1.609376 1.070312 2.421876.277344.644531.550782 1.296874.824219 1.949218.347657.816406.699219 1.628906 1.039063 2.449219.273437.664063.539062 1.332031.808594 2 .332031.816406.667968 1.628906.992187 2.453125.269531.675781.527344 1.359375.789063 2.039062.320312.820313.640624 1.640626.953124 2.464844.253907.675782.5 1.359375.753907 2.039063.308593.835937.621093 1.667969.921875 2.507812.246094.683594.480468 1.375.722656 2.066407.296875.835937.59375 1.671874.882812 2.511718.238282.699219.46875 1.40625.703126 2.109375.277343.832031.5625 1.664063.832031 2.5.230469.710938.449219 1.425781.675781 2.136719.265625.832031.53125 1.660156.785156 2.492188.226563.730468.4375 1.460937.65625 2.191406.222656.738281.445313 1.480468.660156 2.21875h-182.832031c.210938-.730469.433594-1.460938.652344-2.1875.21875-.742188.4375-1.484375.664063-2.226563.246093-.804687.507812-1.609375.761718-2.414062.234375-.738281.460938-1.480469.703125-2.21875.257813-.804688.53125-1.605469.796875-2.40625.246094-.734375.488282-1.46875.738282-2.203125.277343-.808594.5625-1.613282.847656-2.417969.25-.722656.5-1.441406.757812-2.160156.289063-.808594.589844-1.609375.886719-2.410157.261719-.710937.523437-1.425781.789063-2.136718.300781-.792969.609374-1.582032.917968-2.375.273438-.707032.542969-1.421875.824219-2.125.3125-.792969.632813-1.574219.953125-2.359375.28125-.699219.558594-1.398438.847656-2.09375.324219-.785157.660156-1.5625.992188-2.339844.289062-.6875.574218-1.378906.871094-2.058594.332031-.769531.675781-1.527343 1.011718-2.289062.304688-.683594.601563-1.371094.910156-2.050781.34375-.757813.695313-1.503907 1.042969-2.257813.3125-.671875.617188-1.347656.933594-2.011719.355469-.753906.71875-1.492187 1.078125-2.238281.316406-.652344.628906-1.3125.945312-1.957031.375-.757813.753907-1.5 1.132813-2.246094.3125-.625.625-1.253906.945313-1.871094.390624-.761718.789062-1.503906 1.183593-2.253906.3125-.59375.621094-1.191406.9375-1.78125.414063-.769531.835938-1.519531 1.253907-2.277344.304687-.554687.605468-1.113281.914062-1.660156.472656-.839844.949219-1.660156 1.425781-2.484375.261719-.449219.519531-.910156.78125-1.359375.746094-1.261719 1.492188-2.507812 2.25-3.734375 2.445313-3.980469 2.550781-8.984375.273438-13.058594-2.28125-4.082031-6.601563-6.617187-11.277344-6.617187h-16.832031c7.246094-15.320313 23.050781-47.429688 39.597656-72.542969 2.621094-3.980469 2.847656-9.054687.589844-13.246094-2.253906-4.1875-6.609375-6.789062-11.371094-6.789062h-14.121094c.761719-1.359375 1.605469-2.851563 2.53125-4.464844.011719-.023437.027344-.046875.039063-.070313.441406-.769531.898437-1.5625 1.375-2.382812.039062-.066406.078125-.132812.113281-.195312.464844-.796876.941406-1.617188 1.4375-2.457032.042969-.074218.085938-.148437.128906-.222656.511719-.871094 1.042969-1.765625 1.589844-2.683594.023438-.039062.046875-.078125.070312-.117187 1.140626-1.914063 2.355469-3.933594 3.640626-6.03125.136718-.222657.277343-.449219.414062-.671875.46875-.761719.941406-1.535156 1.429688-2.316406 13.457031-21.707032 33.789062-51.445313 59.386718-79.765626zm-20.414062 297.238282v75.566406h-32.902344v-75.566406zm-112.984375 0h32.90625v75.566406h-32.90625zm55.941406-222.757813c.179687-.199219.417969-.242187.585937-.242187.230469 0 .417969.074218.550782.222656.507812.5625 1.019531 1.132812 1.53125 1.707031-1.171875 1.925781-2.277344 3.769531-3.328125 5.539063-.023438.035156-.046875.074218-.070313.113281-.5.84375-.992187 1.675781-1.464844 2.480469-.058593.097656-.113281.191406-.167968.289062-.425782.726563-.84375 1.4375-1.246094 2.128906-.078125.136719-.152344.269532-.230469.402344-.355469.613282-.699219 1.210938-1.035156 1.792969-.105469.183594-.210937.363281-.3125.542969-.339844.59375-.667969 1.171875-.988281 1.734375-.109375.191406-.21875.382812-.324219.570312-.3125.550781-.617187 1.085938-.90625 1.601563-.089844.164062-.179687.324218-.269531.484375-.300782.535156-.59375 1.058593-.871094 1.554687-.046875.089844-.09375.171875-.144531.261719-.304688.550781-.597657 1.082031-.871094 1.582031-2.21875 4.039063-2.144531 8.820313.203125 12.789063 2.351562 3.972656 6.507812 6.34375 11.125 6.34375h13.8125c-8.183594 12.742187-16.089844 26.871093-22.828125 39.683593-.898437 1.707032-1.773437 3.390626-2.628906 5.042969-6.414063 12.410157-11.542969 23.136719-14.503907 29.46875-1.171874 2.515625-1.496093 5.265625-.992187 7.890625.304687 1.578125.902344 3.105469 1.796875 4.507813 2.386719 3.75 6.460938 5.984375 10.90625 5.984375h16.40625c-12.371094 20.867187-23.058594 46.242187-30.253906 71.90625-.125.457031-.226563.914062-.304688 1.375h-38.375c.101563-.34375.207032-.683594.3125-1.023438.167969-.554687.339844-1.109375.515625-1.660156.175781-.554688.355469-1.109375.535157-1.664062.175781-.546876.351562-1.089844.535156-1.628907.183594-.558593.375-1.113281.566406-1.671875.183594-.539062.367188-1.078125.554688-1.617187.195312-.550781.390624-1.101563.589843-1.652344.191407-.535156.382813-1.074219.578125-1.609375.203125-.550781.410156-1.097656.617188-1.648438.199218-.527343.398437-1.054687.597656-1.582031.214844-.550781.429688-1.101562.648438-1.652343.203124-.515626.402343-1.03125.609374-1.546876.222657-.554687.453126-1.105468.679688-1.65625.207031-.503906.414062-1.011718.621094-1.511718.234375-.550782.46875-1.097656.703125-1.644532.214843-.496093.425781-.992187.640625-1.484374.242187-.546876.488281-1.09375.730468-1.636719.214844-.484375.429688-.96875.652344-1.445313.25-.554687.507813-1.097656.761719-1.644531.21875-.464844.433594-.933594.65625-1.394531.261719-.554688.535156-1.101563.800781-1.652344.21875-.445312.433594-.890625.652344-1.332031.28125-.566407.566406-1.125.851562-1.6875.210938-.414063.421876-.832031.632813-1.242188.304687-.585937.613281-1.164062.921875-1.742187.199219-.375.398438-.753906.597656-1.128906.335938-.621094.679688-1.230469 1.019532-1.84375.175781-.320313.351562-.644532.53125-.960938.421874-.75.847656-1.484375 1.273437-2.21875.101563-.171875.199219-.347656.300781-.519531.535156-.90625 1.074219-1.800781 1.613282-2.683594 1.914062-3.113281 2.226562-6.925781.910156-10.273437-.1875-.476563-.410156-.945313-.664063-1.402344-2.039062-3.644532-5.902343-5.910156-10.082031-5.910156h-9.578125c5.835937-12.183594 16.777344-33.976563 28.175781-51.277344 2.34375-3.558594 2.542969-8.09375.527344-11.84375-1.765625-3.273438-4.96875-5.464844-8.589844-5.960938-.519531-.070312-1.046875-.105468-1.578125-.105468h-7.304687c.425781-.746094.882812-1.535157 1.355468-2.355469.074219-.128907.144532-.25.21875-.378907.1875-.320312.378907-.648437.574219-.980468.109375-.1875.21875-.371094.328125-.558594.175782-.300781.355469-.609375.539063-.917969.148437-.25.296875-.5.449219-.757812.152343-.257813.308593-.519531.46875-.785157.203124-.34375.414062-.695312.625-1.046874.117187-.195313.234374-.390626.351562-.585938.285156-.472656.578125-.953125.871094-1.441406.058594-.09375.117187-.1875.175781-.285156 9.945313-16.34375 25.808594-40.03125 46.125-62.503907zm-115.648437 168.523438c2.070312-3.367188 2.160156-7.601563.230468-11.050781-1.929687-3.453126-5.585937-5.597657-9.539062-5.597657h-6.289063c5.085938-10.523437 13.871094-27.800781 22.996094-41.652343 2.21875-3.363282 2.410156-7.660157.5-11.207032-1.910156-3.539062-5.597656-5.742187-9.621094-5.742187h-4.207031c7.695312-13.289063 22.566406-36.898438 42.617188-59.167969 6.308593 7.003906 12.570312 14.667969 18.664062 22.835938-1.167969 1.949218-2.238281 3.765624-3.222656 5.453124-.070313.125-.148438.253907-.21875.378907-.222656.378906-.429688.742187-.640625 1.109375-.132813.234375-.273438.476562-.40625.703125-.167969.292969-.324219.570312-.484375.855469-.15625.269531-.316406.550781-.464844.8125-.152344.269531-.292969.515624-.4375.773437s-.292969.523437-.433594.769531c-.171875.3125-.332031.597656-.496094.890625-.09375.167969-.191406.347657-.28125.507813-.253906.457031-.492187.886718-.714843 1.292968-1.984375 3.613282-1.917969 7.886719.183593 11.433594 2.101563 3.550782 5.816407 5.671875 9.941407 5.671875h6.882812c-12.390625 19.832031-23.625 43.097657-28.140625 52.753907-1.679687 3.59375-1.410156 7.738281.722656 11.085937 2.132813 3.347656 5.773438 5.347656 9.746094 5.347656h8.972656c-.539062.945313-1.070312 1.902344-1.597656 2.867188-.15625.285156-.308594.582031-.464844.867187-.371093.683594-.742187 1.367188-1.101562 2.058594-.195312.367188-.382812.742188-.570312 1.109375-.324219.625-.648438 1.246094-.96875 1.878906-.191407.382813-.378907.769531-.570313 1.152344-.3125.628906-.625 1.257813-.9375 1.894531-.191406.402344-.382813.8125-.578125 1.21875-.296875.621094-.59375 1.242188-.886719 1.871094-.210937.445312-.410156.894531-.617187 1.34375-.273438.597656-.546875 1.191406-.816406 1.789062-.210938.476563-.417969.953126-.628907 1.433594-.257812.582032-.515625 1.160156-.765625 1.75-.210937.484375-.410156.972656-.617187 1.457032-.246094.589843-.496094 1.171874-.742188 1.761718-.203125.492188-.398437.984375-.597656 1.480469-.238281.589844-.480469 1.179687-.714844 1.777344-.199219.496093-.386719.996093-.582031 1.492187-.230469.597656-.464844 1.191406-.691406 1.792969-.195313.511719-.382813 1.023437-.570313 1.539063-.21875.589843-.441406 1.179687-.65625 1.769531-.191406.527343-.375 1.054687-.5625 1.582031-.207031.585938-.417969 1.171875-.621093 1.757812-.183594.53125-.359376 1.066407-.542969 1.601563-.195313.582031-.398438 1.167969-.589844 1.753906-.175781.527344-.339844 1.058594-.511719 1.589844-.191406.597656-.386718 1.191406-.574218 1.789063-.164063.523437-.324219 1.050781-.484376 1.574218-.183593.601563-.371093 1.207032-.550781 1.808594-.15625.527344-.308593 1.054688-.457031 1.582031-.160156.542969-.320312 1.085938-.476562 1.628907h-52.285157c4.425781-14.203126 10.542969-27.96875 17.472657-39.230469zm27.535156 129.800781v-75.566406h17.171875v75.566406zm80.078125 0v-75.566406h17.171875v75.566406zm80.082031 0v-75.566406h17.171875v75.566406zm55.453125-20.179688c-3.40625.460938-6.652344 1.921876-9.292969 4.242188-3.777344 3.316406-5.980468 8.058594-6.050781 13.015625-.015625.988281.070313 1.964844.214844 2.921875h-8.152344v-75.566406h32.90625v43.65625c-4.332031 2.726562-7.761719 6.808594-9.625 11.730468zm57.757813-8.6875c-.320313.015626-.640626.042969-.957032.070313v-46.769531h32.902344v25.121094c-.847656-.070313-1.699219-.121094-2.558594-.121094-13.621094 0-25.472656 9.035156-29.386718 21.699218zm64.121093-8.519531c-1.054687-.171875-2.121093-.253906-3.1875-.292969-.035156-.003906-.070312-.003906-.109375-.003906-.628906-.023437-1.257812-.027344-1.890625-.003906-.160156.003906-.316406.023438-.476562.03125-.535157.03125-1.070313.0625-1.609375.125-.453125.054688-.90625.136719-1.359375.214844-.25.042968-.5.0625-.75.117187-.019531-.03125-.042969-.058593-.0625-.085937-.433594-.628906-.898438-1.234375-1.375-1.824219-.175781-.21875-.351563-.429687-.535157-.640625-.398437-.46875-.808593-.921875-1.234374-1.363281-.210938-.222657-.425782-.4375-.640626-.652344-.457031-.445313-.925781-.875-1.40625-1.289063-.234374-.203124-.476562-.402343-.71875-.601562-.476562-.386719-.960937-.757812-1.457031-1.113281-.125-.089844-.238281-.191407-.363281-.277344v-30.523437h17.171875v38.183593zm-8.328125-53.183593c-.144531-.515626-.300781-1.03125-.449218-1.550782-.160157-.554687-.320313-1.109375-.484376-1.664062-.171874-.578125-.351562-1.15625-.527343-1.730469-.167969-.550781-.332031-1.101563-.503907-1.652344-.183593-.578125-.371093-1.152343-.558593-1.730469-.175781-.546874-.347657-1.097656-.527344-1.644531-.191406-.574219-.386719-1.144531-.578125-1.714843-.1875-.546876-.367188-1.09375-.558594-1.640626-.199218-.578124-.40625-1.152343-.609375-1.726562-.191406-.535156-.375-1.074219-.570312-1.609375-.214844-.589844-.433594-1.175781-.652344-1.761719-.191406-.515625-.378906-1.03125-.574219-1.546875-.230468-.605469-.464844-1.203125-.699218-1.804687-.191407-.492188-.378907-.988282-.574219-1.480469-.238281-.609375-.488281-1.214844-.734375-1.820313-.191406-.476562-.382813-.957031-.578125-1.433593-.257813-.617188-.515625-1.226563-.777344-1.839844-.191406-.460937-.382813-.921875-.578125-1.378906-.273438-.628907-.550781-1.253907-.824219-1.878907-.191406-.433593-.378906-.871093-.570312-1.300781-.296875-.660156-.597657-1.3125-.898438-1.96875-.179687-.386719-.355469-.78125-.535156-1.167969-.320313-.6875-.648437-1.371093-.976563-2.054687-.164062-.34375-.328124-.691406-.492187-1.035156-.339844-.703125-.6875-1.398438-1.035156-2.09375-.15625-.316407-.3125-.636719-.46875-.949219-.367188-.726562-.738281-1.441406-1.109375-2.160156-.144532-.273438-.285156-.554688-.429688-.828125-.402344-.773438-.816406-1.535157-1.226562-2.292969-.113282-.210938-.226563-.429688-.339844-.640625-.527344-.964844-1.0625-1.921875-1.601562-2.867187h8.972656c3.972656 0 7.617187-2 9.746094-5.351563 2.132812-3.34375 2.402343-7.488281.71875-11.082031-4.511719-9.65625-15.746094-32.921875-28.136719-52.753906h6.882812c4.125 0 7.84375-2.121094 9.945313-5.671876 2.097656-3.546874 2.164062-7.824218.179687-11.433593-.222656-.40625-.457031-.835938-.710937-1.289063-.105469-.195312-.222656-.402344-.335938-.601562-.144531-.261719-.289062-.519532-.441406-.792969-.152344-.269531-.3125-.550781-.46875-.832031-.136719-.238282-.265625-.46875-.40625-.714844-.152344-.273438-.320312-.5625-.480469-.84375-.15625-.273438-.308593-.539062-.472656-.824219-.136719-.242187-.285156-.496093-.425781-.742187-.203125-.351563-.40625-.703125-.617188-1.070313-.082031-.136719-.167968-.285156-.246094-.425781-.976562-1.675781-2.039062-3.476562-3.199218-5.410156 6.09375-8.167969 12.355468-15.832032 18.660156-22.835938 20.058594 22.273438 34.925781 45.882813 42.617188 59.167969h-4.203126c-4.027343 0-7.710937 2.203125-9.621093 5.746094-1.910157 3.546875-1.71875 7.839843.5 11.203125 9.125 13.851562 17.910156 31.128906 22.996093 41.652344h-6.289062c-3.957031 0-7.609375 2.144531-9.539062 5.597656-1.929688 3.449218-1.839844 7.683594.230468 11.050781 6.925782 11.265625 13.046875 25.027344 17.472656 39.234375h-52.285156zm0 0" fill="#474d54"/><path d="m87.277344 135.761719c19.105468 0 36.492187-11.285157 44.285156-28.746094 1.691406-3.78125-.007812-8.214844-3.789062-9.90625-3.785157-1.691406-8.21875.007813-9.90625 3.792969-5.386719 12.0625-17.394532 19.855468-30.589844 19.855468-18.464844 0-33.488282-15.019531-33.488282-33.488281s15.023438-33.492187 33.488282-33.492187c12.761718 0 24.242187 7.101562 29.964844 18.535156 1.851562 3.703125 6.355468 5.203125 10.0625 3.351562 3.703124-1.855468 5.203124-6.359374 3.351562-10.0625-8.277344-16.542968-24.898438-26.820312-43.378906-26.820312-26.738282 0-48.488282 21.75-48.488282 48.488281s21.75 48.492188 48.488282 48.492188zm0 0" fill="#474d54"/></svg>