<svg xmlns="http://www.w3.org/2000/svg" viewBox="0 0 1246.86 1116.2"><defs><style>.cls-1{fill:#3af072;}.cls-2{fill:#005984;}.cls-3{fill:#ffdf42;}.cls-4{fill:#231f20;}.cls-10,.cls-4{opacity:0.1;}.cls-5{fill:#3f3f3f;}.cls-6{fill:#dbdbdb;}.cls-7{fill:#223666;}.cls-8{opacity:0.6;}.cls-16,.cls-20,.cls-9{opacity:0.5;}.cls-11{fill:#ffc221;}.cls-12{fill:#ff6900;}.cls-13,.cls-17,.cls-20{fill:#fff;}.cls-14{fill:#033;}.cls-15{fill:#34495e;}.cls-15,.cls-16,.cls-17,.cls-18,.cls-21{fill-rule:evenodd;}.cls-17{opacity:0.8;}.cls-18{fill:#ecf0f1;}.cls-19{opacity:0.3;}.cls-21{fill:#333;}</style></defs><title>Ativo 1</title><g id="Camada_2" data-name="Camada 2"><g id="Web_and_Development" data-name="Web and Development"><g id="Network_Security" data-name="Network Security"><g id="Background"><circle id="Background_2" data-name="Background 2" class="cls-1" cx="591.7" cy="532" r="532" transform="translate(-202.88 574.21) rotate(-45)"/></g><g id="Network_Security-2" data-name="Network Security"><g id="Security"><path class="cls-2" d="M649.4,51.28,415.24,152.4V403.2S429.06,577.85,649.4,674.81c220.33-97,234.15-271.61,234.15-271.61V152.4Z"/><path class="cls-3" d="M649.4,115,463.09,195.45V395s11,139,186.31,216.12C824.7,534,835.7,395,835.7,395V195.45Z"/><path class="cls-4" d="M883.55,403.2V152.4L649.4,51.28V674.81C869.73,577.85,883.55,403.2,883.55,403.2Z"/><polygon class="cls-1" points="648.45 420.01 795.45 294.28 773.37 268.46 651.55 372.66 600.95 315.72 575.55 338.29 648.12 419.94 648.29 420.14 648.3 420.14 648.3 420.14 648.45 420.01"/></g><g id="Connection"><polygon class="cls-5" points="146.25 1015.23 137.86 1010.58 368.23 594.54 560.66 594.54 560.66 604.14 373.88 604.14 146.25 1015.23"/><polygon class="cls-5" points="567.9 1043.2 558.3 1043.2 558.3 678.91 646.07 591.15 652.85 597.94 567.9 682.88 567.9 1043.2"/><polygon class="cls-5" points="1091.29 1033.89 929.91 595.94 687.09 595.94 687.09 586.35 936.6 586.35 1100.3 1030.57 1091.29 1033.89"/><path class="cls-5" d="M578.63,598.63A15.73,15.73,0,1,1,562.9,582.9,15.74,15.74,0,0,1,578.63,598.63Z"/><path class="cls-5" d="M662.63,594.54a15.73,15.73,0,1,1-15.73-15.73A15.73,15.73,0,0,1,662.63,594.54Z"/><path class="cls-5" d="M708.5,591.15a15.73,15.73,0,1,1-15.73-15.73A15.73,15.73,0,0,1,708.5,591.15Z"/></g><g id="Key"><g id="Key-2" data-name="Key"><path class="cls-6" d="M312.18,699.32h6.94V688.83a5.31,5.31,0,0,0-5.32-5.3H284.88a5.31,5.31,0,0,0-5.31,5.3v43.39a5.31,5.31,0,0,0,5.31,5.31h1.63v-48.4h25.67Z"/><rect class="cls-7" x="273.65" y="713.7" width="51.52" height="55.85" rx="5.31" ry="5.31"/><path class="cls-8" d="M304,736.33a4.6,4.6,0,1,0-6.78,4v11h4.36v-11A4.59,4.59,0,0,0,304,736.33Z"/><path class="cls-9" d="M299.41,732.8a3.63,3.63,0,0,0-1.73,6.82v10.9h3.44v-2.21h0v-8.69a3.63,3.63,0,0,0-1.72-6.82Z"/><path class="cls-10" d="M279,769.56h40.89a5.32,5.32,0,0,0,5.32-5.31V719a5.33,5.33,0,0,0-2.69-4.62L277,769.17A5.15,5.15,0,0,0,279,769.56Z"/></g><g id="Key-3" data-name="Key"><path class="cls-6" d="M571.38,714.33h6.93V703.85a5.3,5.3,0,0,0-5.3-5.31H544.08a5.31,5.31,0,0,0-5.31,5.31v43.38a5.32,5.32,0,0,0,5.31,5.32h1.63v-48.4h25.67Z"/><rect class="cls-11" x="532.85" y="728.71" width="51.51" height="55.85" rx="5.31" ry="5.31"/><path class="cls-8" d="M563.2,751.35a4.6,4.6,0,1,0-6.77,4v11h4.36v-11A4.55,4.55,0,0,0,563.2,751.35Z"/><path class="cls-9" d="M558.61,747.81a3.64,3.64,0,0,0-3.64,3.64,3.59,3.59,0,0,0,1.92,3.17v10.91h3.44v-2.2h0v-8.71a3.58,3.58,0,0,0,1.91-3.17A3.63,3.63,0,0,0,558.61,747.81Z"/><path class="cls-10" d="M538.16,784.56h40.89a5.31,5.31,0,0,0,5.32-5.31V734a5.31,5.31,0,0,0-2.69-4.61L536.2,784.19A5.34,5.34,0,0,0,538.16,784.56Z"/></g><g id="Key-4" data-name="Key"><path class="cls-6" d="M1009.44,720.59h6.93V710.1a5.3,5.3,0,0,0-5.31-5.3H982.14a5.31,5.31,0,0,0-5.32,5.3v43.39a5.31,5.31,0,0,0,5.32,5.31h1.62V710.4h25.68Z"/><rect class="cls-12" x="970.91" y="734.97" width="51.52" height="55.86" rx="5.31" ry="5.31"/><path class="cls-8" d="M1001.26,757.6a4.6,4.6,0,1,0-6.78,4v11h4.37v-11A4.58,4.58,0,0,0,1001.26,757.6Z"/><path class="cls-9" d="M996.66,754.07a3.62,3.62,0,0,0-1.72,6.81v10.91h3.44v-2.21h0v-8.7a3.62,3.62,0,0,0-1.73-6.81Z"/><path class="cls-10" d="M976.22,790.83h40.89a5.32,5.32,0,0,0,5.31-5.32V740.28a5.31,5.31,0,0,0-2.68-4.61l-45.48,54.77A5.31,5.31,0,0,0,976.22,790.83Z"/></g></g><g id="Clouds"><path class="cls-13" d="M472.71,458.2h-7.55a61.56,61.56,0,0,0-90.29-68.93,119,119,0,0,0-233.57-.07,65.2,65.2,0,0,0-83.42,71.52,50.67,50.67,0,0,0,15.78,98.82h399a50.67,50.67,0,0,0,0-101.34Z"/><path class="cls-10" d="M472.71,458.2h-7.55a61.56,61.56,0,0,0-90.29-68.93,119,119,0,0,0-116.79-96.2c-1.47,0-2.93.05-4.39.1V559.54h219a50.67,50.67,0,0,0,0-101.34Z"/><path class="cls-13" d="M1196.19,243h-7.55A61.57,61.57,0,0,0,1098.35,174,119,119,0,0,0,864.78,174a65.2,65.2,0,0,0-83.42,71.52,50.67,50.67,0,0,0,15.78,98.81h399.05a50.67,50.67,0,1,0,0-101.33Z"/><path class="cls-10" d="M1196.19,243h-7.55A61.57,61.57,0,0,0,1098.35,174a119,119,0,0,0-116.79-96.2c-1.47,0-2.93,0-4.39.1V344.3h219a50.67,50.67,0,1,0,0-101.33Z"/><path class="cls-13" d="M1025.57,605.61h-5.37a43.85,43.85,0,0,0-42.41-54.92,43.66,43.66,0,0,0-21.86,5.85,84.71,84.71,0,0,0-166.26,0A46.45,46.45,0,0,0,729.84,601a45.59,45.59,0,0,0,.46,6.43,36.06,36.06,0,0,0,11.23,70.33h284a36.06,36.06,0,1,0,0-72.12Z"/><path class="cls-10" d="M1025.57,605.61h-5.37a43.85,43.85,0,0,0-42.41-54.92,43.66,43.66,0,0,0-21.86,5.85,84.72,84.72,0,0,0-83.13-68.47c-1,0-2.09,0-3.12.07V677.73h155.89a36.06,36.06,0,1,0,0-72.12Z"/></g><g id="Computer"><g id="Laptop"><rect class="cls-14" x="56.79" y="971.24" width="166.26" height="7.72"/><path class="cls-15" d="M263.48,877.3H13.41C2,877.3-1.59,884.49.62,893c0-.1,0-.21,0-.31a5.91,5.91,0,0,0,.17,1.76l18.1,68.31c2.74,10.37,5.19,10.7,18.68,10.68l209.09,0c10.86,0,16.15,0,18.3-10.4l14.1-68.57a7.18,7.18,0,0,0,.09-.78h0l.68-5.81C280.84,879.52,269.86,877.3,263.48,877.3ZM.75,891.78c0,.16-.06.32-.08.49C.69,892.1.72,891.94.75,891.78Zm.55-1.59c0,.08-.09.16-.12.23S1.26,890.27,1.3,890.19Zm-.31.74c-.05.13-.1.27-.14.4C.89,891.2.94,891.06,1,890.93Zm10.2-6.68a10.88,10.88,0,0,1,1.14-.06A10.88,10.88,0,0,0,11.19,884.25Zm-6.95,2.58.08-.06Zm.82-.55.16-.1Zm.9-.51.24-.12Zm1-.44.31-.13A2,2,0,0,0,6.92,885.33Zm1-.39.41-.13ZM9,884.62l.51-.11Zm1.09-.23.66-.09Z"/><path class="cls-16" d="M13.41,877.3H263.48c6.38,0,17.36,2.22,16.39,10.57l-.68,5.81c-.92-4.32-6.31-9.49-11.6-9.49H12.33c-5.75,0-11.77,4-11.71,8.81-2.21-8.51,1.33-15.7,12.79-15.7Z"/><polygon class="cls-17" points="13.35 889.02 267.93 888.74 254.2 968.31 29.32 968.37 13.35 889.02"/><path class="cls-18" d="M25.86,975.77H255.44a7,7,0,0,1,6.92,6.91v126.6a7,7,0,0,1-6.92,6.92H25.86a7,7,0,0,1-6.92-6.92V982.68a7,7,0,0,1,6.92-6.91Z"/><rect class="cls-14" x="108.13" y="1073.37" width="65.03" height="34.04"/><rect class="cls-19" x="31.01" y="987.63" width="219.27" height="79.71"/><path class="cls-19" d="M167.11,1090.71c0,8.11-1.4,14.68-3.13,14.68H115.72c-1.73,0-3.13-6.57-3.13-14.68h0c0-8.1,1.4-14.67,3.13-14.67H164c1.73,0,3.13,6.57,3.13,14.67Z"/><g id="Light"><polygon class="cls-20" points="168.75 888.74 115.13 888.74 58.9 968.35 96.46 968.33 168.75 888.74"/><polygon class="cls-20" points="195.33 888.82 125.39 968.33 132.91 968.33 221.03 888.76 195.33 888.82"/></g><g id="Keyboard"><path class="cls-21" d="M35.76,992.34H45.94A1.29,1.29,0,0,1,47,993.76v11a1.29,1.29,0,0,1-1.08,1.42H35.76a1.3,1.3,0,0,1-1.1-1.42v-11a1.3,1.3,0,0,1,1.1-1.42Z"/><path class="cls-21" d="M52.28,992.34H62.45a1.3,1.3,0,0,1,1.1,1.42v11a1.3,1.3,0,0,1-1.1,1.42H52.28a1.3,1.3,0,0,1-1.11-1.42v-11a1.3,1.3,0,0,1,1.11-1.42Z"/><path class="cls-21" d="M68.81,992.34H79a1.3,1.3,0,0,1,1.1,1.42v11a1.3,1.3,0,0,1-1.1,1.42H68.81a1.3,1.3,0,0,1-1.1-1.42v-11a1.3,1.3,0,0,1,1.1-1.42Z"/><path class="cls-21" d="M85.32,992.34H95.48a1.28,1.28,0,0,1,1.1,1.42v11a1.28,1.28,0,0,1-1.1,1.42H85.32a1.3,1.3,0,0,1-1.1-1.42v-11a1.3,1.3,0,0,1,1.1-1.42Z"/><path class="cls-21" d="M101.84,992.34H112a1.3,1.3,0,0,1,1.1,1.42v11a1.3,1.3,0,0,1-1.1,1.42H101.84a1.29,1.29,0,0,1-1.1-1.42v-11a1.29,1.29,0,0,1,1.1-1.42Z"/><path class="cls-21" d="M118.37,992.34h10.16a1.3,1.3,0,0,1,1.1,1.42v11a1.3,1.3,0,0,1-1.1,1.42H118.37a1.3,1.3,0,0,1-1.1-1.42v-11a1.3,1.3,0,0,1,1.1-1.42Z"/><path class="cls-21" d="M134.89,992.34h10.16a1.28,1.28,0,0,1,1.1,1.42v11a1.28,1.28,0,0,1-1.1,1.42H134.89a1.29,1.29,0,0,1-1.1-1.42v-11a1.29,1.29,0,0,1,1.1-1.42Z"/><path class="cls-21" d="M151.4,992.34h10.18a1.3,1.3,0,0,1,1.1,1.42v11a1.3,1.3,0,0,1-1.1,1.42H151.4a1.3,1.3,0,0,1-1.1-1.42v-11a1.3,1.3,0,0,1,1.1-1.42Z"/><path class="cls-21" d="M167.94,992.34H178.1a1.3,1.3,0,0,1,1.1,1.42v11a1.3,1.3,0,0,1-1.1,1.42H167.94a1.28,1.28,0,0,1-1.1-1.42v-11a1.28,1.28,0,0,1,1.1-1.42Z"/><path class="cls-21" d="M184.45,992.34h10.16a1.28,1.28,0,0,1,1.1,1.42v11a1.28,1.28,0,0,1-1.1,1.42H184.45a1.3,1.3,0,0,1-1.1-1.42v-11a1.3,1.3,0,0,1,1.1-1.42Z"/><path class="cls-21" d="M201,992.34h10.18a1.3,1.3,0,0,1,1.1,1.42v11a1.3,1.3,0,0,1-1.1,1.42H201a1.3,1.3,0,0,1-1.1-1.42v-11a1.3,1.3,0,0,1,1.1-1.42Z"/><path class="cls-21" d="M60.56,1011.48H70.72a1.31,1.31,0,0,1,1.1,1.42v11a1.3,1.3,0,0,1-1.1,1.41H60.56a1.3,1.3,0,0,1-1.1-1.41v-11a1.31,1.31,0,0,1,1.1-1.42Z"/><path class="cls-21" d="M77.08,1011.48H87.25a1.31,1.31,0,0,1,1.11,1.42v11a1.3,1.3,0,0,1-1.11,1.41H77.08a1.3,1.3,0,0,1-1.11-1.41v-11a1.31,1.31,0,0,1,1.11-1.42Z"/><path class="cls-21" d="M93.59,1011.48h10.18a1.31,1.31,0,0,1,1.1,1.42v11a1.3,1.3,0,0,1-1.1,1.41H93.59a1.28,1.28,0,0,1-1.08-1.41v-11c0-.77.48-1.42,1.08-1.42Z"/><path class="cls-21" d="M110.13,1011.48h10.15a1.3,1.3,0,0,1,1.1,1.42v11a1.29,1.29,0,0,1-1.1,1.41H110.13a1.29,1.29,0,0,1-1.1-1.41v-11a1.3,1.3,0,0,1,1.1-1.42Z"/><path class="cls-21" d="M126.64,1011.48h10.18c.6,0,1.08.65,1.08,1.42v11a1.28,1.28,0,0,1-1.08,1.41H126.64a1.3,1.3,0,0,1-1.1-1.41v-11a1.31,1.31,0,0,1,1.1-1.42Z"/><path class="cls-21" d="M143.16,1011.48h10.17a1.3,1.3,0,0,1,1.1,1.42v11a1.29,1.29,0,0,1-1.1,1.41H143.16a1.3,1.3,0,0,1-1.11-1.41v-11a1.31,1.31,0,0,1,1.11-1.42Z"/><path class="cls-21" d="M159.69,1011.48h10.16a1.31,1.31,0,0,1,1.1,1.42v11a1.3,1.3,0,0,1-1.1,1.41H159.69a1.3,1.3,0,0,1-1.1-1.41v-11a1.31,1.31,0,0,1,1.1-1.42Z"/><path class="cls-21" d="M176.21,1011.48h10.17c.61,0,1.08.65,1.08,1.42v11a1.27,1.27,0,0,1-1.08,1.41H176.21a1.29,1.29,0,0,1-1.1-1.41v-11a1.3,1.3,0,0,1,1.1-1.42Z"/><path class="cls-21" d="M192.72,1011.48H202.9a1.31,1.31,0,0,1,1.1,1.42v11a1.3,1.3,0,0,1-1.1,1.41H192.72a1.3,1.3,0,0,1-1.1-1.41v-11a1.31,1.31,0,0,1,1.1-1.42Z"/><path class="cls-21" d="M209.26,1011.48h10.16a1.31,1.31,0,0,1,1.1,1.42v11a1.3,1.3,0,0,1-1.1,1.41H209.26a1.3,1.3,0,0,1-1.11-1.41v-11a1.31,1.31,0,0,1,1.11-1.42Z"/><path class="cls-21" d="M217.5,992.34h10.16a1.3,1.3,0,0,1,1.1,1.42v11a1.3,1.3,0,0,1-1.1,1.42H217.5a1.28,1.28,0,0,1-1.1-1.42v-11a1.28,1.28,0,0,1,1.1-1.42Z"/><path class="cls-21" d="M234,992.34h10.16a1.29,1.29,0,0,1,1.1,1.42v11a1.29,1.29,0,0,1-1.1,1.42H234a1.3,1.3,0,0,1-1.1-1.42v-11a1.3,1.3,0,0,1,1.1-1.42Z"/><path class="cls-21" d="M226,1011.48h18.13a1.3,1.3,0,0,1,1.1,1.42v11a1.29,1.29,0,0,1-1.1,1.41H226a1.3,1.3,0,0,1-1.1-1.41v-11a1.31,1.31,0,0,1,1.1-1.42Z"/><path class="cls-21" d="M35.93,1011.48H54.75a1.31,1.31,0,0,1,1.1,1.42v11a1.3,1.3,0,0,1-1.1,1.41H35.93a1.27,1.27,0,0,1-1.1-1.41v-11a1.28,1.28,0,0,1,1.1-1.42Z"/><path class="cls-21" d="M35.93,1030.63H58.4a1.29,1.29,0,0,1,1.1,1.41v11a1.3,1.3,0,0,1-1.1,1.42H35.93a1.28,1.28,0,0,1-1.1-1.42v-11a1.27,1.27,0,0,1,1.1-1.41Z"/><path class="cls-21" d="M35.93,1049.78H46.06a1.3,1.3,0,0,1,1.11,1.41v11a1.3,1.3,0,0,1-1.11,1.41H35.93a1.27,1.27,0,0,1-1.1-1.41v-11a1.27,1.27,0,0,1,1.1-1.41Z"/><path class="cls-21" d="M52.42,1049.78H62.56a1.3,1.3,0,0,1,1.1,1.41v11a1.29,1.29,0,0,1-1.1,1.41H52.42a1.29,1.29,0,0,1-1.1-1.41v-11a1.3,1.3,0,0,1,1.1-1.41Z"/><path class="cls-21" d="M68.91,1049.78H79.05a1.27,1.27,0,0,1,1.1,1.41v11a1.27,1.27,0,0,1-1.1,1.41H68.91a1.29,1.29,0,0,1-1.1-1.41v-11a1.3,1.3,0,0,1,1.1-1.41Z"/><path class="cls-21" d="M85.41,1049.78H191a1.28,1.28,0,0,1,1.1,1.41v11a1.27,1.27,0,0,1-1.1,1.41H85.41a1.29,1.29,0,0,1-1.1-1.41v-11a1.3,1.3,0,0,1,1.1-1.41Z"/><path class="cls-21" d="M64.51,1030.82H74.67a1.3,1.3,0,0,1,1.1,1.41v11a1.31,1.31,0,0,1-1.1,1.42H64.51a1.31,1.31,0,0,1-1.1-1.42v-11a1.3,1.3,0,0,1,1.1-1.41Z"/><path class="cls-21" d="M81,1030.82H91.2a1.3,1.3,0,0,1,1.1,1.41v11a1.31,1.31,0,0,1-1.1,1.42H81a1.31,1.31,0,0,1-1.11-1.42v-11a1.3,1.3,0,0,1,1.11-1.41Z"/><path class="cls-21" d="M97.54,1030.82h10.18a1.3,1.3,0,0,1,1.1,1.41v11a1.31,1.31,0,0,1-1.1,1.42H97.54c-.61,0-1.08-.65-1.08-1.42v-11a1.27,1.27,0,0,1,1.08-1.41Z"/><path class="cls-21" d="M114.07,1030.82h10.16a1.29,1.29,0,0,1,1.1,1.41v11a1.3,1.3,0,0,1-1.1,1.42H114.07a1.31,1.31,0,0,1-1.1-1.42v-11a1.3,1.3,0,0,1,1.1-1.41Z"/><path class="cls-21" d="M130.59,1030.82h10.18a1.28,1.28,0,0,1,1.08,1.41v11c0,.77-.48,1.42-1.08,1.42H130.59a1.3,1.3,0,0,1-1.1-1.42v-11a1.29,1.29,0,0,1,1.1-1.41Z"/><path class="cls-21" d="M147.1,1030.82h10.18a1.3,1.3,0,0,1,1.1,1.41v11a1.31,1.31,0,0,1-1.1,1.42H147.1a1.31,1.31,0,0,1-1.1-1.42v-11a1.3,1.3,0,0,1,1.1-1.41Z"/><path class="cls-21" d="M163.64,1030.82H173.8a1.3,1.3,0,0,1,1.1,1.41v11a1.31,1.31,0,0,1-1.1,1.42H163.64a1.3,1.3,0,0,1-1.1-1.42v-11a1.29,1.29,0,0,1,1.1-1.41Z"/><path class="cls-21" d="M180.15,1030.82h10.18a1.28,1.28,0,0,1,1.08,1.41v11c0,.77-.48,1.42-1.08,1.42H180.15a1.31,1.31,0,0,1-1.1-1.42v-11a1.3,1.3,0,0,1,1.1-1.41Z"/><path class="cls-21" d="M196.66,1030.82h18.93a1.3,1.3,0,0,1,1.1,1.41v11a1.31,1.31,0,0,1-1.1,1.42H196.66a1.3,1.3,0,0,1-1.09-1.42v-11a1.29,1.29,0,0,1,1.09-1.41Z"/><path class="cls-21" d="M221.57,1030.63h22.5a1.3,1.3,0,0,1,1.1,1.41v11a1.31,1.31,0,0,1-1.1,1.42h-22.5a1.31,1.31,0,0,1-1.1-1.42v-11a1.3,1.3,0,0,1,1.1-1.41Z"/><path class="cls-21" d="M223.59,1049.78h8.47a.45.45,0,0,1,.4.47v3.81a.46.46,0,0,1-.4.48h-8.47a.44.44,0,0,1-.37-.48v-3.81a.42.42,0,0,1,.37-.47Z"/><path class="cls-21" d="M223.59,1058h8.47a.45.45,0,0,1,.4.48v3.77a.45.45,0,0,1-.4.48h-8.47c-.21,0-.37-.21-.37-.48v-3.77c0-.27.16-.48.37-.48Z"/><path class="cls-21" d="M211,1058h8.48a.45.45,0,0,1,.39.48v3.77a.45.45,0,0,1-.39.48H211c-.21,0-.37-.21-.37-.48v-3.77c0-.27.16-.48.37-.48Z"/><path class="cls-21" d="M236.14,1058h8.47c.21,0,.37.21.37.48v3.77c0,.27-.16.48-.37.48h-8.47a.45.45,0,0,1-.4-.48v-3.77a.45.45,0,0,1,.4-.48Z"/><path class="cls-21" d="M196.27,1049.78h10.18a1.3,1.3,0,0,1,1.1,1.41v11a1.29,1.29,0,0,1-1.1,1.41H196.27a1.29,1.29,0,0,1-1.1-1.41v-11a1.3,1.3,0,0,1,1.1-1.41Z"/></g></g><g id="Laptop-2" data-name="Laptop"><rect class="cls-14" x="533.23" y="971.24" width="166.26" height="7.72"/><path class="cls-15" d="M739.93,877.3H489.85c-11.46,0-15,7.19-12.79,15.7,0-.1,0-.21,0-.31a5.61,5.61,0,0,0,.18,1.76l18.1,68.31c2.73,10.37,5.18,10.7,18.68,10.68l209.09,0c10.86,0,16.14,0,18.3-10.4l14.09-68.57a7.24,7.24,0,0,0,.1-.78h0l.68-5.81C757.28,879.52,746.3,877.3,739.93,877.3ZM477.19,891.78c0,.16-.06.32-.08.49C477.13,892.1,477.16,891.94,477.19,891.78Zm.55-1.59c0,.08-.09.16-.12.23S477.7,890.27,477.74,890.19Zm-.31.74c-.05.13-.1.27-.14.4C477.33,891.2,477.38,891.06,477.43,890.93Zm10.21-6.68a10.69,10.69,0,0,1,1.13-.06A10.69,10.69,0,0,0,487.64,884.25Zm-7,2.58.08-.06Zm.83-.55.15-.1Zm.89-.51a1.34,1.34,0,0,0,.24-.12A1.34,1.34,0,0,1,482.4,885.77Zm1-.44.32-.13A1.79,1.79,0,0,0,483.36,885.33Zm1-.39.41-.13Zm1.06-.32.51-.11Zm1.09-.23.66-.09Z"/><path class="cls-16" d="M489.85,877.3H739.93c6.37,0,17.35,2.22,16.39,10.57l-.68,5.81c-.93-4.32-6.32-9.49-11.61-9.49H488.77c-5.75,0-11.76,4-11.71,8.81-2.21-8.51,1.33-15.7,12.79-15.7Z"/><polygon class="cls-17" points="489.79 889.02 744.37 888.74 730.64 968.31 505.76 968.37 489.79 889.02"/><path class="cls-18" d="M502.3,975.77H731.89a6.94,6.94,0,0,1,6.91,6.91v126.6a7,7,0,0,1-6.91,6.92H502.3a7,7,0,0,1-6.92-6.92V982.68a7,7,0,0,1,6.92-6.91Z"/><rect class="cls-14" x="584.57" y="1073.37" width="65.03" height="34.04"/><rect class="cls-19" x="507.46" y="987.63" width="219.27" height="79.71"/><path class="cls-19" d="M643.56,1090.71c0,8.11-1.41,14.68-3.14,14.68H592.16c-1.73,0-3.13-6.57-3.13-14.68h0c0-8.1,1.4-14.67,3.13-14.67h48.26c1.73,0,3.14,6.57,3.14,14.67Z"/><g id="Light-2" data-name="Light"><polygon class="cls-20" points="645.19 888.74 591.57 888.74 535.35 968.35 572.9 968.33 645.19 888.74"/><polygon class="cls-20" points="671.78 888.82 601.83 968.33 609.35 968.33 697.47 888.76 671.78 888.82"/></g><g id="Keyboard-2" data-name="Keyboard"><path class="cls-21" d="M512.2,992.34h10.18c.61,0,1.08.64,1.08,1.42v11c0,.78-.47,1.42-1.08,1.42H512.2a1.3,1.3,0,0,1-1.1-1.42v-11a1.3,1.3,0,0,1,1.1-1.42Z"/><path class="cls-21" d="M528.72,992.34h10.17a1.3,1.3,0,0,1,1.11,1.42v11a1.3,1.3,0,0,1-1.11,1.42H528.72a1.31,1.31,0,0,1-1.11-1.42v-11a1.31,1.31,0,0,1,1.11-1.42Z"/><path class="cls-21" d="M545.26,992.34h10.15a1.3,1.3,0,0,1,1.1,1.42v11a1.3,1.3,0,0,1-1.1,1.42H545.26a1.3,1.3,0,0,1-1.11-1.42v-11a1.3,1.3,0,0,1,1.11-1.42Z"/><path class="cls-21" d="M561.77,992.34h10.15a1.28,1.28,0,0,1,1.11,1.42v11a1.28,1.28,0,0,1-1.11,1.42H561.77a1.3,1.3,0,0,1-1.1-1.42v-11a1.3,1.3,0,0,1,1.1-1.42Z"/><path class="cls-21" d="M578.28,992.34h10.18a1.3,1.3,0,0,1,1.1,1.42v11a1.3,1.3,0,0,1-1.1,1.42H578.28a1.3,1.3,0,0,1-1.1-1.42v-11a1.3,1.3,0,0,1,1.1-1.42Z"/><path class="cls-21" d="M594.82,992.34H605a1.3,1.3,0,0,1,1.11,1.42v11a1.3,1.3,0,0,1-1.11,1.42H594.82a1.31,1.31,0,0,1-1.11-1.42v-11a1.31,1.31,0,0,1,1.11-1.42Z"/><path class="cls-21" d="M611.33,992.34h10.16a1.28,1.28,0,0,1,1.1,1.42v11a1.28,1.28,0,0,1-1.1,1.42H611.33a1.3,1.3,0,0,1-1.1-1.42v-11a1.3,1.3,0,0,1,1.1-1.42Z"/><path class="cls-21" d="M627.84,992.34H638a1.31,1.31,0,0,1,1.1,1.42v11a1.31,1.31,0,0,1-1.1,1.42H627.84a1.3,1.3,0,0,1-1.1-1.42v-11a1.3,1.3,0,0,1,1.1-1.42Z"/><path class="cls-21" d="M644.38,992.34h10.16a1.3,1.3,0,0,1,1.1,1.42v11a1.3,1.3,0,0,1-1.1,1.42H644.38a1.28,1.28,0,0,1-1.1-1.42v-11a1.28,1.28,0,0,1,1.1-1.42Z"/><path class="cls-21" d="M660.9,992.34h10.15a1.28,1.28,0,0,1,1.11,1.42v11a1.28,1.28,0,0,1-1.11,1.42H660.9a1.3,1.3,0,0,1-1.11-1.42v-11a1.3,1.3,0,0,1,1.11-1.42Z"/><path class="cls-21" d="M677.41,992.34h10.18a1.3,1.3,0,0,1,1.1,1.42v11a1.3,1.3,0,0,1-1.1,1.42H677.41a1.3,1.3,0,0,1-1.1-1.42v-11a1.3,1.3,0,0,1,1.1-1.42Z"/><path class="cls-21" d="M537,1011.48h10.16a1.31,1.31,0,0,1,1.09,1.42v11a1.3,1.3,0,0,1-1.09,1.41H537a1.29,1.29,0,0,1-1.1-1.41v-11a1.3,1.3,0,0,1,1.1-1.42Z"/><path class="cls-21" d="M553.52,1011.48H563.7a1.31,1.31,0,0,1,1.1,1.42v11a1.3,1.3,0,0,1-1.1,1.41H553.52a1.3,1.3,0,0,1-1.1-1.41v-11a1.31,1.31,0,0,1,1.1-1.42Z"/><path class="cls-21" d="M570,1011.48h10.18a1.31,1.31,0,0,1,1.11,1.42v11a1.3,1.3,0,0,1-1.11,1.41H570a1.28,1.28,0,0,1-1.08-1.41v-11c0-.77.48-1.42,1.08-1.42Z"/><path class="cls-21" d="M586.57,1011.48h10.16a1.31,1.31,0,0,1,1.1,1.42v11a1.3,1.3,0,0,1-1.1,1.41H586.57a1.29,1.29,0,0,1-1.1-1.41v-11a1.3,1.3,0,0,1,1.1-1.42Z"/><path class="cls-21" d="M603.08,1011.48h10.18c.6,0,1.08.65,1.08,1.42v11a1.28,1.28,0,0,1-1.08,1.41H603.08a1.3,1.3,0,0,1-1.1-1.41v-11a1.31,1.31,0,0,1,1.1-1.42Z"/><path class="cls-21" d="M619.6,1011.48h10.18a1.31,1.31,0,0,1,1.1,1.42v11a1.3,1.3,0,0,1-1.1,1.41H619.6a1.3,1.3,0,0,1-1.1-1.41v-11a1.31,1.31,0,0,1,1.1-1.42Z"/><path class="cls-21" d="M636.13,1011.48h10.16a1.3,1.3,0,0,1,1.1,1.42v11a1.29,1.29,0,0,1-1.1,1.41H636.13a1.3,1.3,0,0,1-1.1-1.41v-11a1.31,1.31,0,0,1,1.1-1.42Z"/><path class="cls-21" d="M652.65,1011.48h10.18c.6,0,1.08.65,1.08,1.42v11a1.28,1.28,0,0,1-1.08,1.41H652.65a1.3,1.3,0,0,1-1.1-1.41v-11a1.31,1.31,0,0,1,1.1-1.42Z"/><path class="cls-21" d="M669.16,1011.48h10.18a1.31,1.31,0,0,1,1.1,1.42v11a1.3,1.3,0,0,1-1.1,1.41H669.16a1.3,1.3,0,0,1-1.1-1.41v-11a1.31,1.31,0,0,1,1.1-1.42Z"/><path class="cls-21" d="M685.7,1011.48h10.16a1.31,1.31,0,0,1,1.1,1.42v11a1.3,1.3,0,0,1-1.1,1.41H685.7a1.3,1.3,0,0,1-1.11-1.41v-11a1.31,1.31,0,0,1,1.11-1.42Z"/><path class="cls-21" d="M694,992.34H704.1a1.3,1.3,0,0,1,1.11,1.42v11a1.3,1.3,0,0,1-1.11,1.42H694a1.28,1.28,0,0,1-1.11-1.42v-11a1.28,1.28,0,0,1,1.11-1.42Z"/><path class="cls-21" d="M710.46,992.34h10.16a1.3,1.3,0,0,1,1.1,1.42v11a1.3,1.3,0,0,1-1.1,1.42H710.46a1.3,1.3,0,0,1-1.1-1.42v-11a1.3,1.3,0,0,1,1.1-1.42Z"/><path class="cls-21" d="M702.48,1011.48h18.14a1.31,1.31,0,0,1,1.1,1.42v11a1.3,1.3,0,0,1-1.1,1.41H702.48a1.3,1.3,0,0,1-1.1-1.41v-11a1.31,1.31,0,0,1,1.1-1.42Z"/><path class="cls-21" d="M512.37,1011.48h18.82a1.31,1.31,0,0,1,1.1,1.42v11a1.3,1.3,0,0,1-1.1,1.41H512.37a1.27,1.27,0,0,1-1.1-1.41v-11a1.28,1.28,0,0,1,1.1-1.42Z"/><path class="cls-21" d="M512.37,1030.63h22.47A1.3,1.3,0,0,1,536,1032v11a1.31,1.31,0,0,1-1.11,1.42H512.37a1.28,1.28,0,0,1-1.1-1.42v-11a1.27,1.27,0,0,1,1.1-1.41Z"/><path class="cls-21" d="M512.37,1049.78h10.14a1.3,1.3,0,0,1,1.1,1.41v11a1.29,1.29,0,0,1-1.1,1.41H512.37a1.27,1.27,0,0,1-1.1-1.41v-11a1.27,1.27,0,0,1,1.1-1.41Z"/><path class="cls-21" d="M528.86,1049.78H539a1.3,1.3,0,0,1,1.1,1.41v11a1.29,1.29,0,0,1-1.1,1.41H528.86a1.29,1.29,0,0,1-1.1-1.41v-11a1.3,1.3,0,0,1,1.1-1.41Z"/><path class="cls-21" d="M545.36,1049.78h10.13a1.27,1.27,0,0,1,1.1,1.41v11a1.27,1.27,0,0,1-1.1,1.41H545.36a1.28,1.28,0,0,1-1.1-1.41v-11a1.29,1.29,0,0,1,1.1-1.41Z"/><path class="cls-21" d="M561.85,1049.78H667.48a1.28,1.28,0,0,1,1.1,1.41v11a1.27,1.27,0,0,1-1.1,1.41H561.85a1.29,1.29,0,0,1-1.1-1.41v-11a1.3,1.3,0,0,1,1.1-1.41Z"/><path class="cls-21" d="M541,1030.82h10.16a1.3,1.3,0,0,1,1.1,1.41v11a1.31,1.31,0,0,1-1.1,1.42H541a1.31,1.31,0,0,1-1.1-1.42v-11a1.3,1.3,0,0,1,1.1-1.41Z"/><path class="cls-21" d="M557.47,1030.82h10.17a1.3,1.3,0,0,1,1.11,1.41v11a1.31,1.31,0,0,1-1.11,1.42H557.47a1.31,1.31,0,0,1-1.11-1.42v-11a1.3,1.3,0,0,1,1.11-1.41Z"/><path class="cls-21" d="M574,1030.82h10.18a1.3,1.3,0,0,1,1.1,1.41v11a1.31,1.31,0,0,1-1.1,1.42H574c-.6,0-1.08-.65-1.08-1.42v-11a1.28,1.28,0,0,1,1.08-1.41Z"/><path class="cls-21" d="M590.52,1030.82h10.15a1.3,1.3,0,0,1,1.11,1.41v11a1.31,1.31,0,0,1-1.11,1.42H590.52a1.3,1.3,0,0,1-1.1-1.42v-11a1.29,1.29,0,0,1,1.1-1.41Z"/><path class="cls-21" d="M607,1030.82h10.18a1.28,1.28,0,0,1,1.08,1.41v11c0,.77-.48,1.42-1.08,1.42H607a1.31,1.31,0,0,1-1.1-1.42v-11a1.3,1.3,0,0,1,1.1-1.41Z"/><path class="cls-21" d="M623.55,1030.82h10.17a1.3,1.3,0,0,1,1.11,1.41v11a1.31,1.31,0,0,1-1.11,1.42H623.55a1.31,1.31,0,0,1-1.11-1.42v-11a1.3,1.3,0,0,1,1.11-1.41Z"/><path class="cls-21" d="M640.08,1030.82h10.16a1.3,1.3,0,0,1,1.1,1.41v11a1.31,1.31,0,0,1-1.1,1.42H640.08a1.31,1.31,0,0,1-1.1-1.42v-11a1.3,1.3,0,0,1,1.1-1.41Z"/><path class="cls-21" d="M656.59,1030.82h10.19c.59,0,1.07.64,1.07,1.41v11c0,.77-.48,1.42-1.07,1.42H656.59a1.31,1.31,0,0,1-1.1-1.42v-11a1.3,1.3,0,0,1,1.1-1.41Z"/><path class="cls-21" d="M673.11,1030.82H692a1.3,1.3,0,0,1,1.1,1.41v11a1.31,1.31,0,0,1-1.1,1.42H673.11a1.31,1.31,0,0,1-1.1-1.42v-11a1.3,1.3,0,0,1,1.1-1.41Z"/><path class="cls-21" d="M698,1030.63h22.5a1.3,1.3,0,0,1,1.11,1.41v11a1.31,1.31,0,0,1-1.11,1.42H698a1.3,1.3,0,0,1-1.09-1.42v-11a1.29,1.29,0,0,1,1.09-1.41Z"/><path class="cls-21" d="M700,1049.78h8.48a.45.45,0,0,1,.39.47v3.81a.46.46,0,0,1-.39.48H700a.44.44,0,0,1-.37-.48v-3.81a.43.43,0,0,1,.37-.47Z"/><path class="cls-21" d="M700,1058h8.48a.45.45,0,0,1,.39.48v3.77a.45.45,0,0,1-.39.48H700a.44.44,0,0,1-.37-.48v-3.77a.44.44,0,0,1,.37-.48Z"/><path class="cls-21" d="M687.46,1058h8.48a.45.45,0,0,1,.4.48v3.77a.45.45,0,0,1-.4.48h-8.48a.44.44,0,0,1-.37-.48v-3.77a.44.44,0,0,1,.37-.48Z"/><path class="cls-21" d="M712.58,1058h8.47a.44.44,0,0,1,.38.48v3.77a.44.44,0,0,1-.38.48h-8.47a.45.45,0,0,1-.4-.48v-3.77a.45.45,0,0,1,.4-.48Z"/><path class="cls-21" d="M672.71,1049.78h10.18a1.3,1.3,0,0,1,1.11,1.41v11a1.29,1.29,0,0,1-1.11,1.41H672.71a1.28,1.28,0,0,1-1.09-1.41v-11a1.29,1.29,0,0,1,1.09-1.41Z"/></g></g><g id="Laptop-3" data-name="Laptop"><rect class="cls-14" x="990.04" y="971.24" width="166.26" height="7.72"/><path class="cls-15" d="M1196.74,877.3H946.67c-11.46,0-15,7.19-12.79,15.7,0-.1,0-.21,0-.31a5.93,5.93,0,0,0,.18,1.76l18.1,68.31c2.73,10.37,5.19,10.7,18.68,10.68l209.09,0c10.86,0,16.15,0,18.3-10.4l14.09-68.57a5.37,5.37,0,0,0,.1-.78h0l.68-5.81C1214.1,879.52,1203.11,877.3,1196.74,877.3ZM934,891.78c0,.16-.06.32-.08.49C934,892.1,934,891.94,934,891.78Zm.54-1.59-.12.23Zm-.31.74c0,.13-.1.27-.13.4Zm10.21-6.68a10.84,10.84,0,0,1,1.13-.06A10.84,10.84,0,0,0,944.45,884.25Zm-7,2.58.07-.06Zm.82-.55.16-.1Zm.89-.51.24-.12Zm1-.44.31-.13A1.69,1.69,0,0,0,940.18,885.33Zm1-.39.41-.13Zm1-.32.52-.11Zm1.1-.23.66-.09Z"/><path class="cls-16" d="M946.67,877.3h250.07c6.37,0,17.36,2.22,16.39,10.57l-.68,5.81c-.93-4.32-6.32-9.49-11.61-9.49H945.58c-5.75,0-11.76,4-11.7,8.81-2.21-8.51,1.33-15.7,12.79-15.7Z"/><polygon class="cls-17" points="946.61 889.02 1201.18 888.74 1187.45 968.31 962.58 968.37 946.61 889.02"/><path class="cls-18" d="M959.12,975.77H1188.7a7,7,0,0,1,6.92,6.91v126.6a7,7,0,0,1-6.92,6.92H959.12a7,7,0,0,1-6.92-6.92V982.68a7,7,0,0,1,6.92-6.91Z"/><rect class="cls-14" x="1041.38" y="1073.37" width="65.03" height="34.04"/><rect class="cls-19" x="964.27" y="987.63" width="219.27" height="79.71"/><path class="cls-19" d="M1100.37,1090.71c0,8.11-1.4,14.68-3.13,14.68H1049c-1.73,0-3.14-6.57-3.14-14.68h0c0-8.1,1.41-14.67,3.14-14.67h48.26c1.73,0,3.13,6.57,3.13,14.67Z"/><g id="Light-3" data-name="Light"><polygon class="cls-20" points="1102.01 888.74 1048.38 888.74 992.16 968.35 1029.71 968.33 1102.01 888.74"/><polygon class="cls-20" points="1128.59 888.82 1058.65 968.33 1066.16 968.33 1154.29 888.76 1128.59 888.82"/></g><g id="Keyboard-3" data-name="Keyboard"><path class="cls-21" d="M969,992.34H979.2c.6,0,1.07.64,1.07,1.42v11c0,.78-.47,1.42-1.07,1.42H969a1.31,1.31,0,0,1-1.11-1.42v-11a1.31,1.31,0,0,1,1.11-1.42Z"/><path class="cls-21" d="M985.53,992.34h10.18a1.3,1.3,0,0,1,1.1,1.42v11a1.3,1.3,0,0,1-1.1,1.42H985.53a1.3,1.3,0,0,1-1.1-1.42v-11a1.3,1.3,0,0,1,1.1-1.42Z"/><path class="cls-21" d="M1002.07,992.34h10.15a1.3,1.3,0,0,1,1.11,1.42v11a1.3,1.3,0,0,1-1.11,1.42h-10.15a1.31,1.31,0,0,1-1.11-1.42v-11a1.31,1.31,0,0,1,1.11-1.42Z"/><path class="cls-21" d="M1018.58,992.34h10.16a1.28,1.28,0,0,1,1.1,1.42v11a1.28,1.28,0,0,1-1.1,1.42h-10.16a1.3,1.3,0,0,1-1.1-1.42v-11a1.3,1.3,0,0,1,1.1-1.42Z"/><path class="cls-21" d="M1035.1,992.34h10.17a1.3,1.3,0,0,1,1.11,1.42v11a1.3,1.3,0,0,1-1.11,1.42H1035.1a1.29,1.29,0,0,1-1.1-1.42v-11a1.29,1.29,0,0,1,1.1-1.42Z"/><path class="cls-21" d="M1051.63,992.34h10.16a1.3,1.3,0,0,1,1.1,1.42v11a1.3,1.3,0,0,1-1.1,1.42h-10.16a1.3,1.3,0,0,1-1.1-1.42v-11a1.3,1.3,0,0,1,1.1-1.42Z"/><path class="cls-21" d="M1068.15,992.34h10.15a1.28,1.28,0,0,1,1.11,1.42v11a1.28,1.28,0,0,1-1.11,1.42h-10.15a1.29,1.29,0,0,1-1.1-1.42v-11a1.29,1.29,0,0,1,1.1-1.42Z"/><path class="cls-21" d="M1084.66,992.34h10.18a1.3,1.3,0,0,1,1.1,1.42v11a1.3,1.3,0,0,1-1.1,1.42h-10.18a1.29,1.29,0,0,1-1.1-1.42v-11a1.29,1.29,0,0,1,1.1-1.42Z"/><path class="cls-21" d="M1101.2,992.34h10.15a1.31,1.31,0,0,1,1.11,1.42v11a1.31,1.31,0,0,1-1.11,1.42H1101.2a1.28,1.28,0,0,1-1.11-1.42v-11a1.28,1.28,0,0,1,1.11-1.42Z"/><path class="cls-21" d="M1117.71,992.34h10.16a1.28,1.28,0,0,1,1.1,1.42v11a1.28,1.28,0,0,1-1.1,1.42h-10.16a1.3,1.3,0,0,1-1.1-1.42v-11a1.3,1.3,0,0,1,1.1-1.42Z"/><path class="cls-21" d="M1134.22,992.34h10.19a1.3,1.3,0,0,1,1.09,1.42v11a1.3,1.3,0,0,1-1.09,1.42h-10.19a1.29,1.29,0,0,1-1.09-1.42v-11a1.29,1.29,0,0,1,1.09-1.42Z"/><path class="cls-21" d="M993.82,1011.48H1004a1.31,1.31,0,0,1,1.1,1.42v11a1.3,1.3,0,0,1-1.1,1.41H993.82a1.3,1.3,0,0,1-1.1-1.41v-11a1.31,1.31,0,0,1,1.1-1.42Z"/><path class="cls-21" d="M1010.33,1011.48h10.18a1.31,1.31,0,0,1,1.11,1.42v11a1.3,1.3,0,0,1-1.11,1.41h-10.18a1.3,1.3,0,0,1-1.1-1.41v-11a1.31,1.31,0,0,1,1.1-1.42Z"/><path class="cls-21" d="M1026.85,1011.48H1037a1.31,1.31,0,0,1,1.1,1.42v11a1.3,1.3,0,0,1-1.1,1.41h-10.18a1.27,1.27,0,0,1-1.08-1.41v-11c0-.77.47-1.42,1.08-1.42Z"/><path class="cls-21" d="M1043.38,1011.48h10.16a1.31,1.31,0,0,1,1.1,1.42v11a1.3,1.3,0,0,1-1.1,1.41h-10.16a1.3,1.3,0,0,1-1.1-1.41v-11a1.31,1.31,0,0,1,1.1-1.42Z"/><path class="cls-21" d="M1059.9,1011.48h10.18c.6,0,1.08.65,1.08,1.42v11a1.28,1.28,0,0,1-1.08,1.41H1059.9a1.29,1.29,0,0,1-1.1-1.41v-11a1.3,1.3,0,0,1,1.1-1.42Z"/><path class="cls-21" d="M1076.41,1011.48h10.18a1.31,1.31,0,0,1,1.1,1.42v11a1.3,1.3,0,0,1-1.1,1.41h-10.18a1.3,1.3,0,0,1-1.1-1.41v-11a1.31,1.31,0,0,1,1.1-1.42Z"/><path class="cls-21" d="M1093,1011.48h10.16a1.31,1.31,0,0,1,1.1,1.42v11a1.3,1.3,0,0,1-1.1,1.41H1093a1.29,1.29,0,0,1-1.1-1.41v-11a1.3,1.3,0,0,1,1.1-1.42Z"/><path class="cls-21" d="M1109.46,1011.48h10.18c.6,0,1.08.65,1.08,1.42v11a1.28,1.28,0,0,1-1.08,1.41h-10.18a1.3,1.3,0,0,1-1.1-1.41v-11a1.31,1.31,0,0,1,1.1-1.42Z"/><path class="cls-21" d="M1126,1011.48h10.18a1.3,1.3,0,0,1,1.1,1.42v11a1.29,1.29,0,0,1-1.1,1.41H1126a1.29,1.29,0,0,1-1.09-1.41v-11a1.3,1.3,0,0,1,1.09-1.42Z"/><path class="cls-21" d="M1142.51,1011.48h10.16a1.31,1.31,0,0,1,1.1,1.42v11a1.3,1.3,0,0,1-1.1,1.41h-10.16a1.3,1.3,0,0,1-1.1-1.41v-11a1.31,1.31,0,0,1,1.1-1.42Z"/><path class="cls-21" d="M1150.76,992.34h10.16a1.3,1.3,0,0,1,1.1,1.42v11a1.3,1.3,0,0,1-1.1,1.42h-10.16a1.28,1.28,0,0,1-1.1-1.42v-11a1.28,1.28,0,0,1,1.1-1.42Z"/><path class="cls-21" d="M1167.27,992.34h10.16a1.3,1.3,0,0,1,1.1,1.42v11a1.3,1.3,0,0,1-1.1,1.42h-10.16a1.3,1.3,0,0,1-1.1-1.42v-11a1.3,1.3,0,0,1,1.1-1.42Z"/><path class="cls-21" d="M1159.3,1011.48h18.13a1.31,1.31,0,0,1,1.1,1.42v11a1.3,1.3,0,0,1-1.1,1.41H1159.3a1.3,1.3,0,0,1-1.11-1.41v-11a1.31,1.31,0,0,1,1.11-1.42Z"/><path class="cls-21" d="M969.18,1011.48H988a1.31,1.31,0,0,1,1.1,1.42v11a1.3,1.3,0,0,1-1.1,1.41H969.18a1.28,1.28,0,0,1-1.1-1.41v-11a1.29,1.29,0,0,1,1.1-1.42Z"/><path class="cls-21" d="M969.18,1030.63h22.48a1.3,1.3,0,0,1,1.1,1.41v11a1.31,1.31,0,0,1-1.1,1.42H969.18a1.29,1.29,0,0,1-1.1-1.42v-11a1.28,1.28,0,0,1,1.1-1.41Z"/><path class="cls-21" d="M969.18,1049.78h10.14a1.3,1.3,0,0,1,1.1,1.41v11a1.29,1.29,0,0,1-1.1,1.41H969.18a1.27,1.27,0,0,1-1.1-1.41v-11a1.28,1.28,0,0,1,1.1-1.41Z"/><path class="cls-21" d="M985.68,1049.78h10.13a1.3,1.3,0,0,1,1.11,1.41v11a1.29,1.29,0,0,1-1.11,1.41H985.68a1.29,1.29,0,0,1-1.1-1.41v-11a1.3,1.3,0,0,1,1.1-1.41Z"/><path class="cls-21" d="M1002.17,1049.78h10.14a1.28,1.28,0,0,1,1.1,1.41v11a1.27,1.27,0,0,1-1.1,1.41h-10.14a1.29,1.29,0,0,1-1.1-1.41v-11a1.3,1.3,0,0,1,1.1-1.41Z"/><path class="cls-21" d="M1018.66,1049.78h105.63a1.28,1.28,0,0,1,1.1,1.41v11a1.27,1.27,0,0,1-1.1,1.41H1018.66a1.29,1.29,0,0,1-1.1-1.41v-11a1.3,1.3,0,0,1,1.1-1.41Z"/><path class="cls-21" d="M997.77,1030.82h10.15a1.3,1.3,0,0,1,1.11,1.41v11a1.31,1.31,0,0,1-1.11,1.42H997.77a1.31,1.31,0,0,1-1.11-1.42v-11a1.3,1.3,0,0,1,1.11-1.41Z"/><path class="cls-21" d="M1014.28,1030.82h10.18a1.3,1.3,0,0,1,1.1,1.41v11a1.31,1.31,0,0,1-1.1,1.42h-10.18a1.31,1.31,0,0,1-1.1-1.42v-11a1.3,1.3,0,0,1,1.1-1.41Z"/><path class="cls-21" d="M1030.8,1030.82H1041a1.3,1.3,0,0,1,1.11,1.41v11a1.31,1.31,0,0,1-1.11,1.42H1030.8a1.29,1.29,0,0,1-1.09-1.42v-11a1.28,1.28,0,0,1,1.09-1.41Z"/><path class="cls-21" d="M1047.33,1030.82h10.16a1.3,1.3,0,0,1,1.1,1.41v11a1.31,1.31,0,0,1-1.1,1.42h-10.16a1.31,1.31,0,0,1-1.1-1.42v-11a1.3,1.3,0,0,1,1.1-1.41Z"/><path class="cls-21" d="M1063.85,1030.82H1074a1.28,1.28,0,0,1,1.09,1.41v11a1.29,1.29,0,0,1-1.09,1.42h-10.17a1.3,1.3,0,0,1-1.1-1.42v-11a1.29,1.29,0,0,1,1.1-1.41Z"/><path class="cls-21" d="M1080.36,1030.82h10.18a1.3,1.3,0,0,1,1.1,1.41v11a1.31,1.31,0,0,1-1.1,1.42h-10.18a1.31,1.31,0,0,1-1.1-1.42v-11a1.3,1.3,0,0,1,1.1-1.41Z"/><path class="cls-21" d="M1096.9,1030.82h10.15a1.3,1.3,0,0,1,1.11,1.41v11a1.31,1.31,0,0,1-1.11,1.42H1096.9a1.31,1.31,0,0,1-1.11-1.42v-11a1.3,1.3,0,0,1,1.11-1.41Z"/><path class="cls-21" d="M1113.41,1030.82h10.18a1.28,1.28,0,0,1,1.08,1.41v11c0,.77-.48,1.42-1.08,1.42h-10.18a1.31,1.31,0,0,1-1.1-1.42v-11a1.3,1.3,0,0,1,1.1-1.41Z"/><path class="cls-21" d="M1129.92,1030.82h18.93a1.3,1.3,0,0,1,1.1,1.41v11a1.31,1.31,0,0,1-1.1,1.42h-18.93a1.31,1.31,0,0,1-1.1-1.42v-11a1.3,1.3,0,0,1,1.1-1.41Z"/><path class="cls-21" d="M1154.83,1030.63h22.5a1.3,1.3,0,0,1,1.1,1.41v11a1.31,1.31,0,0,1-1.1,1.42h-22.5a1.31,1.31,0,0,1-1.1-1.42v-11a1.3,1.3,0,0,1,1.1-1.41Z"/><path class="cls-21" d="M1156.85,1049.78h8.47a.45.45,0,0,1,.4.47v3.81a.46.46,0,0,1-.4.48h-8.47a.44.44,0,0,1-.38-.48v-3.81a.43.43,0,0,1,.38-.47Z"/><path class="cls-21" d="M1156.85,1058h8.47a.45.45,0,0,1,.4.48v3.77a.45.45,0,0,1-.4.48h-8.47a.44.44,0,0,1-.38-.48v-3.77a.44.44,0,0,1,.38-.48Z"/><path class="cls-21" d="M1144.28,1058h8.48a.45.45,0,0,1,.39.48v3.77a.45.45,0,0,1-.39.48h-8.48a.44.44,0,0,1-.38-.48v-3.77a.44.44,0,0,1,.38-.48Z"/><path class="cls-21" d="M1169.39,1058h8.48c.21,0,.37.21.37.48v3.77c0,.27-.16.48-.37.48h-8.48a.44.44,0,0,1-.39-.48v-3.77a.44.44,0,0,1,.39-.48Z"/><path class="cls-21" d="M1129.53,1049.78h10.18a1.3,1.3,0,0,1,1.1,1.41v11a1.29,1.29,0,0,1-1.1,1.41h-10.18a1.29,1.29,0,0,1-1.1-1.41v-11a1.3,1.3,0,0,1,1.1-1.41Z"/></g></g></g></g></g></g></g></svg>