<svg xmlns="http://www.w3.org/2000/svg" viewBox="0 0 1150.46 1141.26"><defs><style>.cls-1{fill:#f9b046;}.cls-2{fill:#fff;}.cls-3{fill:#ededed;}.cls-4{fill:#184f78;}.cls-5{opacity:0.2;}.cls-12,.cls-6{fill:#ff3e03;}.cls-7{fill:#0f0f0f;opacity:0.6;}.cls-8{fill:#e8e8e6;}.cls-9{fill:#00eaa6;}.cls-10{opacity:0.4;}.cls-11{opacity:0.7;}.cls-12,.cls-13,.cls-14,.cls-16,.cls-17{fill-rule:evenodd;}.cls-13{fill:#020202;}.cls-13,.cls-18{opacity:0.1;}.cls-14{fill:#fabe00;}.cls-15{fill:#e6e8e8;}.cls-16{fill:#f7d959;}.cls-17{fill:#f9623e;}</style></defs><title>Ativo 3</title><g id="Camada_2" data-name="Camada 2"><g id="Web_and_Development" data-name="Web and Development"><g id="Notification_Massage" data-name="Notification Massage"><g id="Background"><circle id="Background_2" data-name="Background 2" class="cls-1" cx="575.38" cy="532" r="532" transform="translate(-207.65 562.68) rotate(-45)"/></g><g id="Notification_Massage-2" data-name="Notification Massage"><g id="Line"><rect class="cls-2" x="697.99" y="594.58" width="18.49" height="11.62" transform="translate(-168.58 294.46) rotate(-21.07)"/><rect class="cls-2" x="723.69" y="584.67" width="18.5" height="11.62" transform="translate(-163.3 303.04) rotate(-21.07)"/><rect class="cls-2" x="749.39" y="574.77" width="18.5" height="11.62" transform="translate(-158.02 311.62) rotate(-21.07)"/><polygon class="cls-2" points="795.07 572.77 790.89 561.93 773.64 568.57 777.81 579.42 795.07 572.77"/><rect class="cls-2" x="800.81" y="554.96" width="18.5" height="11.62" transform="translate(-147.4 328.53) rotate(-21.06)"/><rect class="cls-2" x="826.52" y="545.05" width="18.49" height="11.62" transform="translate(-142.22 337.57) rotate(-21.09)"/><rect class="cls-2" x="852.22" y="535.14" width="18.5" height="11.62" transform="translate(-136.89 345.94) rotate(-21.07)"/><rect class="cls-2" x="622.26" y="509.65" width="18.5" height="11.62" transform="translate(-183.51 499.92) rotate(-38.13)"/><rect class="cls-2" x="643.93" y="492.64" width="18.5" height="11.62" transform="translate(-168.39 509.28) rotate(-38.1)"/><rect class="cls-2" x="665.6" y="475.64" width="18.5" height="11.62" transform="translate(-153.26 519.41) rotate(-38.13)"/><rect class="cls-2" x="687.27" y="458.63" width="18.49" height="11.62" transform="translate(-138.14 529.1) rotate(-38.13)"/><rect class="cls-2" x="708.95" y="441.62" width="18.49" height="11.62" transform="translate(-123.01 538.92) rotate(-38.13)"/><rect class="cls-2" x="730.62" y="424.61" width="18.5" height="11.62" transform="translate(-107.89 548.67) rotate(-38.13)"/><rect class="cls-2" x="752.28" y="407.61" width="18.5" height="11.62" transform="translate(-92.76 558.42) rotate(-38.13)"/><rect class="cls-2" x="564.53" y="430.19" width="18.5" height="11.62" transform="translate(-87.36 722.72) rotate(-60.67)"/><rect class="cls-2" x="578.03" y="406.18" width="18.5" height="11.62" transform="translate(-59.67 721.95) rotate(-60.65)"/><rect class="cls-2" x="591.54" y="382.16" width="18.5" height="11.62" transform="translate(-31.87 721.46) rotate(-60.65)"/><rect class="cls-2" x="605.04" y="358.15" width="18.49" height="11.62" transform="translate(-3.95 721.17) rotate(-60.67)"/><rect class="cls-2" x="618.54" y="334.14" width="18.5" height="11.62" transform="translate(23.63 720.31) rotate(-60.63)"/><rect class="cls-2" x="632.04" y="310.12" width="18.5" height="11.62" transform="translate(51.79 720.35) rotate(-60.68)"/><rect class="cls-2" x="645.54" y="286.11" width="18.5" height="11.62" transform="translate(79.58 719.83) rotate(-60.68)"/><path class="cls-3" d="M208.64,731.92l-8.43,7.63s4.34,4.86,9,9.45c2.32,2.31,4.69,4.57,6.52,6.23l2.25,2,.85.73,7.42-8.62-.8-.69-2.06-1.84c-1.71-1.55-3.95-3.7-6.16-5.89C212.8,736.57,208.64,731.92,208.64,731.92Z"/><path class="cls-3" d="M185.93,702.62l-9.51,6.23.61.95c.39.6.94,1.46,1.65,2.45,1.41,2,3.23,4.73,5.2,7.33,3.84,5.28,8,10.3,8,10.3l8.8-7.21s-4-4.8-7.65-9.84c-1.89-2.48-3.6-5.07-4.95-7-.67-1-1.2-1.76-1.56-2.33Z"/><path class="cls-3" d="M168.79,670.31l-10.73,3.86s.56,1.55,1.6,3.81,2.29,5.31,3.81,8.25l2.17,4.34,2,3.72,2,3.63,9.91-5.58s-.74-1.34-1.84-3.36c-.56-1-1.2-2.19-1.89-3.45s-1.33-2.66-2-4c-1.43-2.72-2.59-5.56-3.55-7.65S168.79,670.31,168.79,670.31Z"/><path class="cls-3" d="M159.29,635.12l-11.41,1.11s.24,1.63.59,4.09,1.08,5.68,1.72,8.92c.3,1.63.74,3.22,1.16,4.71s.78,2.89,1.1,4.09.61,2.19.86,2.87l.35,1.08,11-3-.33-1c-.23-.63-.51-1.55-.79-2.66s-.66-2.4-1-3.79-.8-2.87-1.08-4.38c-.6-3-1.36-6-1.61-8.27Z"/><path class="cls-3" d="M160,598.72,148.61,597s-.23,1.63-.57,4.09c-.18,1.23-.38,2.66-.59,4.2s-.24,3.19-.37,4.83-.21,3.3-.31,4.85,0,3,0,4.23c0,2.48,0,4.13,0,4.13l11.47-.18s0-1.54,0-3.83c0-1.16-.06-2.5,0-3.94s.19-3,.29-4.49.13-3.07.35-4.49.38-2.75.55-3.89Z"/><path class="cls-3" d="M171.65,564.24l-10.51-4.41s-.71,1.49-1.79,3.72l-1.82,3.83-1.76,4.52c-.6,1.54-1.19,3.09-1.75,4.53s-.9,2.85-1.29,4c-.71,2.38-1.19,4-1.19,4L162.69,587l1.12-3.67c.36-1.1.66-2.41,1.2-3.75l1.64-4.19c.55-1.43,1.11-2.86,1.63-4.2s1.21-2.51,1.71-3.54Z"/><path class="cls-3" d="M189.6,531.57l-9.87-5.66L173.4,537l-6.26,11.33,10.1,5.24,6.08-11Z"/><polygon class="cls-3" points="208.81 498.86 199.04 493.04 186.02 515.06 195.84 520.79 208.81 498.86"/><polygon class="cls-3" points="228.22 466.13 218.4 460.38 205.43 482.31 215.2 488.13 228.22 466.13"/><path class="cls-3" d="M247,432.86l-10-5.39-6.12,11.1c-3.08,5.54-6.26,11.05-6.26,11.05l9.86,5.66s3.21-5.55,6.33-11.16c1.58-2.79,3.11-5.62,4.27-7.73Z"/><path class="cls-3" d="M264.18,398.48l-10.36-4.68-1.65,3.58c-1,2.15-2.33,5-3.71,7.83s-2.78,5.67-3.86,7.77-1.8,3.52-1.8,3.52l10.11,5.21,1.83-3.58c1.11-2.15,2.54-5,3.94-7.95s2.82-5.8,3.81-8S264.18,398.48,264.18,398.48Z"/><path class="cls-3" d="M278.14,362.4,267.3,359s-.49,1.48-1.21,3.71-1.75,5.18-2.84,8.12-2.2,5.86-3.08,8l-1.45,3.64,10.51,4.35,1.5-3.78c.92-2.25,2.12-5.27,3.2-8.35s2.23-6.11,2.95-8.45S278.14,362.4,278.14,362.4Z"/><path class="cls-3" d="M286.5,324.23l-11.3-1.29s0,.39-.1,1.06-.24,1.62-.41,2.76c-.36,2.3-.71,5.36-1.38,8.4s-1.16,6.08-1.76,8.34-.91,3.77-.91,3.77l11,2.81,1-4c.63-2.37,1.25-5.6,1.87-8.83s1.09-6.5,1.47-8.94c.17-1.22.32-2.25.43-3Z"/><path class="cls-3" d="M286,284.82l-11.24,1.68.55,3.79c.28,2.27.46,5.33.73,8.38s.14,6.13.21,8.43-.14,3.83-.14,3.83l11.37.39s.06-1.66.14-4.14-.08-5.81-.22-9.13c-.29-3.32-.5-6.64-.79-9.11S286,284.82,286,284.82Z"/><path class="cls-3" d="M492.89,719l-10.38,3s-2.36-5.8-4.35-11.72c-1-3-1.94-5.93-2.6-8.19-.32-1.14-.59-2.1-.78-2.76l-.27-1,10.8-1.75.25,1c.18.6.42,1.48.72,2.52.61,2.11,1.51,4.93,2.46,7.74C490.64,713.43,492.89,719,492.89,719Z"/><path class="cls-3" d="M508.63,751.17,499,755.74l-.56-.94c-.36-.59-.86-1.45-1.43-2.5-1.14-2.09-2.73-4.83-4.14-7.66-2.95-5.6-5.53-11.34-5.53-11.34l10.17-3.53s2.47,5.49,5.28,10.83c1.34,2.69,2.86,5.31,3.95,7.3.53,1,1,1.81,1.36,2.38Z"/><path class="cls-3" d="M529.43,780.38l-8.07,6.7s-1.11-1.2-2.64-3.12-3.66-4.38-5.56-7l-2.86-3.82c-.87-1.24-1.67-2.41-2.37-3.4l-2.3-3.34,9.23-5.2,2.13,3.09c.64.93,1.39,2,2.2,3.16l2.65,3.55c1.75,2.44,3.74,4.74,5.15,6.51S529.43,780.38,529.43,780.38Z"/><path class="cls-3" d="M556.11,804.9l-6,8.56L546.82,811c-2-1.4-4.5-3.59-7.06-5.67-1.29-1-2.5-2.13-3.63-3.18L533,799.3c-.92-.82-1.65-1.53-2.14-2l-.79-.81,7.43-7.35.73.75c.45.48,1.13,1.14,2,1.91l2.87,2.65c1,1,2.17,2,3.36,3,2.38,1.93,4.65,4,6.55,5.28Z"/><path class="cls-3" d="M588.3,821.91l-3.47,9.85L581,830.25l-3.93-1.55c-1.44-.57-2.9-1.35-4.4-2l-4.38-2.08c-1.39-.7-2.62-1.45-3.71-2-2.16-1.22-3.61-2-3.61-2l5.18-9,3.35,1.87c1,.55,2.16,1.26,3.45,1.9l4.06,1.93c1.4.64,2.74,1.38,4.09,1.89l3.65,1.44Z"/><path class="cls-3" d="M623.64,829.21l-.74,10.49-4-.37-4.15-.39-4.74-.78-4.73-.78c-1.51-.25-2.9-.67-4.1-.92l-4-1,2.59-10.14,3.7.88c1.12.24,2.41.63,3.8.85l4.41.72,4.38.71,3.86.35Z"/><path class="cls-3" d="M660.12,830.66l.65,10.58-12.54-.32-12.65-.48-.18-10.56,12.3.46Z"/><polygon class="cls-3" points="697.19 831.13 698.01 841.71 673.03 841.46 672.3 830.88 697.19 831.13"/><polygon class="cls-3" points="734.38 831.44 735.12 842.02 710.21 841.78 709.39 831.2 734.38 831.44"/><path class="cls-3" d="M771.76,832.48l.35,10.57-12.41-.48c-6.21-.21-12.42-.33-12.42-.33l-.65-10.58s6.27.12,12.55.34c3.14.08,6.29.23,8.64.32Z"/><path class="cls-3" d="M809.39,835.39,809,845.9l-3.85-.42c-2.31-.27-5.4-.55-8.49-.81s-6.18-.52-8.5-.67l-3.87-.27-.14-10.55,3.94.27c2.37.15,5.52.39,8.69.68s6.32.56,8.7.84Z"/><path class="cls-3" d="M847.13,841.65l-1.77,10.28-3.78-.82c-2.27-.52-5.31-1.1-8.36-1.65s-6.09-1.08-8.4-1.43l-3.83-.6L821.8,837l4,.62c2.38.37,5.55.86,8.71,1.48s6.34,1.17,8.71,1.72S847.13,841.65,847.13,841.65Z"/><path class="cls-3" d="M884.23,853.39,880.42,863l-1-.43-2.61-1c-2.16-.83-5-2-8-3s-5.84-2-8.08-2.61l-3.71-1.09,2.36-10.13,3.91,1.15c2.36.64,5.46,1.71,8.57,2.77s6.16,2.26,8.47,3.14l2.78,1.08Z"/><path class="cls-3" d="M918.53,872.82l-6.4,8.14-3.07-2.26c-1.87-1.32-4.48-2.94-7-4.62s-5.32-3.07-7.3-4.23l-3.42-1.74,4.64-9.24,3.68,1.88c2.16,1.25,5.06,2.88,7.9,4.58s5.6,3.59,7.64,5Z"/></g><g id="Command"><polygon class="cls-4" points="394.78 1072.47 302.96 1141.26 213.87 943.36 267.81 902.96 394.78 1072.47"/><rect class="cls-5" x="292.65" y="895.67" width="43.25" height="210.81" transform="translate(-537.44 388.3) rotate(-36.84)"/><path class="cls-2" d="M687.14,657.75a32.78,32.78,0,0,1-6.58,45.89l-556,302.75c-30.61,13.82-41-.11-51.9-14.6L11,909.43c-10.86-14.49-17.65-31.15-.7-49.54L473.09,426.7a32.81,32.81,0,0,1,45.9,6.58Z"/><path class="cls-4" d="M28.65,842.68,10.26,859.89C-6.69,878.28.1,894.94,11,909.43l61.69,82.36c10.86,14.49,21.29,28.42,51.9,14.6l19-10.34Z"/><path class="cls-4" d="M473.09,426.7,442.91,455,644.08,723.5l36.48-19.86a32.78,32.78,0,0,0,6.58-45.89L519,433.28A32.81,32.81,0,0,0,473.09,426.7Z"/><path class="cls-5" d="M42.73,951.85l29.92,39.94c10.86,14.49,21.29,28.42,51.9,14.6l556-302.75a32.78,32.78,0,0,0,6.58-45.89L596.62,536.92Z"/></g><g id="Mail"><g id="Envelop"><g id="Envelop-2" data-name="Envelop"><rect class="cls-6" x="721.61" y="905.18" width="155.45" height="166.4" rx="9.85" ry="9.85"/><path class="cls-7" d="M725.14,988.37H877.06l-55.55,39.83s-45.16,10.26-53,4.51-35.72-24.63-35.72-24.63Z"/><rect class="cls-8" x="736.53" y="919" width="125.62" height="137.53"/><path class="cls-9" d="M725.14,988.37h-3.53v73.36a9.86,9.86,0,0,0,9.85,9.85H867.21a9.86,9.86,0,0,0,9.85-9.85V988.37L799.34,1030Z"/><path class="cls-5" d="M731.46,1071.58H867.21a9.86,9.86,0,0,0,9.85-9.85V988.37L799.34,1030l-75.1,38.44A9.84,9.84,0,0,0,731.46,1071.58Z"/></g><g id="Text" class="cls-10"><rect class="cls-11" x="751.72" y="932.14" width="100.99" height="3.69"/><rect class="cls-11" x="751.72" y="938.7" width="100.99" height="3.69"/><rect class="cls-11" x="751.72" y="945.68" width="100.99" height="3.7"/><rect class="cls-11" x="751.72" y="952.45" width="100.99" height="3.69"/><rect class="cls-11" x="751.72" y="961.07" width="100.99" height="3.7"/><rect class="cls-11" x="751.72" y="971.34" width="100.99" height="3.69"/><rect class="cls-11" x="751.72" y="978.52" width="100.99" height="3.7"/><rect class="cls-11" x="751.72" y="985.29" width="100.99" height="3.7"/><rect class="cls-11" x="751.72" y="993.09" width="100.99" height="3.7"/></g></g><g id="Envelop-3" data-name="Envelop"><g id="Envelop-4" data-name="Envelop"><path class="cls-6" d="M1150.46,908.9a16.92,16.92,0,0,1-16.91,16.91h-233a16.91,16.91,0,0,1-16.91-16.91V657.15a16.91,16.91,0,0,1,16.91-16.91h233a16.92,16.92,0,0,1,16.91,16.91Z"/><path class="cls-7" d="M889.73,783h260.73l-95.35,68.33s-77.5,17.62-90.89,7.75-61.28-42.27-61.28-42.27Z"/><rect class="cls-8" x="909.27" y="663.96" width="215.59" height="236.02"/><path class="cls-9" d="M889.73,783h-6.06V908.9a16.91,16.91,0,0,0,16.91,16.91h233a16.92,16.92,0,0,0,16.91-16.91V783l-133.4,71.38Z"/><path class="cls-5" d="M900.58,925.81h233a16.92,16.92,0,0,0,16.91-16.91V783l-133.4,71.38-128.87,66A16.81,16.81,0,0,0,900.58,925.81Z"/></g><g id="Text-2" data-name="Text" class="cls-10"><rect class="cls-11" x="935.34" y="686.5" width="173.31" height="6.34"/><rect class="cls-11" x="935.34" y="697.78" width="173.31" height="6.33"/><rect class="cls-11" x="935.34" y="709.75" width="173.31" height="6.34"/><rect class="cls-11" x="935.34" y="721.38" width="173.31" height="6.34"/><rect class="cls-11" x="935.34" y="736.18" width="173.31" height="6.33"/><rect class="cls-11" x="935.34" y="753.79" width="173.31" height="6.34"/><rect class="cls-11" x="935.34" y="766.11" width="173.31" height="6.34"/><rect class="cls-11" x="935.34" y="777.74" width="173.31" height="6.34"/><rect class="cls-11" x="935.34" y="791.13" width="173.31" height="6.34"/></g></g></g><g id="Document"><path class="cls-12" d="M948.85,97.86H811.78c-.58,0-1.17,0-1.81,0H719A14.11,14.11,0,0,0,705,111.87V241.75A14.1,14.1,0,0,0,719,255.8H941.6a14.11,14.11,0,0,0,14.06-14.05V104.66A6.82,6.82,0,0,0,948.85,97.86Zm-135,.13h0Zm1.81.23h0Zm11.14,14.7c.05.06.09.12.15.18S826.85,113,826.8,112.92Zm-1-1.41a.13.13,0,0,1,0,.08A.13.13,0,0,0,825.83,111.51Zm.43.72.09.14Zm1.21,1.35.21.19Zm.8.61.3.19Zm1,.55c.12.06.23.13.37.19Zm1.15.49.46.17Zm1.36.41.55.15Zm1.58.34.64.11Zm1.87.25.68.07Zm2.23.16.62,0Z"/><path class="cls-13" d="M948.85,97.86H811.78c23.37.88,1.41,19.06,28.73,18.57H955.66V104.66A6.82,6.82,0,0,0,948.85,97.86Z"/><path class="cls-14" d="M840.51,116.43H943a17.53,17.53,0,0,0-16.74-12.54H823.84C825.73,109.44,823.06,116.75,840.51,116.43Z"/><rect class="cls-15" x="774.84" y="142.25" width="110.92" height="64.56"/><rect x="784.71" y="164.15" width="91.17" height="4.29"/><rect x="784.71" y="171.33" width="91.17" height="4.3"/><rect x="784.71" y="178.5" width="91.17" height="4.3"/><rect x="784.71" y="185.68" width="91.17" height="4.29"/><path class="cls-5" d="M904.31,255.8H941.6a14.11,14.11,0,0,0,14.06-14.05V163C945.86,194.39,929.09,235.6,904.31,255.8Z"/><g id="Document-2" data-name="Document"><path class="cls-16" d="M1046.4,160.78H882.11c-.71,0-1.41,0-2.18,0h-109c-9.26,0-16.85,7.12-16.85,15.8V322.63c0,8.69,7.59,15.81,16.85,15.81h266.8c9.25,0,16.84-7.12,16.84-15.81V168.44A7.94,7.94,0,0,0,1046.4,160.78Zm-161.82.15Zm2.18.25h0Zm13.35,16.55.18.19ZM899,176.14a.22.22,0,0,0,0,.08A.22.22,0,0,1,899,176.14Zm.52.81.11.15Zm1.44,1.51.25.22Zm1,.69c.12.08.22.15.35.22C902.1,179.3,902,179.23,901.88,179.15Zm1.17.62c.15.07.28.15.44.21C903.33,179.92,903.2,179.84,903.05,179.77Zm1.38.55.55.19Zm1.63.47c.22.05.42.12.65.16C906.48,180.91,906.28,180.84,906.06,180.79Zm1.89.38c.26,0,.5.09.77.13C908.45,181.26,908.21,181.2,908,181.17Zm2.24.28.82.08Zm2.67.18c.26,0,.49,0,.75,0C913.35,181.65,913.12,181.63,912.86,181.63Z"/><path class="cls-13" d="M1046.4,160.78H882.11c28,1,1.69,21.45,34.44,20.89h138V168.44A7.94,7.94,0,0,0,1046.4,160.78Z"/><path class="cls-17" d="M916.55,181.67h122.78c-2.56-8.12-10.61-14.11-20.07-14.11H896.56C898.83,173.81,895.63,182,916.55,181.67Z"/><rect class="cls-15" x="837.83" y="210.72" width="132.94" height="72.62"/><rect class="cls-6" x="849.67" y="235.35" width="109.26" height="4.83"/><rect class="cls-6" x="849.67" y="243.42" width="109.26" height="4.82"/><rect class="cls-6" x="849.67" y="251.5" width="109.26" height="4.83"/><rect class="cls-6" x="849.67" y="259.56" width="109.26" height="4.84"/></g></g><g id="Command-2" data-name="Command"><path class="cls-6" d="M360.54,124C443.08,124,510,175.25,510,238.43c0,44.09-32.61,82.33-80.34,101.43a85.12,85.12,0,0,0,33.64,37.93s-33.21-13.93-50.66-32.11a190.39,190.39,0,0,1-52.09,7.15c-82.54,0-149.45-51.22-149.45-114.4S278,124,360.54,124Z"/><path class="cls-18" d="M437.94,238.43a12.68,12.68,0,1,0,12.66-12.68A12.67,12.67,0,0,0,437.94,238.43Z"/><circle class="cls-18" cx="402.23" cy="238.43" r="12.68" transform="translate(-50.78 354.26) rotate(-45)"/><path class="cls-18" d="M344.52,238.43a12.68,12.68,0,1,0,12.68-12.68A12.68,12.68,0,0,0,344.52,238.43Z"/><circle class="cls-18" cx="312.5" cy="238.43" r="12.68" transform="translate(-77.07 290.8) rotate(-45)"/><circle class="cls-18" cx="265.13" cy="238.43" r="12.68" transform="translate(-56.61 392.13) rotate(-67.5)"/><path class="cls-18" d="M510,238.43c0,44.09-32.61,82.33-80.34,101.43a85.12,85.12,0,0,0,33.64,37.93s-33.21-13.93-50.66-32.11a190.39,190.39,0,0,1-52.09,7.15c-82.54,0-149.45-51.22-149.45-114.4Z"/><path class="cls-2" d="M299.82,89.34c-82.54,0-149.44,51.21-149.44,114.4,0,44.09,32.6,82.33,80.34,101.43a85.18,85.18,0,0,1-33.64,37.93s33.21-13.93,50.65-32.12a190,190,0,0,0,52.09,7.16c82.54,0,149.46-51.22,149.46-114.4S382.36,89.34,299.82,89.34Z"/><path class="cls-18" d="M222.43,203.74a12.68,12.68,0,1,1-12.67-12.68A12.67,12.67,0,0,1,222.43,203.74Z"/><path class="cls-18" d="M270.81,203.74a12.68,12.68,0,1,1-12.68-12.68A12.67,12.67,0,0,1,270.81,203.74Z"/><path class="cls-18" d="M315.84,203.74a12.68,12.68,0,1,1-12.68-12.68A12.68,12.68,0,0,1,315.84,203.74Z"/><circle class="cls-18" cx="347.86" cy="203.74" r="12.68"/><circle class="cls-18" cx="395.23" cy="203.74" r="12.68"/><path class="cls-18" d="M150.38,203.74c0,44.09,32.6,82.33,80.34,101.43a85.18,85.18,0,0,1-33.64,37.93s33.21-13.93,50.65-32.12a190,190,0,0,0,52.09,7.16c82.54,0,149.46-51.22,149.46-114.4Z"/></g></g></g></g></g></svg>