<svg xmlns="http://www.w3.org/2000/svg" viewBox="0 0 1332.73 1064"><defs><style>.cls-1{fill:#f7d64d;}.cls-2,.cls-5{fill:#153151;}.cls-11,.cls-13,.cls-14,.cls-15,.cls-16,.cls-19,.cls-2,.cls-20,.cls-21,.cls-4{fill-rule:evenodd;}.cls-3{fill:#e5e5e5;}.cls-4{fill:#a3a3a3;}.cls-11,.cls-6{fill:#f39c12;}.cls-7{fill:#f1c40f;}.cls-8{fill:#34495e;}.cls-9{fill:#f46464;}.cls-10{fill:#14af95;}.cls-12{fill:#e6e6e6;}.cls-13{fill:#474646;}.cls-14{fill:#d84848;}.cls-15,.cls-16{fill:#231f20;}.cls-15,.cls-26,.cls-31{opacity:0.2;}.cls-16,.cls-28{opacity:0.1;}.cls-17{fill:#4d4d4d;}.cls-18{fill:#369;}.cls-19,.cls-22{fill:#f63;}.cls-20,.cls-24{fill:#0056a3;}.cls-21,.cls-23{fill:#3c9;}.cls-25{fill:#ce6405;}.cls-26{fill:#fff;}.cls-27{fill:#d3d3d3;}.cls-29{fill:#1c3b59;}.cls-30{fill:#1abc9c;}</style></defs><title>Ativo 4</title><g id="Camada_2" data-name="Camada 2"><g id="Web_and_Development" data-name="Web and Development"><g id="Concept_Web" data-name="Concept Web"><g id="Background"><circle id="Background_2" data-name="Background 2" class="cls-1" cx="679.73" cy="532" r="532" transform="translate(-177.09 636.46) rotate(-45)"/></g><g id="Concept"><g id="Coding"><path class="cls-2" d="M1084.74,628.48a36.86,36.86,0,0,1-36.87,36.86H310.51a36.87,36.87,0,0,1-36.87-36.86V172.23a36.87,36.87,0,0,1,36.87-36.87h737.36a36.87,36.87,0,0,1,36.87,36.87Z"/><rect class="cls-3" x="309.88" y="170.33" width="741.75" height="458.01"/><path class="cls-4" d="M115,662.66a70.61,70.61,0,0,0-.73,10.07c0,29.14,17.66,52.75,39.46,52.75h1054c21.79,0,39.46-23.61,39.46-52.75a70.6,70.6,0,0,0-.74-10.07Z"/><path class="cls-5" d="M117.68,694.07c6.14,18.49,20,31.41,36.08,31.41h1054c16.11,0,29.94-12.92,36.08-31.41Z"/></g><g id="Text"><rect class="cls-6" x="360.23" y="207.93" width="262.27" height="12.66"/><rect class="cls-6" x="360.23" y="226.01" width="262.27" height="12.66"/><rect class="cls-6" x="360.23" y="245.01" width="262.27" height="12.66"/><rect class="cls-6" x="360.23" y="264" width="262.27" height="12.66"/></g><g id="Point"><polygon class="cls-7" points="632.75 501 630.7 492.24 748.72 467.44 750.76 476.21 632.75 501"/><polygon class="cls-7" points="669.84 375.35 676.11 369.2 761.8 458.27 755.52 464.42 669.84 375.35"/><polygon class="cls-7" points="661.31 382.55 669.15 386.98 612.22 493.33 604.38 488.9 661.31 382.55"/><path class="cls-8" d="M630,480.05c10.71,14.53,8,34.73-6.14,45.11s-34.2,7-44.9-7.5-8-34.72,6.14-45.11S619.29,465.53,630,480.05Z"/><path class="cls-9" d="M694.24,358.4c8.89,12.07,6.6,28.85-5.1,37.48s-28.42,5.84-37.31-6.23-6.61-28.84,5.1-37.48S685.34,346.34,694.24,358.4Z"/><path class="cls-10" d="M805.75,442.33c13.51,18.33,10,43.8-7.75,56.91s-43.14,8.86-56.64-9.46-10-43.8,7.75-56.91S792.25,424,805.75,442.33Z"/><polygon class="cls-7" points="891.48 450.83 893.07 448.33 927.59 471.2 926 473.7 891.48 450.83"/><polygon class="cls-7" points="930.44 464.52 927.48 464.92 920.97 424.15 923.91 423.75 930.44 464.52"/><polygon class="cls-7" points="889.21 447.71 887.27 445.38 918.11 419.41 920.07 421.74 889.21 447.71"/><path class="cls-8" d="M923.43,464.74a10.87,10.87,0,0,1,14.9,3.61,10.66,10.66,0,1,1-14.9-3.61Z"/><path class="cls-9" d="M883.94,438.87a9,9,0,0,1,12.38,3,8.94,8.94,0,0,1-2.61,12.41,9.13,9.13,0,0,1-9.77-15.41Z"/><path class="cls-10" d="M913.46,404a13.86,13.86,0,1,1-4,18.84A13.71,13.71,0,0,1,913.46,404Z"/><polygon class="cls-7" points="829.24 315.09 823.98 315.79 812.35 242.99 817.6 242.3 829.24 315.09"/><polygon class="cls-7" points="755.65 285.06 752.17 280.89 807.25 234.54 810.72 238.7 755.65 285.06"/><polygon class="cls-7" points="759.7 290.65 762.52 286.19 824.15 327.02 821.32 331.49 759.7 290.65"/><path class="cls-8" d="M816.73,315.48c8.9-5.58,20.8-2.7,26.6,6.45s3.29,21.08-5.61,26.66-20.81,2.71-26.61-6.44S807.83,321.07,816.73,315.48Z"/><path class="cls-9" d="M746.23,269.3a16.29,16.29,0,1,1-4.67,22.16A16.12,16.12,0,0,1,746.23,269.3Z"/><path class="cls-10" d="M798.93,207c11.23-7.05,26.26-3.41,33.56,8.13s4.14,26.59-7.08,33.64-26.26,3.41-33.57-8.12S787.7,214.07,798.93,207Z"/></g><g id="Concept-2" data-name="Concept"><g id="Board"><path class="cls-11" d="M1026.49,389.84h286.59c10.82,0,19.65,9.54,19.65,21.22V785.31c0,11.68-8.83,21.26-19.65,21.26H1026.49c-10.79,0-19.66-9.58-19.66-21.26V411.06c0-11.68,8.87-21.22,19.66-21.22Z"/><rect class="cls-12" x="1022.68" y="408.35" width="294.25" height="379.67"/><polygon class="cls-13" points="1108.7 348.15 1230.91 348.15 1230.91 408.35 1224.1 408.35 1224.1 355.85 1115.1 355.85 1115.1 408.35 1108.7 408.35 1108.7 348.15"/><path class="cls-14" d="M1099,384h141.53a5.61,5.61,0,0,1,5.35,5.82v27a5.57,5.57,0,0,1-5.35,5.78H1099a5.6,5.6,0,0,1-5.35-5.78v-27A5.64,5.64,0,0,1,1099,384Z"/><path class="cls-15" d="M1166.36,384h74.19a5.61,5.61,0,0,1,5.35,5.82v27a5.57,5.57,0,0,1-5.35,5.78h-74.19Z"/><path class="cls-16" d="M1166.36,389.84h146.72c10.82,0,19.65,9.54,19.65,21.22V785.31c0,11.68-8.83,21.26-19.65,21.26H1166.36Z"/></g><g id="Paragraph"><rect class="cls-17" x="1059.15" y="479.27" width="214.43" height="6.95"/><rect class="cls-18" x="1059.15" y="495.85" width="214.43" height="6.96"/><rect class="cls-17" x="1059.15" y="511.29" width="214.43" height="6.96"/><rect class="cls-17" x="1059.15" y="527.87" width="214.43" height="6.96"/><rect class="cls-18" x="1059.15" y="544.1" width="214.43" height="6.91"/><rect class="cls-17" x="1059.15" y="559.5" width="214.43" height="6.96"/><rect class="cls-17" x="1059.15" y="576.13" width="214.43" height="6.91"/></g><g id="Diagram"><rect class="cls-17" x="1054.59" y="757.88" width="214.43" height="5.7"/><path class="cls-19" d="M1073.8,699.37h0c3.08,0,5.62,2.28,5.62,5v52h-11.25v-52c0-2.74,2.5-5,5.63-5Z"/><path class="cls-20" d="M1095.59,693.2h0a5.63,5.63,0,0,1,5.63,5.56V756.4H1090V698.76a5.6,5.6,0,0,1,5.62-5.56Z"/><path class="cls-19" d="M1117.39,699.59h0c3.09,0,5.64,2.27,5.64,5v52.22h-11.26V704.61c0-2.75,2.5-5,5.62-5Z"/><path class="cls-20" d="M1141,670h0c3.08,0,5.63,3.43,5.63,7.62v79.24h-11.26V677.59c0-4.19,2.51-7.62,5.63-7.62Z"/><path class="cls-19" d="M1163.83,702.12h0c3.12,0,5.63,2.16,5.63,4.83v49.88H1158.2V707c0-2.67,2.55-4.83,5.63-4.83Z"/><path class="cls-20" d="M1187.05,724.11h0c3.08,0,5.59,1.3,5.59,2.89v29.83h-11.23V727c0-1.59,2.52-2.89,5.6-2.89Z"/><path class="cls-20" d="M1211,670.26h0c3.11,0,5.62,3.43,5.62,7.62v79H1205.4v-79c0-4.19,2.51-7.62,5.6-7.62Z"/><path class="cls-21" d="M1231.74,676h0c3.08,0,5.64,3.22,5.64,7.12v73.71h-11.27V683.12c0-3.9,2.56-7.12,5.63-7.12Z"/><path class="cls-19" d="M1250.67,656h0c3.11,0,5.63,4,5.63,8.85v92H1245v-92c0-4.88,2.56-8.85,5.64-8.85Z"/><rect class="cls-22" x="1282.39" y="674.41" width="20.01" height="17.85"/><rect class="cls-23" x="1282.39" y="704.03" width="20.01" height="17.84"/><rect class="cls-24" x="1282.39" y="734.3" width="20.01" height="17.84"/></g></g><g id="Lens"><path class="cls-25" d="M71.71,872.35a40.76,40.76,0,0,1-57.48,4.43h0a40.75,40.75,0,0,1-4.42-57.46l145-169.21a40.77,40.77,0,0,1,57.47-4.43h0a40.76,40.76,0,0,1,4.43,57.47Z"/><path class="cls-26" d="M78,855.49a34.57,34.57,0,0,1-48.75,3.76h0a34.56,34.56,0,0,1-3.76-48.74L148.47,667a34.59,34.59,0,0,1,48.76-3.76h0A34.59,34.59,0,0,1,201,712Z"/><path class="cls-27" d="M471.33,568.16a146.3,146.3,0,1,1-15.92-206.29A146.31,146.31,0,0,1,471.33,568.16Z"/><path class="cls-28" d="M226.46,676.93a40.65,40.65,0,0,0-42.86-41c-.68,8.55,5.28,20.08,15.94,29.22C208.46,672.84,218.53,677,226.46,676.93Z"/><polygon class="cls-29" points="258.33 348.41 258.33 602.71 320.58 619.28 320.58 320.19 258.33 348.41"/><path class="cls-30" d="M502.27,594.69c67.22-78.46,58.12-196.55-20.34-263.76S285.4,272.82,218.18,351.27c-62.27,72.67-59,179.33,4.18,248.08l-31.55,36.83s1.56,35.15,34.87,33.27l33.5-39.09C336.55,680.16,440.72,666.52,502.27,594.69ZM265,584.08a146.3,146.3,0,1,1,206.29-15.92A146.3,146.3,0,0,1,265,584.08Z"/><path class="cls-31" d="M498,421.26a146.28,146.28,0,0,0-239.71-53C381.19,302.79,461.75,374.39,498,421.26Z"/></g></g></g></g></g></svg>