<svg height="512pt" viewBox="-50 0 512 512" width="512pt" xmlns="http://www.w3.org/2000/svg"><path d="m327.855469 84.722656-30.0625-77.222656h-290.292969v497h397.601562v-389.714844zm0 0" fill="#fff"/><path d="m225.929688 204.246094c16.941406 0 30.667968 13.726562 30.667968 30.667968 0 16.941407-13.730468 30.667969-30.667968 30.667969-16.941407 0-30.671876-13.726562-30.671876-30.667969 0-16.941406 13.730469-30.667968 30.671876-30.667968zm0 0" fill="#fff"/><path d="m344.3125 171.015625v199.351563h-276.023438v-199.351563zm0 0" fill="#76ffd9"/><path d="m225.929688 204.246094c16.941406 0 30.667968 13.726562 30.667968 30.667968 0 16.941407-13.730468 30.667969-30.667968 30.667969-16.941407 0-30.671876-13.726562-30.671876-30.667969 0-16.941406 13.730469-30.667968 30.671876-30.667968zm0 0" fill="#fff"/><path d="m344.3125 355.03125v84.339844h-153.183594v-81.664063l91.03125-71.679687zm0 0" fill="#ffc843"/><path d="m191.128906 357.707031 52.683594 81.664063h-175.523438v-69.003906l73.300782-89.449219zm0 0" fill="#ffb400"/><path d="m405.101562 114.785156h-107.308593v-107.285156zm0 0" fill="#76ffd9"/><g fill="#434c54"><path d="m86.128906 497h-71.128906v-482h275.296875v99.789062c0 4.144532 3.355469 7.5 7.5 7.5h107.304687c3.03125 0 5.765626-1.828124 6.925782-4.628906 1.164062-2.804687.523437-6.027344-1.625-8.175781l-107.300782-107.285156c-.238281-.238281-.496093-.457031-.765624-.660157-.058594-.042968-.113282-.085937-.175782-.128906-.265625-.191406-.542968-.371094-.835937-.527344-.019531-.011718-.039063-.019531-.058594-.027343-.277344-.144531-.566406-.269531-.859375-.378907-.058594-.023437-.117188-.042968-.175781-.066406-.316407-.105468-.632813-.199218-.964844-.265625-.011719 0-.027344-.003906-.042969-.003906-.296875-.0585938-.601562-.09375-.910156-.1132812-.089844-.0078126-.179688-.0117188-.269531-.015625-.085938 0-.164063-.0117188-.246094-.0117188h-290.296875c-4.144531 0-7.5 3.359375-7.5 7.5v497c0 4.140625 3.355469 7.5 7.5 7.5h78.628906c4.140625 0 7.5-3.359375 7.5-7.5s-3.359375-7.5-7.5-7.5zm219.167969-389.710938v-81.683593l81.695313 81.683593zm0 0"/><path d="m405.101562 137.1875c-4.144531 0-7.5 3.359375-7.5 7.5v352.3125h-280.945312c-4.140625 0-7.5 3.359375-7.5 7.5s3.359375 7.5 7.5 7.5h288.445312c4.140626 0 7.5-3.359375 7.5-7.5v-359.8125c0-4.140625-3.359374-7.5-7.5-7.5zm0 0"/></g></svg>