<?xml version="1.0" encoding="iso-8859-1"?>
<!-- Generator: Adobe Illustrator 19.0.0, SVG Export Plug-In . SVG Version: 6.00 Build 0)  -->
<svg version="1.1" id="Capa_1" xmlns="http://www.w3.org/2000/svg" xmlns:xlink="http://www.w3.org/1999/xlink" x="0px" y="0px"
	 viewBox="0 0 512.001 512.001" style="enable-background:new 0 0 512.001 512.001;" xml:space="preserve">
<path style="fill:#FFC850;" d="M396.907,115.673c-52.595-52.595-137.869-52.595-190.464,0L11.077,311.038
	c-4.003,4.003-4.003,10.491,0,14.493l175.972,175.972c4.003,4.003,10.492,4.003,14.493,0l195.365-195.365
	C449.502,253.542,449.502,168.268,396.907,115.673z M369.209,195.033c-14.266,14.266-37.396,14.266-51.662,0
	c-14.266-14.266-14.266-37.396,0-51.662c14.266-14.266,37.396-14.266,51.662,0C383.474,157.637,383.474,180.767,369.209,195.033z"/>
<path style="fill:#FEA82F;" d="M22.801,327.602l199.551-199.551c43.082-43.082,107.627-51.606,159.213-25.59
	c-52.711-38.933-127.379-34.531-175.123,13.211L11.077,311.038c-4.003,4.003-4.003,10.491,0,14.493l8.696,8.696
	C19.951,331.812,20.954,329.448,22.801,327.602z"/>
<path style="fill:#FF9052;" d="M64.259,257.856l-53.183,53.183c-4.003,4.003-4.003,10.491,0,14.493l175.972,175.972
	c4.003,4.003,10.492,4.003,14.493,0l53.183-53.183C154.679,436.917,75.661,357.891,64.259,257.856z"/>
<path style="fill:#FF8031;" d="M19.772,334.227c0.179-2.415,1.183-4.779,3.029-6.625l45.61-45.61
	c-1.836-7.976-3.227-16.034-4.15-24.136l-53.183,53.183c-4.003,4.003-4.003,10.491,0,14.493L19.772,334.227z"/>
<path style="fill:#FF9052;" d="M170.979,336.774c-18.234-18.827-19.569-40.621-13.343-46.847c2.965-2.965,9.489-4.15,12.306-1.333
	c4.151,4.15-3.41,18.828,12.748,36.468l39.434-39.433c-8.598-17.789-17.937-36.914,1.038-55.888
	c18.679-18.679,39.285-11.119,53.813,1.036l4.447-4.447c1.631-1.631,4.744-1.482,6.968,0.742c1.927,1.927,2.373,5.337,0.742,6.968
	l-4.151,4.151c10.081,10.971,19.569,27.278,13.639,33.208c-2.372,2.373-8.747,4.893-12.156,1.483
	c-3.113-3.113-2.373-12.157-12.601-23.573l-33.801,33.801c8.006,17.197,15.27,36.914-5.04,57.224
	c-18.086,18.086-38.396,17.048-55.889,3.706l-5.337,5.337c-1.631,1.631-5.041,1.186-6.968-0.741
	c-2.225-2.225-2.373-5.338-0.742-6.969L170.979,336.774z M226.423,295.561l-36.32,36.32c10.822,7.857,22.09,7.56,31.874-2.224
	C233.243,318.391,231.168,307.125,226.423,295.561z M235.466,273.472l31.131-31.131c-9.784-8.005-20.903-11.415-30.391-1.928
	C225.978,250.642,229.981,261.465,235.466,273.472z"/>
<path style="fill:#474D54;" d="M500.505,11.144c-7.937-7.937-18.904-11.946-30.092-11.01c-11.186,0.94-21.33,6.729-27.83,15.882
	L385.51,96.365c-55.599-40.946-134.491-36.279-184.778,14.007L5.369,305.738c-3.352,3.352-5.198,7.808-5.198,12.547
	s1.846,9.195,5.197,12.547l175.971,175.97c3.352,3.352,7.807,5.198,12.547,5.198s9.195-1.847,12.546-5.197l195.365-195.364
	c23.456-23.457,38.032-54.543,41.044-87.535c0.377-4.123-2.66-7.768-6.783-8.145c-4.126-0.372-7.769,2.66-8.146,6.783
	c-2.694,29.507-15.734,57.315-36.716,78.297L195.833,496.203c-0.702,0.701-1.52,0.807-1.946,0.807s-1.245-0.105-1.947-0.808
	L15.968,320.231c-0.702-0.701-0.807-1.52-0.807-1.946s0.105-1.244,0.807-1.946l195.364-195.365
	c49.589-49.588,130.277-49.588,179.865,0c0.93,0.93,1.833,1.883,2.731,2.837l-19.935,14.16c-1.703-1.692-3.514-3.21-5.406-4.566
	c-0.042-0.032-0.079-0.068-0.122-0.099c-0.077-0.055-0.158-0.099-0.236-0.15c-17.166-12.041-41.067-10.411-56.393,4.916
	c-8.316,8.315-12.895,19.371-12.895,31.13c0,11.761,4.579,22.816,12.895,31.131c8.584,8.584,19.856,12.874,31.131,12.874
	c11.272,0,22.549-4.292,31.13-12.874c8.316-8.315,12.895-19.371,12.895-31.131c0-6.695-1.489-13.159-4.301-19.023l20.888-14.837
	c11.813,15.938,19.701,34.36,23.062,54.155c0.693,4.082,4.557,6.82,8.645,6.135c4.081-0.694,6.828-4.563,6.134-8.645
	c-3.743-22.044-12.499-42.563-25.614-60.331l79.744-56.642c9.301-6.606,15.185-16.917,16.14-28.286
	C512.648,30.361,508.573,19.213,500.505,11.144z M372.004,169.202c0,7.756-3.02,15.047-8.504,20.531
	c-11.321,11.322-29.741,11.321-41.061,0c-5.484-5.484-8.504-12.774-8.504-20.531c0-7.755,3.02-15.047,8.504-20.531
	c5.661-5.661,13.096-8.491,20.531-8.491c3.435,0,6.868,0.612,10.128,1.82l-9.957,14.017c-2.645,3.726-2.221,8.774,1.011,12.006
	c1.812,1.812,4.195,2.739,6.596,2.739c1.88,0,3.772-0.57,5.407-1.732l14.032-9.967C371.376,162.265,372.004,165.684,372.004,169.202
	z M496.757,40.473c-0.585,6.962-4.187,13.274-9.884,17.321l-80.615,57.261c-1.451-1.587-2.929-3.154-4.458-4.682
	c-1.532-1.532-3.095-3.015-4.679-4.462l57.685-81.213c3.939-5.546,10.086-9.054,16.865-9.624c6.776-0.57,13.425,1.862,18.235,6.673
	C494.845,26.685,497.343,33.511,496.757,40.473z"/>
<g>
</g>
<g>
</g>
<g>
</g>
<g>
</g>
<g>
</g>
<g>
</g>
<g>
</g>
<g>
</g>
<g>
</g>
<g>
</g>
<g>
</g>
<g>
</g>
<g>
</g>
<g>
</g>
<g>
</g>
</svg>
