<?xml version="1.0" encoding="iso-8859-1"?>
<!-- Generator: Adobe Illustrator 19.0.0, SVG Export Plug-In . SVG Version: 6.00 Build 0)  -->
<svg version="1.1" id="Capa_1" xmlns="http://www.w3.org/2000/svg" xmlns:xlink="http://www.w3.org/1999/xlink" x="0px" y="0px"
	 viewBox="0 0 512.001 512.001" style="enable-background:new 0 0 512.001 512.001;" xml:space="preserve">
<g>
	<path style="fill:#92E0C0;" d="M231.492,160.627L122.755,269.364l-107.2-9.449c-7.665-0.676-11.064-9.995-5.628-15.43l0,0
		c46.062-46.062,106.97-74.303,171.929-79.718L231.492,160.627z"/>
	<path style="fill:#92E0C0;" d="M351.089,280.224L242.352,388.961l9.484,107.235c0.678,7.667,10.001,11.07,15.437,5.634l0,0
		c46.062-46.062,74.293-106.98,79.691-171.956L351.089,280.224z"/>
</g>
<g>
	<path style="fill:#6DC296;" d="M30.14,245.567L30.14,245.567c38.267-38.267,85.838-65.412,137.868-79.281
		c-59.732,8.032-115.308,35.425-158.08,78.197l0,0c-5.436,5.436-2.036,14.755,5.628,15.43l15.916,1.403
		C26.683,257.679,25.426,250.28,30.14,245.567z"/>
	<path style="fill:#6DC296;" d="M273.224,491.141l-10.81-122.241l-20.061,20.061l9.484,107.235
		c0.678,7.667,10.001,11.07,15.437,5.635l0,0c2.333-2.333,4.608-4.714,6.849-7.122C273.654,493.624,273.339,492.432,273.224,491.141
		z"/>
</g>
<path style="fill:#FFFFFF;" d="M495.171,7.805l-85.703,25.052l-63.313,18.506c-5.211,1.523-9.955,4.334-13.794,8.173
	L101.832,290.065c-2.923,2.923-2.923,7.662,0,10.585L148,346.82l16.936,16.936l45.68,45.68c3.193,3.193,8.37,3.192,11.563,0
	l128.909-129.212l100.456-100.171c4.283-4.27,7.417-9.553,9.114-15.358l43.293-148.109C505.521,11.218,500.539,6.236,495.171,7.805z
	"/>
<path style="fill:#E4EAF8;" d="M137.086,283.694L344.46,76.32c3.172-3.172,7.092-5.495,11.399-6.754l144.996-42.383
	c0.473-1.617,2.625-8.981,3.097-10.596c0.012-0.042,0.016-0.083,0.027-0.125c1.47-5.374-3.534-10.2-8.809-8.657L345.438,51.573
	c-4.741,1.386-9.057,3.944-12.55,7.437L101.832,290.066c-2.898,2.898-2.92,7.665,0,10.585l9.148,9.148L137.086,283.694z"/>
<circle style="fill:#FFC850;" cx="346.319" cy="165.444" r="42.49"/>
<path style="fill:#FEA82F;" d="M336.27,135.398c5.734-5.734,12.699-9.483,20.044-11.255c-13.911-3.354-29.186,0.396-40.045,11.255
	c-16.593,16.593-16.593,43.496,0,60.09c10.859,10.859,26.134,14.609,40.045,11.255C324.27,199.016,312.763,158.905,336.27,135.398z"
	/>
<path style="fill:#ABB0B7;" d="M165.912,362.999l-17.154-17.154l-32.165-32.165L92.51,337.763c-4.355,4.354-4.354,11.48,0,15.835
	c6.551,6.551,25.475,25.475,32.825,32.825c7.071,7.071,25.704,25.704,32.825,32.825c4.355,4.355,11.48,4.355,15.835,0l24.083-24.083
	L165.912,362.999z"/>
<path style="fill:#969A9F;" d="M103.448,355.231l27.348-27.348l-14.203-14.203l-24.083,24.083c-4.355,4.354-4.354,11.48,0,15.835
	l7.563,7.563C100.636,358.985,101.752,356.926,103.448,355.231z"/>
<path style="fill:#C2C7D0;" d="M191.043,337.651l-16.936-16.936l-51.461-51.461l-20.813,20.813c-2.923,2.923-2.923,7.662,0,10.585
	l46.168,46.168l16.936,16.936l45.68,45.68c3.193,3.193,8.37,3.193,11.562,0l20.325-20.324L191.043,337.651z"/>
<path style="fill:#ABB0B7;" d="M101.832,300.651l9.148,9.148l26.105-26.105l-14.441-14.441l-20.813,20.813
	C98.91,292.988,98.909,297.728,101.832,300.651z"/>
<path style="fill:#FEA82F;" d="M495.171,7.805l-85.703,25.052L478.9,102.29l25.052-85.703
	C505.521,11.218,500.539,6.236,495.171,7.805z"/>
<path style="fill:#FF8031;" d="M495.171,7.805l-28.139,8.225l-57.564,16.826l16.28,16.28l75.106-21.955l3.097-10.596
	C505.522,11.217,500.539,6.237,495.171,7.805z"/>
<path id="SVGCleanerId_0" style="fill:#FFC850;" d="M125.242,387.249l-0.734-0.734c-4.474-4.474-4.474-11.728,0-16.202
	L274.741,220.08c4.474-4.474,11.728-4.474,16.202,0l0.734,0.734c4.474,4.474,4.474,11.728,0,16.202L141.446,387.249
	C136.971,391.723,129.716,391.723,125.242,387.249z"/>
<g>
	<path id="SVGCleanerId_0_1_" style="fill:#FFC850;" d="M125.242,387.249l-0.734-0.734c-4.474-4.474-4.474-11.728,0-16.202
		L274.741,220.08c4.474-4.474,11.728-4.474,16.202,0l0.734,0.734c4.474,4.474,4.474,11.728,0,16.202L141.446,387.249
		C136.971,391.723,129.716,391.723,125.242,387.249z"/>
</g>
<path style="fill:#F9B428;" d="M134.755,376.448l150.233-150.233c2.291-2.291,5.31-3.4,8.312-3.346
	c-0.454-0.729-0.988-1.422-1.621-2.056l-0.734-0.734c-4.474-4.474-11.728-4.474-16.202,0L124.508,370.311
	c-4.474,4.474-4.474,11.728,0,16.202l0.734,0.734c2.183,2.184,5.029,3.293,7.891,3.345
	C130.38,386.173,130.913,380.289,134.755,376.448z"/>
<g>
	<path style="fill:#FF8031;" d="M75.276,367.829c-2.929-2.929-7.678-2.929-10.606,0L39.169,393.33
		c-2.929,2.929-2.929,7.678,0,10.606c2.929,2.929,7.678,2.929,10.606,0l25.501-25.501C78.205,375.508,78.205,370.758,75.276,367.829
		z"/>
	<path style="fill:#FF8031;" d="M100.084,392.638c-2.929-2.929-7.678-2.929-10.606,0l-25.501,25.501
		c-2.929,2.929-2.929,7.678,0,10.606c2.929,2.929,7.678,2.929,10.606,0l25.501-25.501
		C103.013,400.316,103.013,395.567,100.084,392.638z"/>
	<path style="fill:#FF8031;" d="M139.093,442.253l-25.501,25.501c-2.929,2.929-2.929,7.678,0,10.606
		c2.929,2.929,7.678,2.929,10.606,0l25.501-25.501c2.929-2.929,2.929-7.678,0-10.606
		C146.771,439.324,142.022,439.324,139.093,442.253z"/>
	<path style="fill:#FF8031;" d="M124.891,417.446c-2.929-2.929-7.678-2.929-10.606,0l-25.501,25.501
		c-2.929,2.929-2.929,7.678,0,10.606c2.929,2.929,7.678,2.929,10.606,0l25.501-25.501
		C127.82,425.124,127.82,420.375,124.891,417.446z"/>
</g>
<path style="fill:#474D54;" d="M493.313,0.604c-32.586,9.525-126.042,36.843-156.958,45.88c-1.209,0.353-2.309,1.005-3.199,1.896
	L228.265,153.271l-46.865,3.944C114.813,162.819,52.12,191.928,4.87,239.178c-9.945,9.945-3.733,26.967,10.262,28.189l91.08,7.956
	l-9.436,9.437c-5.856,5.854-5.859,15.335,0,21.193l9.109,9.109l-18.473,18.473c-7.235,7.234-7.235,19.007,0,26.241l64.815,64.815
	c7.234,7.235,19.007,7.235,26.241,0l18.472-18.472l8.62,8.62c6.12,6.121,16.069,6.1,22.17,0l8.948-8.948l7.956,91.079
	c0.566,6.479,4.714,11.886,10.826,14.11c6.094,2.22,12.753,0.761,17.362-3.849c29.075-29.074,51.06-63.391,65.347-101.998
	c1.438-3.885-0.546-8.199-4.431-9.637c-3.886-1.439-8.199,0.545-9.637,4.431c-13.53,36.563-34.352,69.063-61.886,96.597
	c-0.939,0.941-2.522,0.374-2.638-0.961l-9.051-103.622l91.792-91.792c-3.046,37.186-3.872,46.884-8.124,65.73
	c-0.912,4.041,1.625,8.055,5.666,8.966c4.039,0.911,8.055-1.625,8.966-5.666c5.192-23.011,5.588-33.947,9.904-85.443
	l104.891-104.891c0.891-0.89,1.542-1.99,1.896-3.199l20.828-71.253c0-0.001,0.001-0.002,0.001-0.002l25.052-85.704
	C514.629,7.635,504.332-2.623,493.313,0.604z M16.439,252.423c-1.327-0.115-1.905-1.694-0.961-2.638
	c44.748-44.748,104.121-72.315,167.18-77.623l29.17-2.455l-91.767,91.767L16.439,252.423z M119.452,365.006
	c-0.952,0.952-1.782,1.993-2.5,3.096l-18.934-18.934c-1.362-1.363-1.362-3.665,0-5.027l18.473-18.473
	c9.567,9.567,14.252,14.252,21.15,21.15L119.452,365.006z M136.756,381.576c-1.746,1.746-4.577,1.752-6.33,0
	c-1.745-1.745-1.745-4.584,0-6.33c6.087-6.087,141.352-141.352,149.499-149.499c1.746-1.746,4.585-1.745,6.33,0
	c1.747,1.746,1.753,4.577,0,6.33C280.856,237.475,141.413,376.919,136.756,381.576z M167.86,413.984
	c-0.895,0.894-1.959,1.028-2.514,1.028s-1.619-0.134-2.514-1.028l-18.933-18.934c1.103-0.718,2.143-1.548,3.096-2.5l18.188-18.188
	l21.15,21.15L167.86,413.984z M451.659,169.596L451.659,169.596L451.659,169.596c-9.922,9.922-225.737,225.737-234.535,234.535
	c-0.016,0.016-0.036,0.021-0.053,0.035c-0.267,0.218-0.656,0.212-0.903-0.035c-4.475-4.476-35.675-35.676-40.377-40.377
	l121.437-121.437c6.871-6.871,8.19-18.619-0.734-27.544c-7.408-7.408-19.399-7.41-26.81,0L148.247,336.211
	c-16.185-16.185-37.23-37.21-40.865-40.844c8.329-8.329,225.3-225.3,235.024-235.024l0,0l0,0l154.378-45.126L451.659,169.596z"/>
<g>
</g>
<g>
</g>
<g>
</g>
<g>
</g>
<g>
</g>
<g>
</g>
<g>
</g>
<g>
</g>
<g>
</g>
<g>
</g>
<g>
</g>
<g>
</g>
<g>
</g>
<g>
</g>
<g>
</g>
</svg>
